G04*
G04 #@! TF.GenerationSoftware,Altium Limited,Altium Designer,20.0.13 (296)*
G04*
G04 Layer_Color=16711935*
%FSLAX44Y44*%
%MOMM*%
G71*
G01*
G75*
%ADD25R,1.4700X1.4700*%
%ADD28R,1.4700X1.4700*%
%ADD31C,1.9000*%
%ADD32C,5.2800*%
%ADD33C,2.7000*%
%ADD34R,2.2000X4.2000*%
%ADD35R,4.2000X2.2000*%
%ADD36C,2.2000*%
%ADD37R,2.2000X2.2000*%
%ADD38R,1.9000X1.9000*%
%ADD39C,2.4000*%
%ADD40C,1.4000*%
%ADD41R,1.4000X1.7000*%
%ADD42R,1.7000X1.4000*%
%ADD43R,2.7000X2.7000*%
%ADD44R,1.9000X1.9000*%
%ADD79R,0.5000X1.9000*%
%ADD80R,1.4700X1.5970*%
G04:AMPARAMS|DCode=81|XSize=1.597mm|YSize=1.47mm|CornerRadius=0mm|HoleSize=0mm|Usage=FLASHONLY|Rotation=90.000|XOffset=0mm|YOffset=0mm|HoleType=Round|Shape=Octagon|*
%AMOCTAGOND81*
4,1,8,0.3675,0.7985,-0.3675,0.7985,-0.7350,0.4310,-0.7350,-0.4310,-0.3675,-0.7985,0.3675,-0.7985,0.7350,-0.4310,0.7350,0.4310,0.3675,0.7985,0.0*
%
%ADD81OCTAGOND81*%

%ADD82R,1.9500X2.4000*%
D25*
X67225Y810806D02*
D03*
Y787946D02*
D03*
X-167781D02*
D03*
Y810806D02*
D03*
X89916Y607352D02*
D03*
Y630212D02*
D03*
X21139Y810806D02*
D03*
Y787946D02*
D03*
X164479Y810806D02*
D03*
Y787946D02*
D03*
X118392D02*
D03*
Y810806D02*
D03*
X210566D02*
D03*
Y787946D02*
D03*
X89662Y650786D02*
D03*
Y673646D02*
D03*
X-94079Y787946D02*
D03*
Y810806D02*
D03*
X-71035D02*
D03*
Y787946D02*
D03*
X-25132D02*
D03*
Y810806D02*
D03*
X-2088D02*
D03*
Y787946D02*
D03*
X-47498D02*
D03*
Y810806D02*
D03*
X-117122Y787946D02*
D03*
Y810806D02*
D03*
X44182Y787946D02*
D03*
Y810806D02*
D03*
X141436Y787946D02*
D03*
Y810806D02*
D03*
X187523Y787946D02*
D03*
Y810806D02*
D03*
X95250D02*
D03*
Y787946D02*
D03*
X-140166D02*
D03*
Y810806D02*
D03*
X-89662Y650786D02*
D03*
Y673646D02*
D03*
X-190825Y787946D02*
D03*
Y810806D02*
D03*
X-93980Y486448D02*
D03*
Y509308D02*
D03*
X93980D02*
D03*
Y486448D02*
D03*
D28*
X262890Y821982D02*
D03*
X285750D02*
D03*
X263144Y802424D02*
D03*
X286004D02*
D03*
X263144Y782866D02*
D03*
X286004D02*
D03*
X-52070Y486448D02*
D03*
X-74930D02*
D03*
X74930D02*
D03*
X52070D02*
D03*
D31*
X16710Y83681D02*
D03*
X66710D02*
D03*
X-65910Y131680D02*
D03*
X-15910D02*
D03*
X-65910Y44638D02*
D03*
X-15910D02*
D03*
X-118872Y1191514D02*
D03*
X0Y759244D02*
D03*
X25400D02*
D03*
X-170593Y1036428D02*
D03*
Y986428D02*
D03*
X-231470Y1036428D02*
D03*
Y986428D02*
D03*
X-291338Y1036428D02*
D03*
Y986428D02*
D03*
X-352298Y1036428D02*
D03*
Y986428D02*
D03*
X16710Y131680D02*
D03*
X66710D02*
D03*
X-15910Y83681D02*
D03*
X-65910D02*
D03*
X16710Y44638D02*
D03*
X66710D02*
D03*
X-319532Y1107948D02*
D03*
Y1082548D02*
D03*
X-348742Y1107948D02*
D03*
Y1082548D02*
D03*
X170942Y879640D02*
D03*
X196342D02*
D03*
D32*
X0Y1100000D02*
D03*
X-450000Y50000D02*
D03*
X450000D02*
D03*
D33*
X-81896Y1237596D02*
D03*
X-31896D02*
D03*
Y1187596D02*
D03*
X-81896D02*
D03*
X-56896Y1212596D02*
D03*
X-155702Y50038D02*
D03*
X396494Y1235456D02*
D03*
X157734Y105918D02*
D03*
D34*
X248402Y1189752D02*
D03*
D35*
X295402Y1224752D02*
D03*
Y1162752D02*
D03*
D36*
X228600Y446255D02*
D03*
Y582145D02*
D03*
Y718035D02*
D03*
X-228600Y446255D02*
D03*
Y718035D02*
D03*
Y582145D02*
D03*
D37*
X228600Y396255D02*
D03*
Y532145D02*
D03*
Y668035D02*
D03*
X-228600Y396255D02*
D03*
Y668035D02*
D03*
Y532145D02*
D03*
D38*
X-118872Y1166114D02*
D03*
X77216Y880148D02*
D03*
X-319532Y1133348D02*
D03*
X-348742D02*
D03*
X-75184Y880148D02*
D03*
D39*
X-211820Y310000D02*
D03*
Y225000D02*
D03*
X-336820Y310000D02*
D03*
Y225000D02*
D03*
X-153940D02*
D03*
Y310000D02*
D03*
X-28940Y225000D02*
D03*
Y310000D02*
D03*
X153940D02*
D03*
Y225000D02*
D03*
X28940D02*
D03*
Y310000D02*
D03*
X336820D02*
D03*
Y225000D02*
D03*
X211820D02*
D03*
Y310000D02*
D03*
D40*
X-160068Y1234752D02*
D03*
X-225068D02*
D03*
X-298953Y1234752D02*
D03*
X-363954D02*
D03*
D41*
X-150068Y1164752D02*
D03*
X-163068Y1184752D02*
D03*
X-179068Y1164752D02*
D03*
X-211068D02*
D03*
X-231068Y1194752D02*
D03*
X-369953Y1194752D02*
D03*
X-349953Y1164752D02*
D03*
X-317953D02*
D03*
X-301953Y1184752D02*
D03*
X-288953Y1164752D02*
D03*
D42*
X-195068Y1245752D02*
D03*
X-333954Y1245752D02*
D03*
D43*
X-155702Y100838D02*
D03*
X396494Y1184656D02*
D03*
X157734Y55118D02*
D03*
D44*
X-25400Y759244D02*
D03*
X145542Y879640D02*
D03*
D79*
X-42500Y687830D02*
D03*
X-37500D02*
D03*
X-32500D02*
D03*
X-27500D02*
D03*
X-22500D02*
D03*
X-17500Y687830D02*
D03*
X-12500Y687830D02*
D03*
X-7500D02*
D03*
X-2500D02*
D03*
X2500D02*
D03*
X7500D02*
D03*
X12500D02*
D03*
X17500Y687830D02*
D03*
X22500Y687830D02*
D03*
X27500D02*
D03*
X32500D02*
D03*
X37500D02*
D03*
X42500D02*
D03*
Y592330D02*
D03*
X37500D02*
D03*
X32500D02*
D03*
X27500D02*
D03*
X22500D02*
D03*
X17500Y592330D02*
D03*
X12500Y592330D02*
D03*
X7500D02*
D03*
X2500D02*
D03*
X-2500D02*
D03*
X-7500D02*
D03*
X-12500D02*
D03*
X-17500Y592330D02*
D03*
X-22500Y592330D02*
D03*
X-27500D02*
D03*
X-32500D02*
D03*
X-37500D02*
D03*
X-42500D02*
D03*
D80*
X236728Y786549D02*
D03*
D81*
Y820839D02*
D03*
D82*
X52324Y417982D02*
D03*
Y463982D02*
D03*
X-17780Y500952D02*
D03*
Y454952D02*
D03*
X-52324Y417982D02*
D03*
Y463982D02*
D03*
X17780Y500952D02*
D03*
Y454952D02*
D03*
M02*
