G04*
G04 #@! TF.GenerationSoftware,Altium Limited,Altium Designer,20.0.13 (296)*
G04*
G04 Layer_Physical_Order=2*
G04 Layer_Color=16711680*
%FSLAX44Y44*%
%MOMM*%
G71*
G01*
G75*
%ADD12C,0.2540*%
%ADD18R,1.2700X1.2700*%
%ADD21R,1.2700X1.2700*%
%ADD36C,2.2000*%
%ADD45C,0.5080*%
%ADD46C,3.8100*%
%ADD47C,1.5000*%
%ADD48C,2.5400*%
%ADD50C,0.7620*%
%ADD55C,1.7000*%
%ADD56C,5.0800*%
%ADD57C,2.5000*%
%ADD58R,2.0000X4.0000*%
%ADD59R,4.0000X2.0000*%
%ADD60C,2.0000*%
%ADD61R,2.0000X2.0000*%
%ADD62R,1.7000X1.7000*%
%ADD63C,1.2000*%
%ADD64R,1.2000X1.5000*%
%ADD65R,1.5000X1.2000*%
%ADD66R,2.5000X2.5000*%
%ADD67R,1.7000X1.7000*%
%ADD68C,1.2700*%
%ADD69C,0.6096*%
%ADD70R,0.3000X1.7000*%
%ADD71R,1.2700X1.3970*%
G04:AMPARAMS|DCode=72|XSize=1.397mm|YSize=1.27mm|CornerRadius=0mm|HoleSize=0mm|Usage=FLASHONLY|Rotation=90.000|XOffset=0mm|YOffset=0mm|HoleType=Round|Shape=Octagon|*
%AMOCTAGOND72*
4,1,8,0.3175,0.6985,-0.3175,0.6985,-0.6350,0.3810,-0.6350,-0.3810,-0.3175,-0.6985,0.3175,-0.6985,0.6350,-0.3810,0.6350,0.3810,0.3175,0.6985,0.0*
%
%ADD72OCTAGOND72*%

%ADD73R,1.7500X2.2000*%
%ADD74R,3.2258X1.3462*%
%ADD75R,2.1844X3.4544*%
%ADD76R,2.2606X3.4036*%
%ADD77R,1.6256X2.3876*%
%ADD78R,0.8128X2.5908*%
G36*
X500000Y0D02*
X-500000D01*
Y1270000D01*
X500000D01*
Y0D01*
D02*
G37*
%LPC*%
G36*
X-323913Y1254292D02*
X-331454D01*
Y1248252D01*
X-323913D01*
Y1254292D01*
D02*
G37*
G36*
X-336454D02*
X-343993D01*
Y1248252D01*
X-336454D01*
Y1254292D01*
D02*
G37*
G36*
X-185028Y1254292D02*
X-192568D01*
Y1248252D01*
X-185028D01*
Y1254292D01*
D02*
G37*
G36*
X-197568D02*
X-205108D01*
Y1248252D01*
X-197568D01*
Y1254292D01*
D02*
G37*
G36*
X398994Y1250322D02*
Y1237956D01*
X411361D01*
X411316Y1238404D01*
X410456Y1241239D01*
X409060Y1243852D01*
X407180Y1246142D01*
X404890Y1248022D01*
X402277Y1249418D01*
X399442Y1250278D01*
X398994Y1250322D01*
D02*
G37*
G36*
X393994D02*
X393546Y1250278D01*
X390711Y1249418D01*
X388098Y1248022D01*
X385808Y1246142D01*
X383928Y1243852D01*
X382532Y1241239D01*
X381672Y1238404D01*
X381628Y1237956D01*
X393994D01*
Y1250322D01*
D02*
G37*
G36*
X-323913Y1243252D02*
X-331454D01*
Y1237212D01*
X-323913D01*
Y1243252D01*
D02*
G37*
G36*
X-336454D02*
X-343993D01*
Y1237212D01*
X-336454D01*
Y1243252D01*
D02*
G37*
G36*
X-185028Y1243252D02*
X-192568D01*
Y1237212D01*
X-185028D01*
Y1243252D01*
D02*
G37*
G36*
X-197568D02*
X-205108D01*
Y1237212D01*
X-197568D01*
Y1243252D01*
D02*
G37*
G36*
X317942Y1237292D02*
X297902D01*
Y1227252D01*
X317942D01*
Y1237292D01*
D02*
G37*
G36*
X292902D02*
X272862D01*
Y1227252D01*
X292902D01*
Y1237292D01*
D02*
G37*
G36*
X-298953Y1243366D02*
X-301183Y1243072D01*
X-303260Y1242212D01*
X-305044Y1240843D01*
X-306413Y1239059D01*
X-307274Y1236981D01*
X-307567Y1234752D01*
X-307274Y1232523D01*
X-306413Y1230445D01*
X-305044Y1228661D01*
X-303260Y1227292D01*
X-301183Y1226432D01*
X-298953Y1226138D01*
X-296724Y1226432D01*
X-294647Y1227292D01*
X-292863Y1228661D01*
X-291494Y1230445D01*
X-290633Y1232523D01*
X-290340Y1234752D01*
X-290633Y1236981D01*
X-291494Y1239059D01*
X-292863Y1240843D01*
X-294647Y1242212D01*
X-296724Y1243072D01*
X-298953Y1243366D01*
D02*
G37*
G36*
X-363954D02*
X-366183Y1243072D01*
X-368260Y1242212D01*
X-370044Y1240843D01*
X-371413Y1239059D01*
X-372274Y1236981D01*
X-372567Y1234752D01*
X-372274Y1232523D01*
X-371413Y1230445D01*
X-370044Y1228661D01*
X-368260Y1227292D01*
X-366183Y1226432D01*
X-363954Y1226138D01*
X-361724Y1226432D01*
X-359647Y1227292D01*
X-357863Y1228661D01*
X-356494Y1230445D01*
X-355633Y1232523D01*
X-355340Y1234752D01*
X-355633Y1236981D01*
X-356494Y1239059D01*
X-357863Y1240843D01*
X-359647Y1242212D01*
X-361724Y1243072D01*
X-363954Y1243366D01*
D02*
G37*
G36*
X-160068Y1243366D02*
X-162297Y1243072D01*
X-164375Y1242212D01*
X-166159Y1240843D01*
X-167528Y1239059D01*
X-168388Y1236981D01*
X-168682Y1234752D01*
X-168388Y1232523D01*
X-167528Y1230445D01*
X-166159Y1228661D01*
X-164375Y1227292D01*
X-162297Y1226432D01*
X-160068Y1226138D01*
X-157839Y1226432D01*
X-155761Y1227292D01*
X-153977Y1228661D01*
X-152608Y1230445D01*
X-151748Y1232523D01*
X-151454Y1234752D01*
X-151748Y1236981D01*
X-152608Y1239059D01*
X-153977Y1240843D01*
X-155761Y1242212D01*
X-157839Y1243072D01*
X-160068Y1243366D01*
D02*
G37*
G36*
X-225068D02*
X-227297Y1243072D01*
X-229375Y1242212D01*
X-231159Y1240843D01*
X-232528Y1239059D01*
X-233388Y1236981D01*
X-233682Y1234752D01*
X-233388Y1232523D01*
X-232528Y1230445D01*
X-231159Y1228661D01*
X-229375Y1227292D01*
X-227297Y1226432D01*
X-225068Y1226138D01*
X-222839Y1226432D01*
X-220761Y1227292D01*
X-218977Y1228661D01*
X-217608Y1230445D01*
X-216748Y1232523D01*
X-216454Y1234752D01*
X-216748Y1236981D01*
X-217608Y1239059D01*
X-218977Y1240843D01*
X-220761Y1242212D01*
X-222839Y1243072D01*
X-225068Y1243366D01*
D02*
G37*
G36*
X-17029Y1235096D02*
X-29396D01*
Y1222729D01*
X-28948Y1222774D01*
X-26113Y1223634D01*
X-23500Y1225030D01*
X-21210Y1226910D01*
X-19330Y1229200D01*
X-17934Y1231813D01*
X-17074Y1234648D01*
X-17029Y1235096D01*
D02*
G37*
G36*
X-34396D02*
X-46763D01*
X-46718Y1234648D01*
X-45858Y1231813D01*
X-44462Y1229200D01*
X-42582Y1226910D01*
X-40292Y1225030D01*
X-37679Y1223634D01*
X-34844Y1222774D01*
X-34396Y1222729D01*
Y1235096D01*
D02*
G37*
G36*
X-67029D02*
X-79396D01*
Y1222729D01*
X-78948Y1222774D01*
X-76113Y1223634D01*
X-73500Y1225030D01*
X-71210Y1226910D01*
X-69330Y1229200D01*
X-67934Y1231813D01*
X-67074Y1234648D01*
X-67029Y1235096D01*
D02*
G37*
G36*
X411361Y1232956D02*
X398994D01*
Y1220590D01*
X399442Y1220634D01*
X402277Y1221494D01*
X404890Y1222890D01*
X407180Y1224770D01*
X409060Y1227060D01*
X410456Y1229673D01*
X411316Y1232508D01*
X411361Y1232956D01*
D02*
G37*
G36*
X393994D02*
X381628D01*
X381672Y1232508D01*
X382532Y1229673D01*
X383928Y1227060D01*
X385808Y1224770D01*
X388098Y1222890D01*
X390711Y1221494D01*
X393546Y1220634D01*
X393994Y1220590D01*
Y1232956D01*
D02*
G37*
G36*
X317942Y1222252D02*
X297902D01*
Y1212212D01*
X317942D01*
Y1222252D01*
D02*
G37*
G36*
X292902D02*
X272862D01*
Y1212212D01*
X292902D01*
Y1222252D01*
D02*
G37*
G36*
X-118872Y1202649D02*
X-121754Y1202270D01*
X-124440Y1201157D01*
X-126746Y1199388D01*
X-128515Y1197082D01*
X-128642Y1196776D01*
X-128913Y1196329D01*
X-129250Y1195872D01*
X-129591Y1195493D01*
X-129936Y1195184D01*
X-130287Y1194935D01*
X-130652Y1194736D01*
X-131042Y1194580D01*
X-131468Y1194465D01*
X-131805Y1194413D01*
X-154456D01*
X-154528Y1194416D01*
Y1194792D01*
X-156994D01*
X-157089Y1194811D01*
X-157187Y1194792D01*
X-171608D01*
Y1176345D01*
X-171608Y1175171D01*
X-172795Y1174792D01*
X-187608D01*
Y1154712D01*
X-184509D01*
X-184473Y1154623D01*
X-184370Y1154242D01*
X-184281Y1153704D01*
X-184247Y1153330D01*
Y1124059D01*
X-184201Y1123823D01*
X-184567Y1120100D01*
X-185722Y1116294D01*
X-187597Y1112786D01*
X-189325Y1110681D01*
X-190170Y1109761D01*
Y1109761D01*
X-191052Y1108878D01*
X-221521Y1078410D01*
X-221655Y1078210D01*
X-224546Y1075837D01*
X-228054Y1073962D01*
X-231861Y1072807D01*
X-235583Y1072441D01*
X-235819Y1072487D01*
X-310897D01*
X-310941Y1072479D01*
X-312604Y1072348D01*
X-313078Y1073585D01*
X-311658Y1074674D01*
X-309889Y1076980D01*
X-308776Y1079666D01*
X-308726Y1080048D01*
X-319532D01*
X-330338D01*
X-330288Y1079666D01*
X-329175Y1076980D01*
X-327406Y1074674D01*
X-325100Y1072905D01*
X-322414Y1071792D01*
X-321885Y1071722D01*
X-321713Y1070419D01*
X-324777Y1069150D01*
X-328868Y1066643D01*
X-332483Y1063556D01*
X-332520Y1063531D01*
X-347108Y1048943D01*
X-347382Y1048735D01*
X-347825Y1048459D01*
X-348304Y1048216D01*
X-348826Y1048007D01*
X-349394Y1047831D01*
X-350013Y1047692D01*
X-350683Y1047592D01*
X-351408Y1047533D01*
X-351986Y1047522D01*
X-352298Y1047563D01*
X-355180Y1047184D01*
X-357866Y1046071D01*
X-360172Y1044302D01*
X-361941Y1041996D01*
X-363054Y1039310D01*
X-363433Y1036428D01*
X-363054Y1033546D01*
X-361941Y1030860D01*
X-360172Y1028554D01*
X-357866Y1026785D01*
X-355180Y1025672D01*
X-352298Y1025293D01*
X-349416Y1025672D01*
X-346730Y1026785D01*
X-344424Y1028554D01*
X-342655Y1030860D01*
X-341542Y1033546D01*
X-341163Y1036428D01*
X-341204Y1036740D01*
X-341193Y1037318D01*
X-341134Y1038043D01*
X-341034Y1038714D01*
X-340895Y1039332D01*
X-340719Y1039900D01*
X-340510Y1040422D01*
X-340267Y1040901D01*
X-339991Y1041345D01*
X-339783Y1041618D01*
X-325195Y1056206D01*
X-325061Y1056406D01*
X-322170Y1058779D01*
X-318662Y1060654D01*
X-314855Y1061809D01*
X-311133Y1062175D01*
X-310897Y1062129D01*
X-235819D01*
X-235775Y1062137D01*
X-231036Y1062510D01*
X-226371Y1063630D01*
X-221939Y1065466D01*
X-217848Y1067973D01*
X-214233Y1071060D01*
X-214196Y1071085D01*
X-182845Y1102436D01*
X-182845Y1102436D01*
X-182845Y1102436D01*
X-182820Y1102473D01*
X-179733Y1106088D01*
X-177226Y1110179D01*
X-175390Y1114611D01*
X-174270Y1119276D01*
X-173897Y1124015D01*
X-173888Y1124059D01*
Y1153330D01*
X-173855Y1153704D01*
X-173766Y1154242D01*
X-173663Y1154623D01*
X-173627Y1154712D01*
X-170528D01*
Y1173159D01*
X-170528Y1174333D01*
X-169341Y1174712D01*
X-158608D01*
Y1167252D01*
X-152568D01*
Y1174792D01*
X-154528D01*
Y1183799D01*
X-154458Y1183827D01*
X-154073Y1183930D01*
X-153529Y1184020D01*
X-153152Y1184054D01*
X-130180D01*
X-129910Y1184025D01*
X-129333Y1183926D01*
X-128756Y1183790D01*
X-127377Y1183344D01*
X-126728Y1183080D01*
X-125185Y1182336D01*
X-124682Y1182057D01*
X-124440Y1181871D01*
X-121754Y1180758D01*
X-118872Y1180379D01*
X-115990Y1180758D01*
X-113304Y1181871D01*
X-110998Y1183640D01*
X-109229Y1185946D01*
X-108116Y1188632D01*
X-107737Y1191514D01*
X-108116Y1194396D01*
X-109229Y1197082D01*
X-110998Y1199388D01*
X-113304Y1201157D01*
X-115990Y1202270D01*
X-118872Y1202649D01*
D02*
G37*
G36*
X-29396Y1202462D02*
Y1190096D01*
X-17030D01*
X-17074Y1190544D01*
X-17934Y1193379D01*
X-19330Y1195992D01*
X-21210Y1198282D01*
X-23500Y1200162D01*
X-26113Y1201558D01*
X-28948Y1202418D01*
X-29396Y1202462D01*
D02*
G37*
G36*
X-79396Y1202463D02*
Y1190096D01*
X-67030D01*
X-67074Y1190544D01*
X-67934Y1193379D01*
X-69330Y1195992D01*
X-71210Y1198282D01*
X-73500Y1200162D01*
X-76113Y1201558D01*
X-78948Y1202418D01*
X-79396Y1202463D01*
D02*
G37*
G36*
X-34396Y1202462D02*
X-34844Y1202418D01*
X-37679Y1201558D01*
X-40292Y1200162D01*
X-42582Y1198282D01*
X-44462Y1195992D01*
X-45858Y1193379D01*
X-46718Y1190544D01*
X-46762Y1190096D01*
X-34396D01*
Y1202462D01*
D02*
G37*
G36*
X-361413Y1204792D02*
X-378493D01*
Y1184712D01*
X-361413D01*
Y1204792D01*
D02*
G37*
G36*
X-222528Y1204792D02*
X-239608D01*
Y1184712D01*
X-222528D01*
Y1204792D01*
D02*
G37*
G36*
X-17030Y1185096D02*
X-29396D01*
Y1172729D01*
X-28948Y1172774D01*
X-26113Y1173634D01*
X-23500Y1175030D01*
X-21210Y1176910D01*
X-19330Y1179200D01*
X-17934Y1181813D01*
X-17074Y1184648D01*
X-17030Y1185096D01*
D02*
G37*
G36*
X-34396D02*
X-46762D01*
X-46718Y1184648D01*
X-45858Y1181813D01*
X-44462Y1179200D01*
X-42582Y1176910D01*
X-40292Y1175030D01*
X-37679Y1173634D01*
X-34844Y1172774D01*
X-34396Y1172729D01*
Y1185096D01*
D02*
G37*
G36*
X-67030D02*
X-79396D01*
Y1172729D01*
X-78948Y1172774D01*
X-76113Y1173634D01*
X-73500Y1175030D01*
X-71210Y1176910D01*
X-69330Y1179200D01*
X-67934Y1181813D01*
X-67074Y1184648D01*
X-67030Y1185096D01*
D02*
G37*
G36*
X411534Y1199696D02*
X381454D01*
Y1169616D01*
X411534D01*
Y1199696D01*
D02*
G37*
G36*
X-141528Y1174792D02*
X-147568D01*
Y1167252D01*
X-141528D01*
Y1174792D01*
D02*
G37*
G36*
X260942Y1212292D02*
X235862D01*
Y1167212D01*
X260942D01*
Y1212292D01*
D02*
G37*
G36*
X-293414Y1194792D02*
X-310493D01*
Y1176345D01*
X-310494Y1175171D01*
X-311681Y1174792D01*
X-326493D01*
Y1154712D01*
X-309414D01*
Y1173159D01*
X-309413Y1174333D01*
X-308226Y1174712D01*
X-297493D01*
Y1154712D01*
X-280413D01*
Y1174792D01*
X-293414D01*
Y1194792D01*
D02*
G37*
G36*
X-341413Y1174792D02*
X-358493D01*
Y1154712D01*
X-341413D01*
Y1174792D01*
D02*
G37*
G36*
X-141528Y1162252D02*
X-147568D01*
Y1154712D01*
X-141528D01*
Y1162252D01*
D02*
G37*
G36*
X-152568D02*
X-158608D01*
Y1154712D01*
X-152568D01*
Y1162252D01*
D02*
G37*
G36*
X-202528Y1174792D02*
X-219608D01*
Y1154712D01*
X-202528D01*
Y1174792D01*
D02*
G37*
G36*
X317942Y1175292D02*
X272862D01*
Y1150212D01*
X317942D01*
Y1175292D01*
D02*
G37*
G36*
X-308492Y1144388D02*
X-330572D01*
Y1122308D01*
X-308492D01*
Y1144388D01*
D02*
G37*
G36*
X-337702D02*
X-359782D01*
Y1122308D01*
X-337702D01*
Y1144388D01*
D02*
G37*
G36*
X-319532Y1119083D02*
X-322414Y1118704D01*
X-325100Y1117591D01*
X-327406Y1115822D01*
X-329175Y1113516D01*
X-330288Y1110830D01*
X-330667Y1107948D01*
X-330288Y1105066D01*
X-329175Y1102380D01*
X-327406Y1100074D01*
X-325100Y1098305D01*
X-322414Y1097192D01*
X-319532Y1096813D01*
X-316650Y1097192D01*
X-313964Y1098305D01*
X-311658Y1100074D01*
X-309889Y1102380D01*
X-308776Y1105066D01*
X-308397Y1107948D01*
X-308776Y1110830D01*
X-309889Y1113516D01*
X-311658Y1115822D01*
X-313964Y1117591D01*
X-316650Y1118704D01*
X-319532Y1119083D01*
D02*
G37*
G36*
X-348742D02*
X-351624Y1118704D01*
X-354310Y1117591D01*
X-356616Y1115822D01*
X-358385Y1113516D01*
X-359498Y1110830D01*
X-359877Y1107948D01*
X-359498Y1105066D01*
X-358385Y1102380D01*
X-356616Y1100074D01*
X-354310Y1098305D01*
X-351624Y1097192D01*
X-348742Y1096813D01*
X-345860Y1097192D01*
X-343174Y1098305D01*
X-340868Y1100074D01*
X-339099Y1102380D01*
X-337986Y1105066D01*
X-337607Y1107948D01*
X-337986Y1110830D01*
X-339099Y1113516D01*
X-340868Y1115822D01*
X-343174Y1117591D01*
X-345860Y1118704D01*
X-348742Y1119083D01*
D02*
G37*
G36*
X-317032Y1093354D02*
Y1085048D01*
X-308726D01*
X-308776Y1085430D01*
X-309889Y1088116D01*
X-311658Y1090422D01*
X-313964Y1092191D01*
X-316650Y1093304D01*
X-317032Y1093354D01*
D02*
G37*
G36*
X-346242D02*
Y1085048D01*
X-337936D01*
X-337986Y1085430D01*
X-339099Y1088116D01*
X-340868Y1090422D01*
X-343174Y1092191D01*
X-345860Y1093304D01*
X-346242Y1093354D01*
D02*
G37*
G36*
X-322032Y1093354D02*
X-322414Y1093304D01*
X-325100Y1092191D01*
X-327406Y1090422D01*
X-329175Y1088116D01*
X-330288Y1085430D01*
X-330338Y1085048D01*
X-322032D01*
Y1093354D01*
D02*
G37*
G36*
X-351242D02*
X-351624Y1093304D01*
X-354310Y1092191D01*
X-356616Y1090422D01*
X-358385Y1088116D01*
X-359498Y1085430D01*
X-359548Y1085048D01*
X-351242D01*
Y1093354D01*
D02*
G37*
G36*
X0Y1128026D02*
X-4384Y1127681D01*
X-8661Y1126655D01*
X-12724Y1124972D01*
X-16473Y1122674D01*
X-19818Y1119818D01*
X-22674Y1116473D01*
X-24972Y1112724D01*
X-26655Y1108661D01*
X-27681Y1104384D01*
X-28026Y1100000D01*
X-27681Y1095616D01*
X-26655Y1091339D01*
X-24972Y1087276D01*
X-22674Y1083527D01*
X-19818Y1080182D01*
X-16473Y1077326D01*
X-12724Y1075028D01*
X-8661Y1073345D01*
X-4384Y1072319D01*
X0Y1071974D01*
X4384Y1072319D01*
X8661Y1073345D01*
X12724Y1075028D01*
X16473Y1077326D01*
X19818Y1080182D01*
X22674Y1083527D01*
X24972Y1087276D01*
X26655Y1091339D01*
X27681Y1095616D01*
X28026Y1100000D01*
X27681Y1104384D01*
X26655Y1108661D01*
X24972Y1112724D01*
X22674Y1116473D01*
X19818Y1119818D01*
X16473Y1122674D01*
X12724Y1124972D01*
X8661Y1126655D01*
X4384Y1127681D01*
X0Y1128026D01*
D02*
G37*
G36*
X-351242Y1080048D02*
X-359548D01*
X-359498Y1079666D01*
X-358385Y1076980D01*
X-356616Y1074674D01*
X-354310Y1072905D01*
X-351624Y1071792D01*
X-351242Y1071742D01*
Y1080048D01*
D02*
G37*
G36*
X-337936D02*
X-346242D01*
Y1071742D01*
X-345860Y1071792D01*
X-343174Y1072905D01*
X-340868Y1074674D01*
X-339099Y1076980D01*
X-337986Y1079666D01*
X-337936Y1080048D01*
D02*
G37*
G36*
X-170593Y1047563D02*
X-173475Y1047184D01*
X-176161Y1046071D01*
X-178467Y1044302D01*
X-180237Y1041996D01*
X-181349Y1039310D01*
X-181729Y1036428D01*
X-181349Y1033546D01*
X-180237Y1030860D01*
X-178467Y1028554D01*
X-176161Y1026785D01*
X-173475Y1025672D01*
X-170593Y1025293D01*
X-167712Y1025672D01*
X-165026Y1026785D01*
X-162720Y1028554D01*
X-160950Y1030860D01*
X-159838Y1033546D01*
X-159458Y1036428D01*
X-159838Y1039310D01*
X-160950Y1041996D01*
X-162720Y1044302D01*
X-165026Y1046071D01*
X-167712Y1047184D01*
X-170593Y1047563D01*
D02*
G37*
G36*
X-231470D02*
X-234352Y1047184D01*
X-237037Y1046071D01*
X-239344Y1044302D01*
X-241113Y1041996D01*
X-242226Y1039310D01*
X-242605Y1036428D01*
X-242226Y1033546D01*
X-241113Y1030860D01*
X-239344Y1028554D01*
X-237037Y1026785D01*
X-234352Y1025672D01*
X-231470Y1025293D01*
X-228588Y1025672D01*
X-225902Y1026785D01*
X-223596Y1028554D01*
X-221826Y1030860D01*
X-220714Y1033546D01*
X-220334Y1036428D01*
X-220714Y1039310D01*
X-221826Y1041996D01*
X-223596Y1044302D01*
X-225902Y1046071D01*
X-228588Y1047184D01*
X-231470Y1047563D01*
D02*
G37*
G36*
X-291338D02*
X-294220Y1047184D01*
X-296906Y1046071D01*
X-299212Y1044302D01*
X-300981Y1041996D01*
X-302094Y1039310D01*
X-302473Y1036428D01*
X-302094Y1033546D01*
X-300981Y1030860D01*
X-299212Y1028554D01*
X-296906Y1026785D01*
X-294220Y1025672D01*
X-291338Y1025293D01*
X-288456Y1025672D01*
X-285770Y1026785D01*
X-283464Y1028554D01*
X-281695Y1030860D01*
X-280582Y1033546D01*
X-280203Y1036428D01*
X-280582Y1039310D01*
X-281695Y1041996D01*
X-283464Y1044302D01*
X-285770Y1046071D01*
X-288456Y1047184D01*
X-291338Y1047563D01*
D02*
G37*
G36*
X173442Y890446D02*
Y882140D01*
X181748D01*
X181698Y882522D01*
X180585Y885208D01*
X178816Y887514D01*
X176510Y889283D01*
X173824Y890396D01*
X173442Y890446D01*
D02*
G37*
G36*
X168442D02*
X168060Y890396D01*
X165374Y889283D01*
X163068Y887514D01*
X161299Y885208D01*
X160186Y882522D01*
X160136Y882140D01*
X168442D01*
Y890446D01*
D02*
G37*
G36*
X181748Y877140D02*
X173442D01*
Y868834D01*
X173824Y868884D01*
X176510Y869997D01*
X178816Y871766D01*
X180585Y874072D01*
X181698Y876758D01*
X181748Y877140D01*
D02*
G37*
G36*
X168442D02*
X160136D01*
X160186Y876758D01*
X161299Y874072D01*
X163068Y871766D01*
X165374Y869997D01*
X168060Y868884D01*
X168442Y868834D01*
Y877140D01*
D02*
G37*
G36*
X1270Y1258899D02*
X-91440D01*
X-92927Y1258603D01*
X-94187Y1257761D01*
X-104601Y1247347D01*
X-105443Y1246087D01*
X-105739Y1244600D01*
Y1184741D01*
X-113326Y1177154D01*
X-129912D01*
Y1155074D01*
X-107832D01*
Y1171660D01*
X-99107Y1180385D01*
X-98265Y1181645D01*
X-97969Y1183132D01*
Y1184499D01*
X-96718Y1184648D01*
X-95858Y1181813D01*
X-94462Y1179200D01*
X-92582Y1176910D01*
X-90292Y1175030D01*
X-87679Y1173634D01*
X-84844Y1172774D01*
X-84396Y1172729D01*
Y1187596D01*
Y1202462D01*
X-84844Y1202418D01*
X-87679Y1201558D01*
X-90292Y1200162D01*
X-92582Y1198282D01*
X-94462Y1195992D01*
X-95858Y1193379D01*
X-96718Y1190544D01*
X-97969Y1190693D01*
Y1234499D01*
X-96718Y1234648D01*
X-95858Y1231813D01*
X-94462Y1229200D01*
X-92582Y1226910D01*
X-90292Y1225030D01*
X-87679Y1223634D01*
X-84844Y1222774D01*
X-84396Y1222729D01*
Y1237596D01*
X-81896D01*
Y1240096D01*
X-67030D01*
X-67074Y1240544D01*
X-67934Y1243379D01*
X-69330Y1245992D01*
X-71210Y1248282D01*
X-73131Y1249859D01*
X-72677Y1251129D01*
X-41115D01*
X-40661Y1249859D01*
X-42582Y1248282D01*
X-44462Y1245992D01*
X-45858Y1243379D01*
X-46718Y1240544D01*
X-46762Y1240096D01*
X-31896D01*
X-17030D01*
X-17074Y1240544D01*
X-17934Y1243379D01*
X-19330Y1245992D01*
X-21210Y1248282D01*
X-23131Y1249859D01*
X-22677Y1251129D01*
X-339D01*
X192457Y1058333D01*
Y889980D01*
X190774Y889283D01*
X188468Y887514D01*
X186699Y885208D01*
X185586Y882522D01*
X185207Y879640D01*
X185586Y876758D01*
X186699Y874072D01*
X188468Y871766D01*
X190774Y869997D01*
X193460Y868884D01*
X195251Y868648D01*
Y828299D01*
X193997Y828261D01*
X193504Y830739D01*
X192758Y831856D01*
X192863Y832650D01*
X192557Y834971D01*
X191661Y837133D01*
X190236Y838990D01*
X188379Y840415D01*
X186217Y841311D01*
X183896Y841617D01*
X182849Y841479D01*
X176215Y848112D01*
X174115Y849516D01*
X171637Y850008D01*
X153670D01*
X151192Y849516D01*
X149092Y848112D01*
X136858Y835878D01*
X135454Y833777D01*
X135203Y832513D01*
X133933Y832638D01*
Y862537D01*
X139996Y868600D01*
X156582D01*
Y890680D01*
X134502D01*
Y874094D01*
X127301Y866893D01*
X126459Y865633D01*
X126163Y864146D01*
Y819696D01*
X120892D01*
Y810806D01*
Y801916D01*
X123481D01*
X124134Y800827D01*
X122834Y798395D01*
X121555Y796836D01*
X109502D01*
Y779056D01*
X127282D01*
Y784061D01*
X132546D01*
Y779056D01*
X144808D01*
X145931Y777593D01*
X146734Y775655D01*
X147001Y773625D01*
X146991Y773575D01*
X147026Y773402D01*
X146629Y769368D01*
X145401Y765322D01*
X143408Y761593D01*
X140836Y758459D01*
X140690Y758361D01*
X120189Y737861D01*
X120123Y737762D01*
X117470Y735585D01*
X114340Y733912D01*
X110944Y732882D01*
X107530Y732545D01*
X107413Y732569D01*
X70465D01*
Y732600D01*
X65097Y732177D01*
X59861Y730920D01*
X54886Y728860D01*
X54879Y728855D01*
X54087Y729860D01*
X79246Y755018D01*
X79256Y755009D01*
X82172Y758424D01*
X84519Y762253D01*
X86237Y766402D01*
X87286Y770769D01*
X87604Y774806D01*
X91854Y779056D01*
X104140D01*
Y796836D01*
X87625D01*
Y801916D01*
X92750D01*
Y810806D01*
Y819696D01*
X87625D01*
Y841569D01*
X87590Y841742D01*
X87987Y845776D01*
X89215Y849822D01*
X91208Y853551D01*
X93779Y856684D01*
X93926Y856783D01*
X97997Y860853D01*
X98018Y860832D01*
X101482Y864888D01*
X104270Y869436D01*
X106311Y874364D01*
X106958Y877059D01*
X108289Y877164D01*
X108821Y875881D01*
X110246Y874024D01*
X112103Y872599D01*
X114265Y871703D01*
X116586Y871397D01*
X118907Y871703D01*
X121069Y872599D01*
X122926Y874024D01*
X124351Y875881D01*
X125247Y878043D01*
X125553Y880364D01*
X125247Y882685D01*
X124351Y884847D01*
X122926Y886704D01*
X121069Y888129D01*
X120471Y888377D01*
Y1080262D01*
X120175Y1081749D01*
X119333Y1083009D01*
X-13001Y1215343D01*
X-14261Y1216185D01*
X-15748Y1216481D01*
X-42358D01*
X-42934Y1218379D01*
X-44330Y1220992D01*
X-46210Y1223282D01*
X-48500Y1225162D01*
X-51113Y1226558D01*
X-53948Y1227418D01*
X-56896Y1227709D01*
X-59844Y1227418D01*
X-62679Y1226558D01*
X-65292Y1225162D01*
X-67582Y1223282D01*
X-69462Y1220992D01*
X-70858Y1218379D01*
X-71718Y1215544D01*
X-72009Y1212596D01*
X-71718Y1209648D01*
X-70858Y1206813D01*
X-69462Y1204200D01*
X-67582Y1201910D01*
X-65292Y1200030D01*
X-62679Y1198634D01*
X-59844Y1197774D01*
X-56896Y1197483D01*
X-53948Y1197774D01*
X-51113Y1198634D01*
X-48500Y1200030D01*
X-46210Y1201910D01*
X-44330Y1204200D01*
X-42934Y1206813D01*
X-42358Y1208711D01*
X-17357D01*
X112701Y1078653D01*
Y888377D01*
X112103Y888129D01*
X110246Y886704D01*
X109215Y885361D01*
X107945Y885792D01*
Y936391D01*
X107976D01*
X107553Y941759D01*
X106296Y946995D01*
X104236Y951970D01*
X101422Y956561D01*
X97925Y960656D01*
X97903Y960634D01*
X48774Y1009763D01*
X48796Y1009785D01*
X44701Y1013282D01*
X40110Y1016096D01*
X35135Y1018156D01*
X29899Y1019413D01*
X24531Y1019836D01*
Y1019805D01*
X-310214D01*
Y1019836D01*
X-315582Y1019413D01*
X-320818Y1018156D01*
X-325793Y1016096D01*
X-330384Y1013282D01*
X-334479Y1009785D01*
X-334457Y1009763D01*
X-347733Y996487D01*
X-349416Y997184D01*
X-352298Y997563D01*
X-355180Y997184D01*
X-357866Y996071D01*
X-360172Y994302D01*
X-361941Y991996D01*
X-363054Y989310D01*
X-363433Y986428D01*
X-363054Y983546D01*
X-361941Y980860D01*
X-360172Y978554D01*
X-357866Y976785D01*
X-355180Y975672D01*
X-352298Y975293D01*
X-349416Y975672D01*
X-346730Y976785D01*
X-344424Y978554D01*
X-342655Y980860D01*
X-341542Y983546D01*
X-341163Y986428D01*
X-341542Y989310D01*
X-342239Y990993D01*
X-328963Y1004269D01*
X-328903Y1004359D01*
X-325817Y1006995D01*
X-322265Y1009172D01*
X-318417Y1010766D01*
X-314366Y1011738D01*
X-310320Y1012057D01*
X-310214Y1012035D01*
X-271391D01*
X-271033Y1010765D01*
X-273547Y1009224D01*
X-277043Y1006238D01*
X-277032Y1006227D01*
X-286773Y996487D01*
X-288456Y997184D01*
X-291338Y997563D01*
X-294220Y997184D01*
X-296906Y996071D01*
X-299212Y994302D01*
X-300981Y991996D01*
X-302094Y989310D01*
X-302473Y986428D01*
X-302094Y983546D01*
X-300981Y980860D01*
X-299212Y978554D01*
X-296906Y976785D01*
X-294220Y975672D01*
X-291338Y975293D01*
X-288456Y975672D01*
X-285770Y976785D01*
X-283464Y978554D01*
X-281695Y980860D01*
X-280582Y983546D01*
X-280203Y986428D01*
X-280582Y989310D01*
X-281279Y990993D01*
X-271539Y1000734D01*
X-271441Y1000881D01*
X-268307Y1003452D01*
X-264578Y1005445D01*
X-260532Y1006673D01*
X-256498Y1007070D01*
X-256325Y1007035D01*
X-217019D01*
X-216674Y1005813D01*
X-217749Y1005154D01*
X-221245Y1002169D01*
X-221234Y1002157D01*
X-226905Y996487D01*
X-228588Y997184D01*
X-231470Y997563D01*
X-234352Y997184D01*
X-237037Y996071D01*
X-239344Y994302D01*
X-241113Y991996D01*
X-242226Y989310D01*
X-242605Y986428D01*
X-242226Y983546D01*
X-241113Y980860D01*
X-239344Y978554D01*
X-237037Y976785D01*
X-234352Y975672D01*
X-231470Y975293D01*
X-228588Y975672D01*
X-225902Y976785D01*
X-223596Y978554D01*
X-221826Y980860D01*
X-220714Y983546D01*
X-220334Y986428D01*
X-220714Y989310D01*
X-221411Y990993D01*
X-215740Y996664D01*
X-215642Y996811D01*
X-212509Y999382D01*
X-208780Y1001375D01*
X-204734Y1002602D01*
X-200700Y1003000D01*
X-200527Y1002965D01*
X-177474D01*
X-177472Y1002964D01*
Y1002964D01*
X-177472Y1002964D01*
X-174412Y1002662D01*
X-171067Y1001648D01*
X-167985Y1000000D01*
X-165371Y997855D01*
X-165307Y997759D01*
X-164971Y997423D01*
X-165690Y996347D01*
X-167712Y997184D01*
X-170593Y997563D01*
X-173475Y997184D01*
X-176161Y996071D01*
X-178467Y994302D01*
X-180237Y991996D01*
X-181349Y989310D01*
X-181729Y986428D01*
X-181349Y983546D01*
X-180237Y980860D01*
X-178467Y978554D01*
X-176161Y976785D01*
X-173475Y975672D01*
X-170593Y975293D01*
X-167712Y975672D01*
X-166028Y976369D01*
X-163678Y973505D01*
X-161685Y969777D01*
X-160457Y965731D01*
X-160060Y961697D01*
X-160095Y961523D01*
Y819696D01*
X-165281D01*
Y810806D01*
Y801916D01*
X-163055D01*
X-162293Y800646D01*
X-163678Y798056D01*
X-164679Y796836D01*
X-176671D01*
Y780946D01*
X-177844Y780460D01*
X-181935Y784550D01*
Y796836D01*
X-199715D01*
Y779056D01*
X-187428D01*
X-176249Y767877D01*
X-176249Y767877D01*
X-176277Y767849D01*
X-173524Y765737D01*
X-170318Y764409D01*
X-166878Y763956D01*
Y763956D01*
X-165630Y763902D01*
X-163563Y763698D01*
X-160375Y762731D01*
X-157437Y761161D01*
X-154938Y759111D01*
X-154882Y759027D01*
X-114636Y718780D01*
X-114647Y718769D01*
X-111151Y715783D01*
X-107230Y713381D01*
X-102983Y711621D01*
X-98512Y710548D01*
X-93928Y710187D01*
Y710203D01*
X-52832D01*
X-52776Y710214D01*
X-50693Y709939D01*
X-48700Y709114D01*
X-47958Y708544D01*
X-47001Y707787D01*
X-46123Y706909D01*
X-39257Y700043D01*
X-39743Y698870D01*
X-46540D01*
Y687597D01*
X-46541Y687594D01*
Y677531D01*
X-80772D01*
Y682536D01*
X-98552D01*
Y664756D01*
X-80772D01*
Y669761D01*
X-44450D01*
X-44448Y669762D01*
X-43822Y668591D01*
X-57743Y654671D01*
X-80772D01*
Y659676D01*
X-98552D01*
Y641896D01*
X-80772D01*
Y646901D01*
X-56134D01*
X-54647Y647197D01*
X-53387Y648039D01*
X-34753Y666673D01*
X-33911Y667933D01*
X-33615Y669420D01*
Y676790D01*
X-21540D01*
Y676790D01*
X-18460D01*
Y687830D01*
X-16541D01*
Y676790D01*
X-13460D01*
Y676790D01*
X3615D01*
Y676522D01*
X3911Y675035D01*
X4753Y673775D01*
X9915Y668613D01*
X11175Y667771D01*
X12662Y667475D01*
X29911D01*
X30007Y667331D01*
X31856Y666096D01*
X34036Y665663D01*
X36216Y666096D01*
X37381Y666874D01*
X37433Y666878D01*
X38754Y666264D01*
X38911Y665473D01*
X39753Y664213D01*
X55927Y648039D01*
X57187Y647197D01*
X58674Y646901D01*
X80772D01*
Y641896D01*
X85777D01*
Y639102D01*
X81026D01*
Y621322D01*
X98806D01*
Y639102D01*
X93547D01*
Y641896D01*
X98552D01*
Y659676D01*
X80772D01*
Y654671D01*
X60283D01*
X46385Y668569D01*
Y676790D01*
X46540D01*
Y698870D01*
X42652D01*
X41973Y700140D01*
X42120Y700360D01*
X42117Y700363D01*
X55251Y713498D01*
X55349Y713644D01*
X58483Y716216D01*
X62212Y718209D01*
X66258Y719436D01*
X70292Y719834D01*
X70465Y719799D01*
X107413D01*
Y719779D01*
X112240Y720159D01*
X116948Y721289D01*
X121422Y723142D01*
X125551Y725672D01*
X129233Y728817D01*
X129218Y728832D01*
X149719Y749332D01*
X149741Y749310D01*
X153238Y753405D01*
X156052Y757996D01*
X158112Y762971D01*
X159369Y768207D01*
X159792Y773575D01*
X159792D01*
Y774845D01*
X159923Y775845D01*
X161037Y778534D01*
X161438Y779056D01*
X173369D01*
Y784061D01*
X178633D01*
Y779056D01*
X196413D01*
Y791342D01*
X200503Y795432D01*
X201676Y794946D01*
Y790446D01*
X208066D01*
Y796836D01*
X203424D01*
X202694Y797877D01*
X202731Y798106D01*
X203021Y799559D01*
Y801916D01*
X219456D01*
Y810540D01*
X221630Y812714D01*
X230883D01*
X232283Y811314D01*
X241173D01*
X244795Y814936D01*
X254000D01*
Y813092D01*
X256543D01*
Y811314D01*
X254254D01*
Y793534D01*
X256543D01*
Y791756D01*
X254254D01*
Y773976D01*
X270436D01*
Y731528D01*
X219483Y680575D01*
X216060D01*
Y676778D01*
X215867Y676543D01*
X214452Y673895D01*
X213580Y671023D01*
X213286Y668035D01*
X213580Y665048D01*
X214452Y662175D01*
X215867Y659527D01*
X216060Y659292D01*
Y655495D01*
X219857D01*
X220092Y655302D01*
X222740Y653887D01*
X225612Y653016D01*
X228600Y652721D01*
X231588Y653016D01*
X234460Y653887D01*
X237108Y655302D01*
X237343Y655495D01*
X241140D01*
Y658918D01*
X296578Y714357D01*
X296579Y714357D01*
X298483Y716677D01*
X299898Y719325D01*
X300770Y722198D01*
X301064Y725185D01*
X301064Y725185D01*
Y782866D01*
Y802424D01*
Y821982D01*
X300770Y824970D01*
X299898Y827842D01*
X298483Y830490D01*
X296579Y832811D01*
X294258Y834715D01*
X291610Y836130D01*
X288738Y837001D01*
X285750Y837296D01*
X282762Y837001D01*
X279890Y836130D01*
X277242Y834715D01*
X274921Y832811D01*
X273050Y830530D01*
X272940Y830523D01*
X271780Y830872D01*
Y830872D01*
X254000D01*
Y827885D01*
X243652D01*
X241173Y830364D01*
X232283D01*
X227838Y825919D01*
Y825662D01*
X226346D01*
X225766Y826932D01*
X226713Y828167D01*
X227609Y830329D01*
X227915Y832650D01*
X227609Y834971D01*
X226713Y837133D01*
X225288Y838990D01*
X223431Y840415D01*
X221269Y841311D01*
X218948Y841617D01*
X216627Y841311D01*
X214465Y840415D01*
X212608Y838990D01*
X211183Y837133D01*
X210287Y834971D01*
X209981Y832650D01*
X210287Y830329D01*
X211183Y828167D01*
X212474Y826484D01*
Y821870D01*
X210300Y819696D01*
X203021D01*
Y870849D01*
X204216Y871766D01*
X205985Y874072D01*
X207098Y876758D01*
X207477Y879640D01*
X207098Y882522D01*
X205985Y885208D01*
X204216Y887514D01*
X201910Y889283D01*
X200227Y889980D01*
Y1059942D01*
X199931Y1061429D01*
X199089Y1062689D01*
X4017Y1257761D01*
X2757Y1258603D01*
X1270Y1258899D01*
D02*
G37*
G36*
X104140Y819696D02*
X97750D01*
Y813306D01*
X104140D01*
Y819696D01*
D02*
G37*
G36*
X-181935D02*
X-188325D01*
Y813306D01*
X-181935D01*
Y819696D01*
D02*
G37*
G36*
X-193325D02*
X-199715D01*
Y813306D01*
X-193325D01*
Y819696D01*
D02*
G37*
G36*
X-170281D02*
X-176671D01*
Y813306D01*
X-170281D01*
Y819696D01*
D02*
G37*
G36*
X115893D02*
X109502D01*
Y813306D01*
X115893D01*
Y819696D01*
D02*
G37*
G36*
Y808306D02*
X109502D01*
Y801916D01*
X115893D01*
Y808306D01*
D02*
G37*
G36*
X104140Y808306D02*
X97750D01*
Y801916D01*
X104140D01*
Y808306D01*
D02*
G37*
G36*
X-170281Y808306D02*
X-176671D01*
Y801916D01*
X-170281D01*
Y808306D01*
D02*
G37*
G36*
X-181935Y808306D02*
X-188325D01*
Y801916D01*
X-181935D01*
Y808306D01*
D02*
G37*
G36*
X-193325D02*
X-199715D01*
Y801916D01*
X-193325D01*
Y808306D01*
D02*
G37*
G36*
X219456Y796836D02*
X213066D01*
Y790446D01*
X219456D01*
Y796836D01*
D02*
G37*
G36*
X245618Y796074D02*
X239228D01*
Y789049D01*
X245618D01*
Y796074D01*
D02*
G37*
G36*
X234228D02*
X227838D01*
Y789049D01*
X234228D01*
Y796074D01*
D02*
G37*
G36*
X219456Y785446D02*
X213066D01*
Y779056D01*
X219456D01*
Y785446D01*
D02*
G37*
G36*
X208066D02*
X201676D01*
Y779056D01*
X208066D01*
Y785446D01*
D02*
G37*
G36*
X245618Y784049D02*
X239228D01*
Y777024D01*
X245618D01*
Y784049D01*
D02*
G37*
G36*
X234228D02*
X227838D01*
Y777024D01*
X234228D01*
Y784049D01*
D02*
G37*
G36*
X231100Y730354D02*
Y720535D01*
X240919D01*
X240817Y721309D01*
X239554Y724359D01*
X237544Y726979D01*
X234924Y728989D01*
X231874Y730252D01*
X231100Y730354D01*
D02*
G37*
G36*
X226100D02*
X225326Y730252D01*
X222276Y728989D01*
X219656Y726979D01*
X217646Y724359D01*
X216383Y721309D01*
X216281Y720535D01*
X226100D01*
Y730354D01*
D02*
G37*
G36*
X-226100D02*
Y720535D01*
X-216281D01*
X-216383Y721309D01*
X-217646Y724359D01*
X-219656Y726979D01*
X-222276Y728989D01*
X-225326Y730252D01*
X-226100Y730354D01*
D02*
G37*
G36*
X-231100Y730354D02*
X-231874Y730252D01*
X-234924Y728989D01*
X-237544Y726979D01*
X-239554Y724359D01*
X-240817Y721309D01*
X-240919Y720535D01*
X-231100D01*
Y730354D01*
D02*
G37*
G36*
Y715535D02*
X-240919D01*
X-240817Y714762D01*
X-239554Y711711D01*
X-237544Y709091D01*
X-234924Y707081D01*
X-231874Y705818D01*
X-231100Y705716D01*
Y715535D01*
D02*
G37*
G36*
X240919Y715535D02*
X231100D01*
Y705716D01*
X231874Y705818D01*
X234924Y707081D01*
X237544Y709091D01*
X239554Y711711D01*
X240817Y714762D01*
X240919Y715535D01*
D02*
G37*
G36*
X226100D02*
X216281D01*
X216383Y714762D01*
X217646Y711711D01*
X219656Y709091D01*
X222276Y707081D01*
X225326Y705818D01*
X226100Y705716D01*
Y715535D01*
D02*
G37*
G36*
X-216281Y715535D02*
X-226100D01*
Y705716D01*
X-225326Y705818D01*
X-222276Y707081D01*
X-219656Y709091D01*
X-217646Y711711D01*
X-216383Y714762D01*
X-216281Y715535D01*
D02*
G37*
G36*
X98552Y682536D02*
X80772D01*
Y675245D01*
X60259D01*
X60163Y675389D01*
X58314Y676624D01*
X56134Y677057D01*
X53954Y676624D01*
X52105Y675389D01*
X50870Y673540D01*
X50437Y671360D01*
X50870Y669180D01*
X52105Y667331D01*
X53954Y666096D01*
X56134Y665663D01*
X58314Y666096D01*
X60163Y667331D01*
X60259Y667475D01*
X80772D01*
Y664756D01*
X98552D01*
Y682536D01*
D02*
G37*
G36*
X-216060Y680575D02*
X-241140D01*
Y655495D01*
X-216060D01*
Y680575D01*
D02*
G37*
G36*
X98806Y616242D02*
X81026D01*
Y611745D01*
X44958D01*
X43471Y611449D01*
X42211Y610607D01*
X39753Y608149D01*
X38911Y606889D01*
X38615Y605402D01*
Y603370D01*
X28459D01*
Y601581D01*
X28293Y600748D01*
Y592330D01*
X25000D01*
Y592330D01*
X21602D01*
Y600748D01*
X21540Y601059D01*
Y603370D01*
X21540D01*
Y603370D01*
X13460D01*
Y603370D01*
X-13460D01*
Y603370D01*
X-21540D01*
Y603370D01*
X-21541D01*
Y601581D01*
X-21706Y600748D01*
Y592330D01*
X-25000D01*
Y592330D01*
X-28398D01*
Y600748D01*
X-28459Y601059D01*
Y603370D01*
X-41541D01*
Y601581D01*
X-41707Y600748D01*
Y592330D01*
X-42500D01*
Y589830D01*
X-46540D01*
Y581290D01*
X-41706D01*
Y579807D01*
X-134069Y530131D01*
X-134363Y529888D01*
X-134680Y529674D01*
X-134750Y529569D01*
X-134848Y529488D01*
X-135027Y529151D01*
X-135238Y528832D01*
X-135263Y528708D01*
X-135322Y528595D01*
X-135359Y528215D01*
X-135432Y527840D01*
X-135197Y463879D01*
X-210763Y388313D01*
X-211049Y388257D01*
X-211889Y387695D01*
X-214790Y384795D01*
X-216060Y385321D01*
Y408795D01*
X-241140D01*
Y383715D01*
X-217665D01*
X-217139Y382445D01*
X-232467Y367118D01*
X-327660Y367118D01*
X-328651Y366921D01*
X-329491Y366359D01*
X-365813Y330037D01*
X-366375Y329197D01*
X-366572Y328206D01*
X-366572Y287820D01*
X-366375Y286829D01*
X-365813Y285989D01*
X-364973Y285427D01*
X-363982Y285230D01*
X-314452D01*
X-313461Y285427D01*
X-312621Y285989D01*
X-270453Y328156D01*
X-210312D01*
X-209321Y328353D01*
X-208481Y328915D01*
X-188167Y349229D01*
X-186994Y348742D01*
X-186994Y347002D01*
Y286550D01*
X-186797Y285559D01*
X-186235Y284719D01*
X-185395Y284157D01*
X-184404Y283960D01*
X-135636D01*
X-123952Y283960D01*
X-122961Y284157D01*
X-122121Y284719D01*
X-63701Y343139D01*
X-63139Y343979D01*
X-62942Y344970D01*
X-62942Y404442D01*
X-54824D01*
Y417982D01*
Y431522D01*
X-62942D01*
Y440417D01*
X-62681Y440678D01*
X-43688Y440678D01*
X-42697Y440876D01*
X-41857Y441437D01*
X-41295Y442277D01*
X-41098Y443268D01*
Y450442D01*
X-41034D01*
Y463849D01*
X-27883Y477000D01*
X-1015Y477000D01*
X-524Y477098D01*
X-28Y477196D01*
X-26Y477197D01*
X-24Y477197D01*
X0Y477214D01*
X24Y477197D01*
X26Y477197D01*
X28Y477196D01*
X524Y477098D01*
X1015Y477000D01*
X27883Y477000D01*
X41034Y463849D01*
Y450442D01*
X41098D01*
Y443268D01*
X41295Y442277D01*
X41857Y441437D01*
X42697Y440876D01*
X43688Y440678D01*
X62681Y440678D01*
X62942Y440417D01*
Y431522D01*
X54824D01*
Y417982D01*
Y404442D01*
X62942D01*
Y397859D01*
X9853Y344769D01*
X9291Y343929D01*
X9094Y342938D01*
X9094Y291515D01*
X9291Y290524D01*
X9853Y289683D01*
X10693Y289122D01*
X11684Y288925D01*
X85344D01*
X86335Y289122D01*
X87175Y289683D01*
X138599Y341107D01*
X139160Y341947D01*
X139357Y342938D01*
X139357Y396506D01*
X140531Y396991D01*
X177496Y359902D01*
Y297980D01*
X177693Y296989D01*
X178255Y296149D01*
X181811Y292593D01*
X182651Y292031D01*
X183642Y291834D01*
X253238D01*
X254229Y292031D01*
X255069Y292593D01*
X255631Y293433D01*
X255828Y294424D01*
Y342176D01*
X255631Y343167D01*
X255069Y344007D01*
X216631Y382445D01*
X217157Y383715D01*
X241140D01*
Y408795D01*
X216060D01*
Y384813D01*
X214790Y384286D01*
X135197Y463879D01*
X135432Y527840D01*
X135359Y528215D01*
X135322Y528595D01*
X135263Y528708D01*
X135238Y528832D01*
X135027Y529151D01*
X134848Y529488D01*
X134750Y529569D01*
X134680Y529674D01*
X134363Y529888D01*
X134069Y530131D01*
X41602Y579863D01*
Y581290D01*
X46540D01*
Y603370D01*
X47559Y603975D01*
X81026D01*
Y598462D01*
X98806D01*
Y616242D01*
D02*
G37*
G36*
X-45000Y603370D02*
X-46540D01*
Y594830D01*
X-45000D01*
Y603370D01*
D02*
G37*
G36*
X231100Y594464D02*
Y584645D01*
X240919D01*
X240817Y585419D01*
X239554Y588469D01*
X237544Y591089D01*
X234924Y593099D01*
X231874Y594362D01*
X231100Y594464D01*
D02*
G37*
G36*
X226100D02*
X225326Y594362D01*
X222276Y593099D01*
X219656Y591089D01*
X217646Y588469D01*
X216383Y585419D01*
X216281Y584645D01*
X226100D01*
Y594464D01*
D02*
G37*
G36*
X-226100D02*
Y584645D01*
X-216281D01*
X-216383Y585419D01*
X-217646Y588469D01*
X-219656Y591089D01*
X-222276Y593099D01*
X-225326Y594362D01*
X-226100Y594464D01*
D02*
G37*
G36*
X-231100Y594464D02*
X-231874Y594362D01*
X-234924Y593099D01*
X-237544Y591089D01*
X-239554Y588469D01*
X-240817Y585419D01*
X-240919Y584645D01*
X-231100D01*
Y594464D01*
D02*
G37*
G36*
Y579645D02*
X-240919D01*
X-240817Y578871D01*
X-239554Y575821D01*
X-237544Y573201D01*
X-234924Y571191D01*
X-231874Y569928D01*
X-231100Y569826D01*
Y579645D01*
D02*
G37*
G36*
X240919Y579645D02*
X231100D01*
Y569826D01*
X231874Y569928D01*
X234924Y571191D01*
X237544Y573201D01*
X239554Y575821D01*
X240817Y578871D01*
X240919Y579645D01*
D02*
G37*
G36*
X226100D02*
X216281D01*
X216383Y578871D01*
X217646Y575821D01*
X219656Y573201D01*
X222276Y571191D01*
X225326Y569928D01*
X226100Y569826D01*
Y579645D01*
D02*
G37*
G36*
X-216281Y579645D02*
X-226100D01*
Y569826D01*
X-225326Y569928D01*
X-222276Y571191D01*
X-219656Y573201D01*
X-217646Y575821D01*
X-216383Y578871D01*
X-216281Y579645D01*
D02*
G37*
G36*
X241140Y544685D02*
X216060D01*
Y519605D01*
X241140D01*
Y544685D01*
D02*
G37*
G36*
X-216060D02*
X-241140D01*
Y519605D01*
X-216060D01*
Y544685D01*
D02*
G37*
G36*
X231100Y458574D02*
Y448755D01*
X240919D01*
X240817Y449529D01*
X239554Y452579D01*
X237544Y455199D01*
X234924Y457209D01*
X231874Y458472D01*
X231100Y458574D01*
D02*
G37*
G36*
X226100D02*
X225326Y458472D01*
X222276Y457209D01*
X219656Y455199D01*
X217646Y452579D01*
X216383Y449529D01*
X216281Y448755D01*
X226100D01*
Y458574D01*
D02*
G37*
G36*
X-226100D02*
Y448755D01*
X-216281D01*
X-216383Y449529D01*
X-217646Y452579D01*
X-219656Y455199D01*
X-222276Y457209D01*
X-225326Y458472D01*
X-226100Y458574D01*
D02*
G37*
G36*
X-231100Y458574D02*
X-231874Y458472D01*
X-234924Y457209D01*
X-237544Y455199D01*
X-239554Y452579D01*
X-240817Y449529D01*
X-240919Y448755D01*
X-231100D01*
Y458574D01*
D02*
G37*
G36*
Y443755D02*
X-240919D01*
X-240817Y442981D01*
X-239554Y439931D01*
X-237544Y437311D01*
X-234924Y435301D01*
X-231874Y434038D01*
X-231100Y433936D01*
Y443755D01*
D02*
G37*
G36*
X240919Y443755D02*
X231100D01*
Y433936D01*
X231874Y434038D01*
X234924Y435301D01*
X237544Y437311D01*
X239554Y439931D01*
X240817Y442981D01*
X240919Y443755D01*
D02*
G37*
G36*
X226100D02*
X216281D01*
X216383Y442981D01*
X217646Y439931D01*
X219656Y437311D01*
X222276Y435301D01*
X225326Y434038D01*
X226100Y433936D01*
Y443755D01*
D02*
G37*
G36*
X-216281Y443755D02*
X-226100D01*
Y433936D01*
X-225326Y434038D01*
X-222276Y435301D01*
X-219656Y437311D01*
X-217646Y439931D01*
X-216383Y442981D01*
X-216281Y443755D01*
D02*
G37*
G36*
X29972Y469480D02*
X7366D01*
X6375Y469283D01*
X5535Y468721D01*
X4973Y467881D01*
X4776Y466890D01*
Y432854D01*
X4973Y431863D01*
X5535Y431023D01*
X6375Y430461D01*
X7366Y430264D01*
X29972D01*
X30963Y430461D01*
X31803Y431023D01*
X32365Y431863D01*
X32562Y432854D01*
Y466890D01*
X32365Y467881D01*
X31803Y468721D01*
X30963Y469283D01*
X29972Y469480D01*
D02*
G37*
G36*
X-7366D02*
X-29972D01*
X-30963Y469283D01*
X-31803Y468721D01*
X-32365Y467881D01*
X-32562Y466890D01*
Y432854D01*
X-32365Y431863D01*
X-31803Y431023D01*
X-30963Y430461D01*
X-29972Y430264D01*
X-7366D01*
X-6375Y430461D01*
X-5535Y431023D01*
X-4973Y431863D01*
X-4776Y432854D01*
Y466890D01*
X-4973Y467881D01*
X-5535Y468721D01*
X-6375Y469283D01*
X-7366Y469480D01*
D02*
G37*
G36*
X-41034Y431522D02*
X-49824D01*
Y420482D01*
X-41034D01*
Y431522D01*
D02*
G37*
G36*
X49824D02*
X41034D01*
Y420482D01*
X49824D01*
Y431522D01*
D02*
G37*
G36*
Y415482D02*
X41034D01*
Y404442D01*
X49824D01*
Y415482D01*
D02*
G37*
G36*
X-41034D02*
X-49824D01*
Y404442D01*
X-41034D01*
Y415482D01*
D02*
G37*
G36*
X336820Y323657D02*
X333285Y323191D01*
X329992Y321827D01*
X327163Y319657D01*
X324993Y316828D01*
X323629Y313535D01*
X323163Y310000D01*
X323629Y306465D01*
X324993Y303172D01*
X327163Y300343D01*
X329992Y298173D01*
X333285Y296808D01*
X336820Y296343D01*
X340355Y296808D01*
X343648Y298173D01*
X346477Y300343D01*
X348647Y303172D01*
X350011Y306465D01*
X350477Y310000D01*
X350011Y313535D01*
X348647Y316828D01*
X346477Y319657D01*
X343648Y321827D01*
X340355Y323191D01*
X336820Y323657D01*
D02*
G37*
G36*
X153940D02*
X150405Y323191D01*
X147112Y321827D01*
X144283Y319657D01*
X142113Y316828D01*
X140749Y313535D01*
X140283Y310000D01*
X140749Y306465D01*
X142113Y303172D01*
X144283Y300343D01*
X147112Y298173D01*
X150405Y296808D01*
X153940Y296343D01*
X157475Y296808D01*
X160768Y298173D01*
X163597Y300343D01*
X165767Y303172D01*
X167132Y306465D01*
X167597Y310000D01*
X167132Y313535D01*
X165767Y316828D01*
X163597Y319657D01*
X160768Y321827D01*
X157475Y323191D01*
X153940Y323657D01*
D02*
G37*
G36*
X-28940D02*
X-32475Y323191D01*
X-35768Y321827D01*
X-38597Y319657D01*
X-40767Y316828D01*
X-42132Y313535D01*
X-42597Y310000D01*
X-42132Y306465D01*
X-40767Y303172D01*
X-38597Y300343D01*
X-35768Y298173D01*
X-32475Y296808D01*
X-28940Y296343D01*
X-25405Y296808D01*
X-22112Y298173D01*
X-19283Y300343D01*
X-17113Y303172D01*
X-15748Y306465D01*
X-15283Y310000D01*
X-15748Y313535D01*
X-17113Y316828D01*
X-19283Y319657D01*
X-22112Y321827D01*
X-25405Y323191D01*
X-28940Y323657D01*
D02*
G37*
G36*
X-211820D02*
X-215355Y323191D01*
X-218648Y321827D01*
X-221477Y319657D01*
X-223647Y316828D01*
X-225012Y313535D01*
X-225477Y310000D01*
X-225012Y306465D01*
X-223647Y303172D01*
X-221477Y300343D01*
X-218648Y298173D01*
X-215355Y296808D01*
X-211820Y296343D01*
X-208285Y296808D01*
X-204992Y298173D01*
X-202163Y300343D01*
X-199993Y303172D01*
X-198629Y306465D01*
X-198163Y310000D01*
X-198629Y313535D01*
X-199993Y316828D01*
X-202163Y319657D01*
X-204992Y321827D01*
X-208285Y323191D01*
X-211820Y323657D01*
D02*
G37*
G36*
X336820Y238657D02*
X333285Y238192D01*
X329992Y236827D01*
X327163Y234657D01*
X324993Y231828D01*
X323629Y228535D01*
X323163Y225000D01*
X323629Y221465D01*
X324993Y218172D01*
X327163Y215343D01*
X329992Y213173D01*
X333285Y211808D01*
X336820Y211343D01*
X340355Y211808D01*
X343648Y213173D01*
X346477Y215343D01*
X348647Y218172D01*
X350011Y221465D01*
X350477Y225000D01*
X350011Y228535D01*
X348647Y231828D01*
X346477Y234657D01*
X343648Y236827D01*
X340355Y238192D01*
X336820Y238657D01*
D02*
G37*
G36*
X211820D02*
X208285Y238192D01*
X204992Y236827D01*
X202163Y234657D01*
X199993Y231828D01*
X198629Y228535D01*
X198163Y225000D01*
X198629Y221465D01*
X199993Y218172D01*
X202163Y215343D01*
X204992Y213173D01*
X208285Y211808D01*
X211820Y211343D01*
X215355Y211808D01*
X218648Y213173D01*
X221477Y215343D01*
X223647Y218172D01*
X225012Y221465D01*
X225477Y225000D01*
X225012Y228535D01*
X223647Y231828D01*
X221477Y234657D01*
X218648Y236827D01*
X215355Y238192D01*
X211820Y238657D01*
D02*
G37*
G36*
X153940D02*
X150405Y238192D01*
X147112Y236827D01*
X144283Y234657D01*
X142113Y231828D01*
X140749Y228535D01*
X140283Y225000D01*
X140749Y221465D01*
X142113Y218172D01*
X144283Y215343D01*
X147112Y213173D01*
X150405Y211808D01*
X153940Y211343D01*
X157475Y211808D01*
X160768Y213173D01*
X163597Y215343D01*
X165767Y218172D01*
X167132Y221465D01*
X167597Y225000D01*
X167132Y228535D01*
X165767Y231828D01*
X163597Y234657D01*
X160768Y236827D01*
X157475Y238192D01*
X153940Y238657D01*
D02*
G37*
G36*
X28940D02*
X25405Y238192D01*
X22112Y236827D01*
X19283Y234657D01*
X17113Y231828D01*
X15748Y228535D01*
X15283Y225000D01*
X15748Y221465D01*
X17113Y218172D01*
X19283Y215343D01*
X22112Y213173D01*
X25405Y211808D01*
X28940Y211343D01*
X32475Y211808D01*
X35768Y213173D01*
X38597Y215343D01*
X40767Y218172D01*
X42132Y221465D01*
X42597Y225000D01*
X42132Y228535D01*
X40767Y231828D01*
X38597Y234657D01*
X35768Y236827D01*
X32475Y238192D01*
X28940Y238657D01*
D02*
G37*
G36*
X-28940D02*
X-32475Y238192D01*
X-35768Y236827D01*
X-38597Y234657D01*
X-40767Y231828D01*
X-42132Y228535D01*
X-42597Y225000D01*
X-42132Y221465D01*
X-40767Y218172D01*
X-38597Y215343D01*
X-35768Y213173D01*
X-32475Y211808D01*
X-28940Y211343D01*
X-25405Y211808D01*
X-22112Y213173D01*
X-19283Y215343D01*
X-17113Y218172D01*
X-15748Y221465D01*
X-15283Y225000D01*
X-15748Y228535D01*
X-17113Y231828D01*
X-19283Y234657D01*
X-22112Y236827D01*
X-25405Y238192D01*
X-28940Y238657D01*
D02*
G37*
G36*
X-153940D02*
X-157475Y238192D01*
X-160768Y236827D01*
X-163597Y234657D01*
X-165767Y231828D01*
X-167132Y228535D01*
X-167597Y225000D01*
X-167132Y221465D01*
X-165767Y218172D01*
X-163597Y215343D01*
X-160768Y213173D01*
X-157475Y211808D01*
X-153940Y211343D01*
X-150405Y211808D01*
X-147112Y213173D01*
X-144283Y215343D01*
X-142113Y218172D01*
X-140749Y221465D01*
X-140283Y225000D01*
X-140749Y228535D01*
X-142113Y231828D01*
X-144283Y234657D01*
X-147112Y236827D01*
X-150405Y238192D01*
X-153940Y238657D01*
D02*
G37*
G36*
X-211820D02*
X-215355Y238192D01*
X-218648Y236827D01*
X-221477Y234657D01*
X-223647Y231828D01*
X-225012Y228535D01*
X-225477Y225000D01*
X-225012Y221465D01*
X-223647Y218172D01*
X-221477Y215343D01*
X-218648Y213173D01*
X-215355Y211808D01*
X-211820Y211343D01*
X-208285Y211808D01*
X-204992Y213173D01*
X-202163Y215343D01*
X-199993Y218172D01*
X-198629Y221465D01*
X-198163Y225000D01*
X-198629Y228535D01*
X-199993Y231828D01*
X-202163Y234657D01*
X-204992Y236827D01*
X-208285Y238192D01*
X-211820Y238657D01*
D02*
G37*
G36*
X-336820D02*
X-340355Y238192D01*
X-343648Y236827D01*
X-346477Y234657D01*
X-348647Y231828D01*
X-350011Y228535D01*
X-350477Y225000D01*
X-350011Y221465D01*
X-348647Y218172D01*
X-346477Y215343D01*
X-343648Y213173D01*
X-340355Y211808D01*
X-336820Y211343D01*
X-333285Y211808D01*
X-329992Y213173D01*
X-327163Y215343D01*
X-324993Y218172D01*
X-323629Y221465D01*
X-323163Y225000D01*
X-323629Y228535D01*
X-324993Y231828D01*
X-327163Y234657D01*
X-329992Y236827D01*
X-333285Y238192D01*
X-336820Y238657D01*
D02*
G37*
G36*
X406908Y237379D02*
X402676Y236962D01*
X398606Y235727D01*
X394855Y233722D01*
X391568Y231024D01*
X351440Y190896D01*
X-352456D01*
X-392203Y230643D01*
X-395490Y233341D01*
X-399241Y235346D01*
X-403311Y236581D01*
X-407543Y236998D01*
X-411775Y236581D01*
X-415845Y235346D01*
X-419596Y233341D01*
X-422883Y230643D01*
X-425581Y227356D01*
X-427586Y223605D01*
X-428821Y219535D01*
X-429238Y215303D01*
X-428821Y211071D01*
X-427586Y207001D01*
X-425581Y203250D01*
X-422883Y199963D01*
X-376782Y153862D01*
X-373495Y151164D01*
X-369744Y149159D01*
X-365674Y147924D01*
X-361442Y147507D01*
X360426D01*
X364658Y147924D01*
X368728Y149159D01*
X372479Y151164D01*
X375766Y153862D01*
X422248Y200344D01*
X424946Y203631D01*
X426951Y207382D01*
X428186Y211452D01*
X428602Y215684D01*
X428186Y219916D01*
X426951Y223986D01*
X424946Y227737D01*
X422248Y231024D01*
X418961Y233722D01*
X415210Y235727D01*
X411140Y236962D01*
X406908Y237379D01*
D02*
G37*
G36*
X16710Y142815D02*
X13828Y142436D01*
X11142Y141323D01*
X8836Y139554D01*
X7067Y137248D01*
X5954Y134562D01*
X5575Y131680D01*
X5954Y128798D01*
X7067Y126112D01*
X8836Y123806D01*
X11142Y122037D01*
X13828Y120924D01*
X16710Y120545D01*
X19592Y120924D01*
X22278Y122037D01*
X24584Y123806D01*
X26353Y126112D01*
X27466Y128798D01*
X27845Y131680D01*
X27466Y134562D01*
X26353Y137248D01*
X24584Y139554D01*
X22278Y141323D01*
X19592Y142436D01*
X16710Y142815D01*
D02*
G37*
G36*
X-15910D02*
X-18792Y142436D01*
X-21478Y141323D01*
X-23784Y139554D01*
X-25554Y137248D01*
X-26666Y134562D01*
X-27046Y131680D01*
X-26666Y128798D01*
X-25554Y126112D01*
X-23784Y123806D01*
X-21478Y122037D01*
X-18792Y120924D01*
X-15910Y120545D01*
X-13028Y120924D01*
X-10343Y122037D01*
X-8036Y123806D01*
X-6267Y126112D01*
X-5154Y128798D01*
X-4775Y131680D01*
X-5154Y134562D01*
X-6267Y137248D01*
X-8036Y139554D01*
X-10343Y141323D01*
X-13028Y142436D01*
X-15910Y142815D01*
D02*
G37*
G36*
X157734Y121031D02*
X154786Y120740D01*
X151951Y119880D01*
X149338Y118484D01*
X147048Y116604D01*
X145168Y114314D01*
X143772Y111701D01*
X142912Y108866D01*
X142621Y105918D01*
X142912Y102970D01*
X143772Y100135D01*
X145168Y97522D01*
X147048Y95232D01*
X149338Y93352D01*
X151951Y91956D01*
X154786Y91096D01*
X157734Y90805D01*
X160682Y91096D01*
X163517Y91956D01*
X166130Y93352D01*
X168420Y95232D01*
X170300Y97522D01*
X171696Y100135D01*
X172556Y102970D01*
X172847Y105918D01*
X172556Y108866D01*
X171696Y111701D01*
X170300Y114314D01*
X168420Y116604D01*
X166130Y118484D01*
X163517Y119880D01*
X160682Y120740D01*
X157734Y121031D01*
D02*
G37*
G36*
X69210Y94487D02*
Y86181D01*
X77516D01*
X77466Y86563D01*
X76353Y89248D01*
X74584Y91554D01*
X72277Y93324D01*
X69592Y94437D01*
X69210Y94487D01*
D02*
G37*
G36*
X64210D02*
X63828Y94437D01*
X61142Y93324D01*
X58836Y91554D01*
X57066Y89248D01*
X55954Y86563D01*
X55904Y86181D01*
X64210D01*
Y94487D01*
D02*
G37*
G36*
X-63410D02*
Y86181D01*
X-55104D01*
X-55154Y86563D01*
X-56267Y89248D01*
X-58036Y91554D01*
X-60343Y93324D01*
X-63028Y94437D01*
X-63410Y94487D01*
D02*
G37*
G36*
X-68410D02*
X-68792Y94437D01*
X-71478Y93324D01*
X-73784Y91554D01*
X-75554Y89248D01*
X-76666Y86563D01*
X-76716Y86181D01*
X-68410D01*
Y94487D01*
D02*
G37*
G36*
X-140662Y115878D02*
X-170742D01*
Y85798D01*
X-140662D01*
Y115878D01*
D02*
G37*
G36*
X77516Y81181D02*
X69210D01*
Y72875D01*
X69592Y72925D01*
X72277Y74037D01*
X74584Y75807D01*
X76353Y78113D01*
X77466Y80799D01*
X77516Y81181D01*
D02*
G37*
G36*
X64210D02*
X55904D01*
X55954Y80799D01*
X57066Y78113D01*
X58836Y75807D01*
X61142Y74037D01*
X63828Y72925D01*
X64210Y72875D01*
Y81181D01*
D02*
G37*
G36*
X-55104D02*
X-63410D01*
Y72875D01*
X-63028Y72925D01*
X-60343Y74037D01*
X-58036Y75807D01*
X-56267Y78113D01*
X-55154Y80799D01*
X-55104Y81181D01*
D02*
G37*
G36*
X-68410D02*
X-76716D01*
X-76666Y80799D01*
X-75554Y78113D01*
X-73784Y75807D01*
X-71478Y74037D01*
X-68792Y72925D01*
X-68410Y72875D01*
Y81181D01*
D02*
G37*
G36*
X16710Y94816D02*
X13828Y94437D01*
X11142Y93324D01*
X8836Y91554D01*
X7067Y89248D01*
X5954Y86563D01*
X5575Y83681D01*
X5954Y80799D01*
X7067Y78113D01*
X8836Y75807D01*
X11142Y74037D01*
X13828Y72925D01*
X16710Y72545D01*
X19592Y72925D01*
X22278Y74037D01*
X24584Y75807D01*
X26353Y78113D01*
X27466Y80799D01*
X27845Y83681D01*
X27466Y86563D01*
X26353Y89248D01*
X24584Y91554D01*
X22278Y93324D01*
X19592Y94437D01*
X16710Y94816D01*
D02*
G37*
G36*
X-15910D02*
X-18792Y94437D01*
X-21478Y93324D01*
X-23784Y91554D01*
X-25554Y89248D01*
X-26666Y86563D01*
X-27046Y83681D01*
X-26666Y80799D01*
X-25554Y78113D01*
X-23784Y75807D01*
X-21478Y74037D01*
X-18792Y72925D01*
X-15910Y72545D01*
X-13028Y72925D01*
X-10343Y74037D01*
X-8036Y75807D01*
X-6267Y78113D01*
X-5154Y80799D01*
X-4775Y83681D01*
X-5154Y86563D01*
X-6267Y89248D01*
X-8036Y91554D01*
X-10343Y93324D01*
X-13028Y94437D01*
X-15910Y94816D01*
D02*
G37*
G36*
X-63411Y55444D02*
Y47138D01*
X-55104D01*
X-55154Y47520D01*
X-56267Y50206D01*
X-58036Y52512D01*
X-60343Y54281D01*
X-63028Y55394D01*
X-63411Y55444D01*
D02*
G37*
G36*
X69209D02*
Y47138D01*
X77516D01*
X77466Y47520D01*
X76353Y50206D01*
X74584Y52512D01*
X72277Y54281D01*
X69592Y55394D01*
X69209Y55444D01*
D02*
G37*
G36*
X64209Y55444D02*
X63828Y55394D01*
X61142Y54281D01*
X58836Y52512D01*
X57066Y50206D01*
X55954Y47520D01*
X55904Y47138D01*
X64209D01*
Y55444D01*
D02*
G37*
G36*
X-68411D02*
X-68792Y55394D01*
X-71478Y54281D01*
X-73784Y52512D01*
X-75554Y50206D01*
X-76666Y47520D01*
X-76716Y47138D01*
X-68411D01*
Y55444D01*
D02*
G37*
G36*
X64209Y42138D02*
X55904D01*
X55954Y41756D01*
X57066Y39070D01*
X58836Y36764D01*
X61142Y34995D01*
X63828Y33882D01*
X64209Y33832D01*
Y42138D01*
D02*
G37*
G36*
X-68411D02*
X-76716D01*
X-76666Y41756D01*
X-75554Y39070D01*
X-73784Y36764D01*
X-71478Y34995D01*
X-68792Y33882D01*
X-68411Y33832D01*
Y42138D01*
D02*
G37*
G36*
X-55104D02*
X-63411D01*
Y33832D01*
X-63028Y33882D01*
X-60343Y34995D01*
X-58036Y36764D01*
X-56267Y39070D01*
X-55154Y41756D01*
X-55104Y42138D01*
D02*
G37*
G36*
X77516D02*
X69209D01*
Y33832D01*
X69592Y33882D01*
X72277Y34995D01*
X74584Y36764D01*
X76353Y39070D01*
X77466Y41756D01*
X77516Y42138D01*
D02*
G37*
G36*
X-65910Y142815D02*
X-68792Y142436D01*
X-71478Y141323D01*
X-73784Y139554D01*
X-75554Y137248D01*
X-76666Y134562D01*
X-77045Y131680D01*
X-76666Y128798D01*
X-75554Y126112D01*
X-73784Y123806D01*
X-71478Y122037D01*
X-69959Y121407D01*
X-48735Y100183D01*
Y67336D01*
X-48735Y67336D01*
X-48390Y64715D01*
X-47378Y62272D01*
X-45769Y60175D01*
X-30231Y44638D01*
X-46709Y28161D01*
X-119503D01*
X-140660Y49317D01*
X-140589Y50038D01*
X-140880Y52986D01*
X-141740Y55821D01*
X-143136Y58434D01*
X-145016Y60724D01*
X-147306Y62604D01*
X-149919Y64000D01*
X-152754Y64860D01*
X-155702Y65151D01*
X-158650Y64860D01*
X-161485Y64000D01*
X-164098Y62604D01*
X-166388Y60724D01*
X-168268Y58434D01*
X-169664Y55821D01*
X-170524Y52986D01*
X-170815Y50038D01*
X-170524Y47090D01*
X-169664Y44255D01*
X-168268Y41642D01*
X-166388Y39352D01*
X-164098Y37472D01*
X-161485Y36076D01*
X-158650Y35216D01*
X-155702Y34925D01*
X-154981Y34996D01*
X-130859Y10873D01*
X-128761Y9264D01*
X-126319Y8252D01*
X-123698Y7907D01*
X-123698Y7907D01*
X-42515D01*
X-42514Y7907D01*
X-39893Y8252D01*
X-37451Y9264D01*
X-35354Y10873D01*
X-11862Y34365D01*
X-10343Y34995D01*
X-8036Y36764D01*
X-6267Y39070D01*
X-5154Y41756D01*
X-4775Y44638D01*
X-5154Y47520D01*
X-6267Y50206D01*
X-8036Y52512D01*
X-10343Y54281D01*
X-11862Y54911D01*
X-28481Y71530D01*
Y104378D01*
X-28481Y104378D01*
X-28826Y106999D01*
X-29838Y109441D01*
X-31447Y111538D01*
X-31448Y111539D01*
X-55638Y135729D01*
X-56267Y137248D01*
X-58036Y139554D01*
X-60343Y141323D01*
X-63028Y142436D01*
X-65910Y142815D01*
D02*
G37*
G36*
X450000Y78026D02*
X445616Y77681D01*
X441339Y76655D01*
X437276Y74972D01*
X433526Y72674D01*
X430182Y69818D01*
X427326Y66473D01*
X425028Y62724D01*
X423345Y58661D01*
X422319Y54384D01*
X421974Y50000D01*
X422319Y45616D01*
X423345Y41339D01*
X425028Y37276D01*
X427326Y33526D01*
X430182Y30182D01*
X433526Y27326D01*
X437276Y25028D01*
X441339Y23345D01*
X445616Y22319D01*
X450000Y21974D01*
X454384Y22319D01*
X458661Y23345D01*
X462724Y25028D01*
X466474Y27326D01*
X469818Y30182D01*
X472674Y33526D01*
X474972Y37276D01*
X476655Y41339D01*
X477681Y45616D01*
X478026Y50000D01*
X477681Y54384D01*
X476655Y58661D01*
X474972Y62724D01*
X472674Y66473D01*
X469818Y69818D01*
X466474Y72674D01*
X462724Y74972D01*
X458661Y76655D01*
X454384Y77681D01*
X450000Y78026D01*
D02*
G37*
G36*
X-450000D02*
X-454384Y77681D01*
X-458661Y76655D01*
X-462724Y74972D01*
X-466474Y72674D01*
X-469818Y69818D01*
X-472674Y66473D01*
X-474972Y62724D01*
X-476655Y58661D01*
X-477681Y54384D01*
X-478026Y50000D01*
X-477681Y45616D01*
X-476655Y41339D01*
X-474972Y37276D01*
X-472674Y33526D01*
X-469818Y30182D01*
X-466474Y27326D01*
X-462724Y25028D01*
X-458661Y23345D01*
X-454384Y22319D01*
X-450000Y21974D01*
X-445616Y22319D01*
X-441339Y23345D01*
X-437276Y25028D01*
X-433526Y27326D01*
X-430182Y30182D01*
X-427326Y33526D01*
X-425028Y37276D01*
X-423345Y41339D01*
X-422319Y45616D01*
X-421974Y50000D01*
X-422319Y54384D01*
X-423345Y58661D01*
X-425028Y62724D01*
X-427326Y66473D01*
X-430182Y69818D01*
X-433526Y72674D01*
X-437276Y74972D01*
X-441339Y76655D01*
X-445616Y77681D01*
X-450000Y78026D01*
D02*
G37*
G36*
X66710Y142815D02*
X63828Y142436D01*
X61142Y141323D01*
X58836Y139554D01*
X57066Y137248D01*
X56437Y135729D01*
X34241Y113533D01*
X32632Y111436D01*
X31620Y108993D01*
X31275Y106372D01*
X31275Y106372D01*
Y72267D01*
X25406Y66397D01*
X25015Y66235D01*
X22918Y64626D01*
X13585Y55293D01*
X11142Y54281D01*
X8836Y52512D01*
X7067Y50206D01*
X5954Y47520D01*
X5575Y44638D01*
X5954Y41756D01*
X7067Y39070D01*
X8836Y36764D01*
X11142Y34995D01*
X12661Y34365D01*
X33105Y13922D01*
X33105Y13921D01*
X35203Y12312D01*
X37645Y11300D01*
X40266Y10955D01*
X123698D01*
X123698Y10955D01*
X126319Y11300D01*
X128761Y12312D01*
X130859Y13921D01*
X157015Y40078D01*
X172774D01*
Y70158D01*
X142694D01*
Y54399D01*
X119503Y31209D01*
X44461D01*
X31302Y44367D01*
X35468Y48534D01*
X35859Y48696D01*
X37956Y50305D01*
X48562Y60911D01*
X48563Y60911D01*
X50172Y63009D01*
X51184Y65451D01*
X51529Y68072D01*
X51529Y68072D01*
Y102178D01*
X70759Y121407D01*
X72277Y122037D01*
X74584Y123806D01*
X76353Y126112D01*
X77466Y128798D01*
X77845Y131680D01*
X77466Y134562D01*
X76353Y137248D01*
X74584Y139554D01*
X72277Y141323D01*
X69592Y142436D01*
X66710Y142815D01*
D02*
G37*
%LPD*%
G36*
X-123123Y1184153D02*
X-123993Y1184636D01*
X-125676Y1185449D01*
X-126490Y1185779D01*
X-128060Y1186287D01*
X-128816Y1186465D01*
X-129554Y1186592D01*
X-130273Y1186668D01*
X-130973Y1186693D01*
X-132468Y1191773D01*
X-131680Y1191812D01*
X-130931Y1191927D01*
X-130220Y1192119D01*
X-129548Y1192388D01*
X-128913Y1192734D01*
X-128317Y1193157D01*
X-127760Y1193657D01*
X-127240Y1194233D01*
X-126759Y1194887D01*
X-126316Y1195617D01*
X-123123Y1184153D01*
D02*
G37*
G36*
X-157048Y1192136D02*
X-156895Y1192060D01*
X-156641Y1191993D01*
X-156286Y1191935D01*
X-155829Y1191885D01*
X-153847Y1191791D01*
X-152018Y1191773D01*
Y1186693D01*
X-152988Y1186668D01*
X-153855Y1186592D01*
X-154621Y1186465D01*
X-155285Y1186287D01*
X-155847Y1186058D01*
X-156307Y1185779D01*
X-156665Y1185449D01*
X-156922Y1185068D01*
X-157076Y1184636D01*
X-157129Y1184153D01*
X-157099Y1192221D01*
X-157048Y1192136D01*
D02*
G37*
G36*
X-174471Y1157232D02*
X-174902Y1157079D01*
X-175283Y1156825D01*
X-175614Y1156470D01*
X-175893Y1156012D01*
X-176122Y1155454D01*
X-176299Y1154793D01*
X-176426Y1154031D01*
X-176503Y1153168D01*
X-176528Y1152202D01*
X-181608D01*
X-181633Y1153168D01*
X-181710Y1154031D01*
X-181837Y1154793D01*
X-182014Y1155454D01*
X-182243Y1156012D01*
X-182522Y1156470D01*
X-182853Y1156825D01*
X-183234Y1157079D01*
X-183665Y1157232D01*
X-184148Y1157282D01*
X-173988D01*
X-174471Y1157232D01*
D02*
G37*
G36*
X-341160Y1043974D02*
X-341670Y1043416D01*
X-342125Y1042816D01*
X-342526Y1042174D01*
X-342872Y1041491D01*
X-343163Y1040766D01*
X-343399Y1039999D01*
X-343581Y1039190D01*
X-343708Y1038339D01*
X-343781Y1037447D01*
X-343798Y1036513D01*
X-352213Y1044928D01*
X-351279Y1044945D01*
X-350387Y1045018D01*
X-349536Y1045145D01*
X-348727Y1045327D01*
X-347960Y1045563D01*
X-347235Y1045854D01*
X-346552Y1046200D01*
X-345910Y1046601D01*
X-345310Y1047056D01*
X-344752Y1047566D01*
X-341160Y1043974D01*
D02*
G37*
G36*
X28738Y1006673D02*
X32784Y1005445D01*
X36513Y1003452D01*
X39646Y1000881D01*
X39745Y1000734D01*
X88874Y951605D01*
X89021Y951507D01*
X91592Y948373D01*
X93585Y944644D01*
X94812Y940598D01*
X95210Y936564D01*
X95175Y936391D01*
Y884869D01*
X95209Y884701D01*
X94817Y880725D01*
X93608Y876739D01*
X91645Y873066D01*
X89526Y870484D01*
X88256Y870939D01*
Y891188D01*
X66176D01*
Y874602D01*
X60573Y868998D01*
X60562Y869009D01*
X57576Y865513D01*
X55173Y861593D01*
X53414Y857345D01*
X52340Y852875D01*
X51980Y848291D01*
X51995D01*
Y819696D01*
X46682D01*
Y810806D01*
Y801916D01*
X51995D01*
Y796836D01*
X35292D01*
Y791831D01*
X30029D01*
Y796836D01*
X15288D01*
X14834Y797686D01*
X14721Y798106D01*
X15086Y799940D01*
Y801916D01*
X18638D01*
Y810806D01*
Y819696D01*
X15086D01*
Y830580D01*
X15067Y830673D01*
X15286Y832337D01*
X15964Y833975D01*
X16858Y835139D01*
X17361Y834753D01*
X19523Y833857D01*
X21844Y833551D01*
X24165Y833857D01*
X26327Y834753D01*
X28184Y836178D01*
X29609Y838035D01*
X30505Y840197D01*
X30811Y842518D01*
X30505Y844839D01*
X29609Y847001D01*
X28184Y848858D01*
X26327Y850283D01*
X24165Y851179D01*
X21844Y851485D01*
X19523Y851179D01*
X17361Y850283D01*
X16713Y849786D01*
X15539Y850272D01*
X15519Y850427D01*
X14623Y852589D01*
X13198Y854446D01*
X11341Y855871D01*
X9179Y856767D01*
X6858Y857073D01*
X4537Y856767D01*
X2375Y855871D01*
X518Y854446D01*
X-907Y852589D01*
X-1803Y850427D01*
X-2109Y848106D01*
X-1825Y845954D01*
X-3930Y842519D01*
X-5766Y838086D01*
X-6886Y833421D01*
X-7259Y828682D01*
X-7268Y828639D01*
Y819696D01*
X-10978D01*
Y809241D01*
X-14654Y805565D01*
X-16242D01*
Y808306D01*
X-34022D01*
Y806433D01*
X-35292Y805925D01*
X-38608Y809241D01*
Y819696D01*
X-56388D01*
Y803989D01*
X-57561Y803503D01*
X-62145Y808087D01*
Y819696D01*
X-67151D01*
Y843788D01*
X-28579Y882359D01*
X11799D01*
X12047Y881761D01*
X13472Y879904D01*
X15329Y878479D01*
X17491Y877583D01*
X19812Y877277D01*
X22133Y877583D01*
X24295Y878479D01*
X26152Y879904D01*
X27577Y881761D01*
X28473Y883923D01*
X28779Y886244D01*
X28473Y888565D01*
X27577Y890727D01*
X26152Y892584D01*
X24295Y894009D01*
X22133Y894905D01*
X19812Y895211D01*
X17491Y894905D01*
X15329Y894009D01*
X13472Y892584D01*
X12047Y890727D01*
X11799Y890129D01*
X-30188D01*
X-31675Y889833D01*
X-32935Y888991D01*
X-73782Y848144D01*
X-74624Y846883D01*
X-74920Y845397D01*
Y819696D01*
X-79925D01*
Y814691D01*
X-85189D01*
Y819696D01*
X-102287D01*
Y847551D01*
X-80730Y869108D01*
X-64144D01*
Y891188D01*
X-82607D01*
X-83093Y892361D01*
X-44073Y931381D01*
X45405D01*
X45501Y931237D01*
X47350Y930002D01*
X49530Y929568D01*
X51710Y930002D01*
X53559Y931237D01*
X54794Y933086D01*
X55227Y935266D01*
X54794Y937446D01*
X53559Y939295D01*
X51710Y940530D01*
X49530Y940964D01*
X47350Y940530D01*
X45501Y939295D01*
X45405Y939151D01*
X-45682D01*
X-47169Y938855D01*
X-48429Y938013D01*
X-132541Y853901D01*
X-133383Y852641D01*
X-133679Y851154D01*
Y819696D01*
X-137666D01*
Y810806D01*
X-142666D01*
Y819696D01*
X-147753D01*
Y979063D01*
X-147738D01*
X-148098Y983646D01*
X-149172Y988117D01*
X-150931Y992365D01*
X-153334Y996285D01*
X-156320Y999781D01*
X-156331Y999770D01*
X-159813Y1003253D01*
X-159779Y1003287D01*
X-162798Y1005765D01*
X-162344Y1007035D01*
X24531D01*
X24704Y1007070D01*
X28738Y1006673D01*
D02*
G37*
G36*
X87020Y867935D02*
X84897Y865812D01*
X84875Y865834D01*
X81378Y861739D01*
X78564Y857148D01*
X76504Y852173D01*
X75247Y846937D01*
X74824Y841569D01*
X74855D01*
Y819696D01*
X69725D01*
Y810806D01*
X64725D01*
Y819696D01*
X59765D01*
Y848291D01*
X59730Y848464D01*
X60128Y852498D01*
X61355Y856544D01*
X63348Y860273D01*
X65919Y863407D01*
X66066Y863505D01*
X71670Y869108D01*
X86534D01*
X87020Y867935D01*
D02*
G37*
G36*
X-86224Y887571D02*
Y874602D01*
X-108919Y851907D01*
X-109761Y850647D01*
X-110057Y849160D01*
Y819696D01*
X-114622D01*
Y810806D01*
X-119622D01*
Y819696D01*
X-125909D01*
Y849545D01*
X-87397Y888057D01*
X-86224Y887571D01*
D02*
G37*
G36*
X175166Y830849D02*
X175235Y830329D01*
X176131Y828167D01*
X177556Y826310D01*
X179413Y824885D01*
X181048Y824207D01*
Y819696D01*
X178633D01*
Y801916D01*
X194203D01*
X194729Y800646D01*
X190919Y796836D01*
X178633D01*
Y791831D01*
X173369D01*
Y796836D01*
X155589D01*
Y784192D01*
X154985Y783455D01*
X153882Y781392D01*
X152612D01*
X152101Y782347D01*
X150326Y784510D01*
Y796836D01*
X132546D01*
Y791831D01*
X128993D01*
X128461Y792984D01*
X128606Y793155D01*
X131009Y797075D01*
X132768Y801322D01*
X132911Y801916D01*
X150326D01*
Y819696D01*
X147910D01*
Y828618D01*
X156352Y837060D01*
X168956D01*
X175166Y830849D01*
D02*
G37*
G36*
X-79925Y801916D02*
X-66962D01*
X-63152Y798106D01*
X-63678Y796836D01*
X-68535D01*
Y790446D01*
X-62145D01*
Y795303D01*
X-60875Y795829D01*
X-56388Y791342D01*
Y779056D01*
X-51383D01*
Y754498D01*
X-51401D01*
X-51031Y751692D01*
X-49948Y749078D01*
X-48229Y746837D01*
X-48218Y746848D01*
X-48215Y746848D01*
X-46812Y745444D01*
X-46828Y745429D01*
X-44494Y743639D01*
X-41778Y742514D01*
X-38862Y742130D01*
Y742130D01*
X-37613Y742079D01*
X-34705Y741792D01*
X-30708Y740580D01*
X-27024Y738611D01*
X-23927Y736069D01*
X-23831Y735925D01*
X-2686Y714781D01*
X-2539Y714682D01*
X32Y711549D01*
X2025Y707820D01*
X3252Y703774D01*
X3610Y700140D01*
X2785Y698870D01*
X1143D01*
X1040Y700181D01*
X-34Y704651D01*
X-1793Y708899D01*
X-4196Y712819D01*
X-7182Y716315D01*
X-7193Y716304D01*
X-23088Y732199D01*
X-23077Y732210D01*
X-26573Y735196D01*
X-30493Y737599D01*
X-34741Y739358D01*
X-39211Y740432D01*
X-43795Y740792D01*
Y740777D01*
X-66187D01*
X-66360Y740742D01*
X-70394Y741140D01*
X-74440Y742367D01*
X-78169Y744360D01*
X-81302Y746932D01*
X-81401Y747078D01*
X-88439Y754117D01*
X-88575Y754208D01*
X-89797Y756036D01*
X-90226Y758193D01*
X-90194Y758354D01*
Y779056D01*
X-85189D01*
Y796836D01*
X-97475D01*
X-101285Y800646D01*
X-100759Y801916D01*
X-85189D01*
Y806921D01*
X-79925D01*
Y801916D01*
D02*
G37*
%LPC*%
G36*
X41682Y819696D02*
X35292D01*
Y813306D01*
X41682D01*
Y819696D01*
D02*
G37*
G36*
X30029D02*
X23639D01*
Y813306D01*
X30029D01*
Y819696D01*
D02*
G37*
G36*
X-16242D02*
X-22632D01*
Y813306D01*
X-16242D01*
Y819696D01*
D02*
G37*
G36*
X-27632D02*
X-34022D01*
Y813306D01*
X-27632D01*
Y819696D01*
D02*
G37*
G36*
X41682Y808306D02*
X35292D01*
Y801916D01*
X41682D01*
Y808306D01*
D02*
G37*
G36*
X30029D02*
X23639D01*
Y801916D01*
X30029D01*
Y808306D01*
D02*
G37*
G36*
X173369Y819696D02*
X166979D01*
Y813306D01*
X173369D01*
Y819696D01*
D02*
G37*
G36*
X161979D02*
X155589D01*
Y813306D01*
X161979D01*
Y819696D01*
D02*
G37*
G36*
X173369Y808306D02*
X166979D01*
Y801916D01*
X173369D01*
Y808306D01*
D02*
G37*
G36*
X161979D02*
X155589D01*
Y801916D01*
X161979D01*
Y808306D01*
D02*
G37*
G36*
X-73535Y796836D02*
X-79925D01*
Y790446D01*
X-73535D01*
Y796836D01*
D02*
G37*
G36*
X-62145Y785446D02*
X-68535D01*
Y779056D01*
X-62145D01*
Y785446D01*
D02*
G37*
G36*
X-73535D02*
X-79925D01*
Y779056D01*
X-73535D01*
Y785446D01*
D02*
G37*
%LPD*%
G36*
X19012Y574840D02*
X30734Y547916D01*
X40894Y524040D01*
X14478D01*
Y547916D01*
X10884Y574840D01*
X10922Y578650D01*
X19050D01*
X19012Y574840D01*
D02*
G37*
G36*
X-10884D02*
X-14478Y547916D01*
Y524040D01*
X-40894D01*
X-30734Y547916D01*
X-19012Y574840D01*
X-19050Y578650D01*
X-10922D01*
X-10884Y574840D01*
D02*
G37*
G36*
X-884D02*
X-1015Y479590D01*
X-28956Y479590D01*
X-43688Y464858D01*
Y453174D01*
X-43688D01*
X-43688Y443268D01*
X-63754Y443268D01*
X-65532Y441490D01*
X-65532Y344970D01*
X-123952Y286550D01*
X-135636Y286550D01*
X-184404D01*
Y347002D01*
X-184404Y351320D01*
X-100838Y434886D01*
X-100838Y474002D01*
X-100330Y474510D01*
X-65532D01*
X-61214Y478828D01*
X-60960D01*
X-60960Y493323D01*
X-59199Y495084D01*
X-45057Y495084D01*
X-41910Y498231D01*
X-41910Y521246D01*
X-12192Y521246D01*
X-12192Y551625D01*
X-9012Y574840D01*
X-8890Y577126D01*
X-1016Y577380D01*
X-884Y574840D01*
D02*
G37*
G36*
X-21706Y577634D02*
X-20828D01*
X-20884Y574840D01*
X-40469Y531653D01*
X-43277Y525054D01*
X-43280Y525042D01*
X-43287Y525031D01*
X-43383Y524547D01*
X-43484Y524065D01*
X-43481Y524053D01*
X-43484Y524040D01*
X-43387Y523556D01*
X-43347Y523341D01*
X-43741Y523077D01*
X-44303Y522237D01*
X-44500Y521246D01*
X-44500Y499304D01*
X-44958Y498845D01*
Y497878D01*
X-45925D01*
X-46130Y497674D01*
X-59199Y497674D01*
X-60191Y497477D01*
X-61031Y496915D01*
X-61031Y496915D01*
X-62791Y495155D01*
X-62791Y495154D01*
X-63353Y494314D01*
X-63550Y493323D01*
X-63550Y480155D01*
X-64523Y479182D01*
X-65324Y479451D01*
X-65736Y479764D01*
Y493052D01*
X-65933Y494043D01*
X-66040Y494203D01*
Y495338D01*
X-67175D01*
X-67335Y495445D01*
X-68326Y495642D01*
X-76924D01*
X-77072Y495776D01*
X-77582Y496912D01*
X-68305Y511437D01*
X-29012Y574840D01*
X-28956Y577634D01*
X-28398D01*
Y581290D01*
X-21706D01*
Y577634D01*
D02*
G37*
G36*
X28294D02*
X28956D01*
X29012Y574840D01*
X68305Y511437D01*
X77582Y496912D01*
X77072Y495776D01*
X76924Y495642D01*
X68326D01*
X67335Y495445D01*
X67175Y495338D01*
X66040D01*
Y494203D01*
X65933Y494043D01*
X65736Y493052D01*
Y479764D01*
X65324Y479451D01*
X64523Y479182D01*
X63550Y480155D01*
X63550Y493323D01*
X63353Y494314D01*
X62791Y495154D01*
X62791Y495155D01*
X61031Y496915D01*
X61031Y496915D01*
X60191Y497477D01*
X59199Y497674D01*
X46130Y497674D01*
X45925Y497878D01*
X44958D01*
Y498845D01*
X44500Y499304D01*
X44500Y521246D01*
X44303Y522237D01*
X43741Y523077D01*
X43347Y523341D01*
X43387Y523556D01*
X43484Y524040D01*
X43481Y524053D01*
X43484Y524065D01*
X43383Y524547D01*
X43287Y525031D01*
X43280Y525042D01*
X43277Y525054D01*
X40469Y531653D01*
X20884Y574840D01*
X20828Y577634D01*
X21630D01*
X21640Y578624D01*
X21637Y578637D01*
X21640Y578650D01*
X21602Y578841D01*
Y581290D01*
X28294D01*
Y577634D01*
D02*
G37*
G36*
X-30988Y574944D02*
X-30884Y574840D01*
X-80037Y497878D01*
X-101092Y497878D01*
X-104140Y494830D01*
X-104140Y458551D01*
X-104140D01*
Y437172D01*
X-183642Y357404D01*
X-183654D01*
X-210312Y330746D01*
X-271526D01*
X-314452Y287820D01*
X-363982D01*
X-363982Y328206D01*
X-327660Y364528D01*
X-231394Y364528D01*
X-210058Y385864D01*
X-209550D01*
X-132604Y462810D01*
X-132842Y527850D01*
X-38862Y578396D01*
X-30988D01*
Y574944D01*
D02*
G37*
G36*
X132842Y527850D02*
X132604Y462810D01*
X253238Y342176D01*
Y294424D01*
X183642D01*
X180086Y297980D01*
Y360972D01*
X104140Y437172D01*
Y437426D01*
Y458551D01*
X104140D01*
X104140Y494830D01*
X101092Y497878D01*
X80037Y497878D01*
X30884Y574840D01*
X30988Y574944D01*
Y578396D01*
X38862D01*
X132842Y527850D01*
D02*
G37*
G36*
X8890Y577126D02*
X9012Y574840D01*
X12192Y551625D01*
X12192Y521246D01*
X41910Y521246D01*
X41910Y498231D01*
X45057Y495084D01*
X59199Y495084D01*
X60960Y493323D01*
X60960Y478828D01*
X61214D01*
X65532Y474510D01*
X100330D01*
X100838Y474002D01*
X100838Y434886D01*
X136768Y398957D01*
X136767Y342938D01*
X85344Y291515D01*
X11684D01*
X11684Y342938D01*
X65532Y396786D01*
Y441490D01*
X63754Y443268D01*
X43688Y443268D01*
X43688Y453174D01*
X43688D01*
Y464858D01*
X28956Y479590D01*
X1015Y479590D01*
X884Y574840D01*
X1016Y577380D01*
X8890Y577126D01*
D02*
G37*
D12*
X-71035Y765059D02*
G03*
X-65788Y752388I17922J0D01*
G01*
X160092Y783559D02*
G03*
X155702Y772960I10599J-10599D01*
G01*
X146972Y752079D02*
G03*
X155876Y773575I-21496J21496D01*
G01*
X107413Y723684D02*
G03*
X126472Y731579I0J26953D01*
G01*
X70465Y723684D02*
G03*
X52505Y716245I0J-25400D01*
G01*
X39370Y703110D02*
G03*
X37500Y698595I4515J-4515D01*
G01*
X122863Y792416D02*
G03*
X130302Y810377I-17960J17960D01*
G01*
X-129540Y768936D02*
G03*
X-122100Y750975I25400J0D01*
G01*
X63320Y866252D02*
G03*
X55880Y848291I17960J-17960D01*
G01*
X-200527Y1006850D02*
G03*
X-218487Y999410I0J-25400D01*
G01*
X-162560Y1000506D02*
G03*
X-177381Y1006850I-15330J-15330D01*
G01*
X-151638Y979063D02*
G03*
X-159078Y997023I-25400J0D01*
G01*
X-156210Y961523D02*
G03*
X-163650Y979484I-25400J0D01*
G01*
X-164399Y785801D02*
G03*
X-166511Y786676I-2112J-2112D01*
G01*
X-163650Y792077D02*
G03*
X-156210Y810038I-17960J17960D01*
G01*
X-39116Y712508D02*
G03*
X-54446Y718858I-15330J-15330D01*
G01*
X-27500Y697520D02*
G03*
X-29884Y703276I-8141J0D01*
G01*
X-156130Y777532D02*
G03*
X-152331Y768360I12972J0D01*
G01*
X-110216Y726245D02*
G03*
X-92383Y718858I17832J17832D01*
G01*
X-151130Y777532D02*
G03*
X-148795Y771895I7972J0D01*
G01*
X-151638Y809939D02*
G03*
X-144199Y791979I25400J0D01*
G01*
X-35580Y716043D02*
G03*
X-54446Y723858I-18866J-18866D01*
G01*
X-22500Y697520D02*
G03*
X-26349Y706812I-13141J0D01*
G01*
X-141986Y786676D02*
G03*
X-141046Y787065I0J1329D01*
G01*
X-106680Y729780D02*
G03*
X-92383Y723858I14297J14297D01*
G01*
X-310214Y1015920D02*
G03*
X-331710Y1007016I0J-30400D01*
G01*
X46027D02*
G03*
X24531Y1015920I-21496J-21496D01*
G01*
X104060Y936391D02*
G03*
X95156Y957887I-30400J0D01*
G01*
X95250Y863600D02*
G03*
X104060Y884869I-21269J21269D01*
G01*
X91180Y859529D02*
G03*
X83740Y841569I17960J-17960D01*
G01*
X84581Y777277D02*
G03*
X84580Y777276I2031J-2031D01*
G01*
D02*
G03*
X83740Y775246I2033J-2030D01*
G01*
X76499Y757765D02*
G03*
X83740Y775246I-17481J17481D01*
G01*
X34939Y716206D02*
G03*
X27500Y698245I17960J-17960D01*
G01*
X-256325Y1010920D02*
G03*
X-274286Y1003481I0J-25400D01*
G01*
X42491D02*
G03*
X24531Y1010920I-17960J-17960D01*
G01*
X99060Y936391D02*
G03*
X91621Y954352I-25400J0D01*
G01*
X87644Y863065D02*
G03*
X78740Y841569I21496J-21496D01*
G01*
Y775246D02*
G03*
X77902Y777270I-2862J0D01*
G01*
X72964Y761301D02*
G03*
X78740Y775246I-13945J13945D01*
G01*
X31404Y719741D02*
G03*
X22500Y698245I21496J-21496D01*
G01*
X91714Y867135D02*
G03*
X99060Y884869I-17734J17734D01*
G01*
X35835Y706646D02*
G03*
X32500Y698595I8050J-8050D01*
G01*
X70465Y728684D02*
G03*
X48969Y719780I0J-30400D01*
G01*
X107413Y728684D02*
G03*
X122936Y735114I0J21953D01*
G01*
X150876Y773575D02*
G03*
X147389Y781992I-11904J0D01*
G01*
X143436Y755614D02*
G03*
X150876Y773575I-17960J17960D01*
G01*
X-1321Y770928D02*
G03*
X-9906Y767372I0J-12141D01*
G01*
D02*
G03*
X-11300Y764007I3365J-3365D01*
G01*
X53086Y772706D02*
G03*
X55880Y779451I-6745J6745D01*
G01*
X48794Y770928D02*
G03*
X53086Y772706I0J6071D01*
G01*
X12500Y715649D02*
G03*
X5060Y733609I-25400J0D01*
G01*
X-47498Y754498D02*
G03*
X-45469Y749594I6938J0D01*
G01*
X-44065Y748191D02*
G03*
X-38862Y746036I5203J5203D01*
G01*
X-21084Y738672D02*
G03*
X-38862Y746036I-17778J-17778D01*
G01*
X7500Y699567D02*
G03*
X60Y717527I-25400J0D01*
G01*
X-61802Y748401D02*
G03*
X-43841Y740962I17960J17960D01*
G01*
X-23047Y733522D02*
G03*
X-41007Y740962I-17960J-17960D01*
G01*
X2500Y697455D02*
G03*
X-4940Y715415I-25400J0D01*
G01*
X-84148Y744332D02*
G03*
X-66187Y736892I17960J17960D01*
G01*
X-25835Y729453D02*
G03*
X-43795Y736892I-17960J-17960D01*
G01*
X-2500Y695597D02*
G03*
X-9940Y713558I-25400J0D01*
G01*
X-94079Y758354D02*
G03*
X-91186Y751370I9876J0D01*
G01*
X-117122Y763189D02*
G03*
X-109683Y745229I25400J0D01*
G01*
X-101346Y736892D02*
G03*
X-89531Y731998I11815J11815D01*
G01*
X-28561Y724558D02*
G03*
X-46521Y731998I-17960J-17960D01*
G01*
X-7500Y692977D02*
G03*
X-14940Y710938I-25400J0D01*
G01*
X-103327Y732202D02*
G03*
X-91175Y727928I12152J15139D01*
G01*
X-31095Y720489D02*
G03*
X-49055Y727928I-17960J-17960D01*
G01*
X-12500Y692990D02*
G03*
X-18796Y708190I-21496J0D01*
G01*
X-173502Y770624D02*
G03*
X-166878Y767880I6624J6624D01*
G01*
X-152135Y761773D02*
G03*
X-166878Y767880I-14743J-14743D01*
G01*
X-111889Y721527D02*
G03*
X-93928Y714087I17960J17960D01*
G01*
X-44254Y710534D02*
G03*
X-52832Y714087I-8578J-8578D01*
G01*
X1270Y777278D02*
G03*
X16976Y783784I0J22212D01*
G01*
X-7566Y777278D02*
G03*
X-16762Y773470I0J-13008D01*
G01*
D02*
G03*
X-16764Y773468I9196J-9200D01*
G01*
X-20738Y769494D02*
G03*
X-25400Y758228I11281J-11266D01*
G01*
X-11300Y757689D02*
G03*
X-5842Y744512I18635J0D01*
G01*
X17500Y730207D02*
G03*
X10060Y748167I-25400J0D01*
G01*
X-32500Y697326D02*
G03*
X-33527Y699807I-3510J0D01*
G01*
D02*
G03*
X-33528Y699808I-2483J-2480D01*
G01*
X2500Y668234D02*
X25146Y645588D01*
X22500Y592330D02*
X25146Y594976D01*
Y645588D01*
X22154Y599130D02*
X25654Y595630D01*
X-24638Y641096D02*
X2006Y667740D01*
X-17500D02*
X2006D01*
X2500Y668234D01*
X-24638Y596392D02*
Y641096D01*
X-42500Y592330D02*
Y642740D01*
X-17500Y667740D01*
Y687830D01*
X2500Y687830D02*
Y697455D01*
Y668234D02*
Y687830D01*
X12662Y671360D02*
X34036D01*
X7500Y676522D02*
X12662Y671360D01*
X7500Y676522D02*
Y699567D01*
X-2500Y687750D02*
Y695597D01*
X-71035Y765059D02*
Y787946D01*
X22500Y687750D02*
Y687830D01*
X27500Y687750D02*
Y687830D01*
X37500Y687750D02*
Y687830D01*
X-56896Y1212596D02*
X-15748D01*
X-91440Y1255014D02*
X1270D01*
X196342Y1059942D01*
X-101854Y1244600D02*
X-91440Y1255014D01*
X-15748Y1212596D02*
X116586Y1080262D01*
Y880364D02*
Y1080262D01*
X63320Y866252D02*
X77216Y880148D01*
X160092Y783559D02*
X164479Y787946D01*
X126472Y731579D02*
X146972Y752079D01*
X70465Y723684D02*
X107413D01*
X-116659Y1163902D02*
Y1168326D01*
X39370Y703110D02*
X52505Y716245D01*
X37500Y687830D02*
Y698595D01*
X-101854Y1183132D02*
Y1244600D01*
X-116659Y1168326D02*
X-101854Y1183132D01*
X196342Y879640D02*
X199136Y876846D01*
Y799559D02*
Y876846D01*
X130048Y810006D02*
Y864146D01*
X145542Y879640D01*
X196342D02*
Y1059942D01*
X-129794Y851154D02*
X-45682Y935266D01*
X49530D01*
X-129794Y768604D02*
Y851154D01*
X-106172Y800039D02*
Y849160D01*
X-75184Y880148D01*
X-30188Y886244D02*
X19812D01*
X-71035Y845397D02*
X-30188Y886244D01*
X55880Y779451D02*
Y848291D01*
X-231470Y986428D02*
X-218487Y999410D01*
X-200527Y1006850D02*
X-177381D01*
X-162560Y1000506D02*
X-159078Y997023D01*
X-151638Y809939D02*
Y979063D01*
X-170594Y986428D02*
X-163650Y979484D01*
X-167781Y787946D02*
X-166511Y786676D01*
X-164399Y785801D02*
X-156130Y777532D01*
X-167781Y787946D02*
X-163650Y792077D01*
X-27500Y687750D02*
Y697520D01*
X-92383Y718858D02*
X-54446D01*
X-152331Y768360D02*
X-110216Y726245D01*
X-151130Y777532D02*
X-141986Y786676D01*
X-148795Y771895D02*
X-106680Y729780D01*
X-22500Y687750D02*
Y697520D01*
X-144199Y791979D02*
X-140166Y787946D01*
X-92383Y723858D02*
X-54446D01*
X-141046Y787065D02*
X-140166Y787946D01*
X-156210Y810038D02*
Y961523D01*
X-352298Y986428D02*
X-331710Y1007016D01*
X-310214Y1015920D02*
X24531D01*
X104060Y884869D02*
Y936391D01*
X91180Y859529D02*
X95250Y863600D01*
X84581Y777277D02*
X95250Y787946D01*
X84580Y777276D02*
X84581Y777277D01*
X83740Y775246D02*
Y841569D01*
X46027Y1007016D02*
X95156Y957887D01*
X34939Y716206D02*
X76499Y757765D01*
X27500Y687830D02*
Y698245D01*
X-291338Y986428D02*
X-274286Y1003481D01*
X-256325Y1010920D02*
X24531D01*
X99060Y884869D02*
Y936391D01*
X87644Y863065D02*
X91714Y867135D01*
X78740Y775246D02*
Y841569D01*
X42491Y1003481D02*
X91621Y954352D01*
X31404Y719741D02*
X72964Y761301D01*
X22500Y687830D02*
Y698245D01*
X-94079Y810806D02*
X-71035D01*
X17500Y687750D02*
Y730207D01*
X-47498Y754498D02*
Y787946D01*
X-89662Y650786D02*
X-56134D01*
X-89662Y673646D02*
X-44450D01*
X-42656Y675440D01*
X44958Y607860D02*
X89408D01*
X89916Y607352D01*
X89662Y630466D02*
X89916Y630212D01*
X89662Y630466D02*
Y650786D01*
X58674D02*
X89662D01*
X87376Y671360D02*
X89662Y673646D01*
X56134Y671360D02*
X87376D01*
X-118872Y1166114D02*
X-116659Y1163902D01*
X70465Y728684D02*
X107413D01*
X118392Y787946D02*
X122863Y792416D01*
X32500Y687750D02*
Y698595D01*
X35835Y706646D02*
X48969Y719780D01*
X122936Y735114D02*
X143436Y755614D01*
X141436Y787946D02*
X147389Y781992D01*
X-1321Y770928D02*
X48794D01*
X-11300Y757689D02*
Y764007D01*
X-5842Y744512D02*
X5060Y733609D01*
X12500Y687750D02*
Y715649D01*
X145542Y879640D02*
X145542D01*
X137741Y871840D02*
X145542Y879640D01*
X-45469Y749594D02*
X-45466Y749592D01*
X-44065Y748191D01*
X-21084Y738672D02*
X60Y717527D01*
X-65788Y752388D02*
X-65786Y752386D01*
X-61802Y748401D01*
X-43841Y740962D02*
X-41007D01*
X-23047Y733522D02*
X-4940Y715415D01*
X-91186Y751370D02*
X-84148Y744332D01*
X-66187Y736892D02*
X-43795D01*
X-25835Y729453D02*
X-9940Y713558D01*
X-94079Y758354D02*
Y787946D01*
X-109683Y745229D02*
X-101346Y736892D01*
X-89531Y731998D02*
X-46521D01*
X-28561Y724558D02*
X-14940Y710938D01*
X-7500Y687750D02*
Y692977D01*
X-117122Y763189D02*
Y787946D01*
X-122100Y750975D02*
X-103327Y732202D01*
X-91175Y727928D02*
X-49055D01*
X-31095Y720489D02*
X-18796Y708190D01*
X-12500Y687750D02*
Y692990D01*
X-190825Y787946D02*
X-173502Y770624D01*
X-93928Y714087D02*
X-52832D01*
X-152135Y761773D02*
X-111889Y721527D01*
X-39116Y712508D02*
X-29884Y703276D01*
X-35580Y716043D02*
X-26349Y706812D01*
X16976Y783784D02*
X21139Y787946D01*
X-7566Y777278D02*
X1270D01*
X-25400Y759244D02*
X-24738Y759906D01*
X-20738Y769494D02*
X-16764Y773468D01*
X-16762Y773470D01*
X0Y758228D02*
X10060Y748167D01*
X118392Y787946D02*
X141436D01*
X-44254Y710534D02*
X-33528Y699808D01*
X-33527Y699807D01*
X-32500Y687750D02*
Y697326D01*
X67225Y787946D02*
X77902Y777270D01*
X-71035Y810806D02*
Y845397D01*
X187523Y787946D02*
X199136Y799559D01*
X-71035Y810806D02*
X-65955Y805726D01*
X-65278D01*
X-47498Y787946D01*
X-106172Y800039D02*
X-94079Y787946D01*
X42500Y666960D02*
X58674Y650786D01*
X42500Y666960D02*
Y687750D01*
Y605402D02*
X44958Y607860D01*
X42500Y592250D02*
Y605402D01*
X-56134Y650786D02*
X-37500Y669420D01*
Y687750D01*
X-42656Y675440D02*
Y687594D01*
X-42500Y687750D01*
X21139Y787946D02*
X44182D01*
X164479D02*
X187523D01*
D18*
X67225Y810806D02*
D03*
Y787946D02*
D03*
X-167781D02*
D03*
Y810806D02*
D03*
X89916Y607352D02*
D03*
Y630212D02*
D03*
X21139Y810806D02*
D03*
Y787946D02*
D03*
X164479Y810806D02*
D03*
Y787946D02*
D03*
X118392D02*
D03*
Y810806D02*
D03*
X210566D02*
D03*
Y787946D02*
D03*
X89662Y650786D02*
D03*
Y673646D02*
D03*
X-94079Y787946D02*
D03*
Y810806D02*
D03*
X-71035D02*
D03*
Y787946D02*
D03*
X-25132D02*
D03*
Y810806D02*
D03*
X-2088D02*
D03*
Y787946D02*
D03*
X-47498D02*
D03*
Y810806D02*
D03*
X-117122Y787946D02*
D03*
Y810806D02*
D03*
X44182Y787946D02*
D03*
Y810806D02*
D03*
X141436Y787946D02*
D03*
Y810806D02*
D03*
X187523Y787946D02*
D03*
Y810806D02*
D03*
X95250D02*
D03*
Y787946D02*
D03*
X-140166D02*
D03*
Y810806D02*
D03*
X-89662Y650786D02*
D03*
Y673646D02*
D03*
X-190825Y787946D02*
D03*
Y810806D02*
D03*
X-93980Y486448D02*
D03*
Y509308D02*
D03*
X93980D02*
D03*
Y486448D02*
D03*
D21*
X262890Y821982D02*
D03*
X285750D02*
D03*
X263144Y802424D02*
D03*
X286004D02*
D03*
X263144Y782866D02*
D03*
X286004D02*
D03*
X-52070Y486448D02*
D03*
X-74930D02*
D03*
X74930D02*
D03*
X52070D02*
D03*
D36*
X-211820Y310000D02*
D03*
Y225000D02*
D03*
X-336820Y310000D02*
D03*
Y225000D02*
D03*
X-153940D02*
D03*
Y310000D02*
D03*
X-28940Y225000D02*
D03*
Y310000D02*
D03*
X153940D02*
D03*
Y225000D02*
D03*
X28940D02*
D03*
Y310000D02*
D03*
X336820D02*
D03*
Y225000D02*
D03*
X211820D02*
D03*
Y310000D02*
D03*
D45*
X21844Y842518D02*
G03*
X9906Y830580I0J-11938D01*
G01*
X5351Y846599D02*
G03*
X-2088Y828639I17960J-17960D01*
G01*
X-310897Y1067308D02*
G03*
X-328857Y1059868I0J-25400D01*
G01*
X-186507Y1106098D02*
G03*
X-179068Y1124059I-17960J17960D01*
G01*
X-235819Y1067308D02*
G03*
X-217859Y1074747I0J25400D01*
G01*
X9906Y799940D02*
Y830580D01*
X5351Y846599D02*
X6858Y848106D01*
X-2088Y810806D02*
Y828639D01*
X-352298Y1036428D02*
X-328857Y1059868D01*
X-310897Y1067308D02*
X-235819D01*
X-168021Y829983D02*
X-167901Y829863D01*
X-140716Y830110D02*
X-140441Y829835D01*
X-217859Y1074747D02*
X-186507Y1106098D01*
X-179068Y1124059D02*
Y1164752D01*
X-190789Y810841D02*
Y829821D01*
X-190754Y829856D01*
X-167901Y810926D02*
Y829863D01*
X-118364Y829856D02*
X-117743Y829235D01*
Y811427D02*
Y829235D01*
X-121153Y1189233D02*
X-118872Y1191514D01*
X-159608Y1189233D02*
X-121153D01*
X-163068Y1185773D02*
X-159608Y1189233D01*
X-163068Y1184752D02*
Y1185773D01*
X-317953Y1164752D02*
Y1166252D01*
X210058Y770928D02*
X210312Y771182D01*
Y787692D01*
X210566Y787946D01*
X211264Y787247D01*
X236029D01*
X236728Y786549D01*
X118110Y828586D02*
X118251Y828445D01*
Y810947D02*
Y828445D01*
Y810947D02*
X118392Y810806D01*
X94643Y829856D02*
X94947Y829553D01*
Y811109D02*
Y829553D01*
Y811109D02*
X95250Y810806D01*
X-2088Y787946D02*
X9906Y799940D01*
X-25012Y829228D02*
X-24892Y829348D01*
X-25012Y810926D02*
Y829228D01*
X-25132Y810806D02*
X-25012Y810926D01*
X164536Y828784D02*
X164592Y828840D01*
X164536Y810862D02*
Y828784D01*
X164479Y810806D02*
X164536Y810862D01*
X44189Y828579D02*
X44196Y828586D01*
X44189Y810813D02*
Y828579D01*
X44182Y810806D02*
X44189Y810813D01*
X67056Y829094D02*
X67141Y829009D01*
Y810891D02*
Y829009D01*
Y810891D02*
X67225Y810806D01*
X-25132Y787946D02*
X-2088D01*
X-47498Y810806D02*
X-37078Y800386D01*
X-12508D01*
X-2088Y810806D01*
X-190825D02*
X-190789Y810841D01*
X-167901Y810926D02*
X-167781Y810806D01*
X-117743Y811427D02*
X-117122Y810806D01*
X-140441Y811081D02*
Y829835D01*
Y811081D02*
X-140166Y810806D01*
X-92202Y830038D02*
X-89226Y827062D01*
X-92202Y830038D02*
Y830110D01*
X21139Y810806D02*
X44182D01*
X164084Y811201D02*
X164479Y810806D01*
D46*
X360426Y169202D02*
X406908Y215684D01*
X-407543Y215303D02*
X-361442Y169202D01*
X360426D01*
D47*
X-65910Y131680D02*
X-38608Y104378D01*
Y67336D02*
Y104378D01*
Y67336D02*
X-15910Y44638D01*
X-155702Y50038D02*
X-123698Y18034D01*
X-42514D01*
X-15910Y44638D01*
X123698Y21082D02*
X157734Y55118D01*
X16710Y44638D02*
X40266Y21082D01*
X123698D01*
X16710Y44638D02*
X17251D01*
X30078Y57465D01*
X30795D01*
X41402Y68072D01*
Y106372D02*
X66710Y131680D01*
X41402Y68072D02*
Y106372D01*
D48*
X285750Y802424D02*
Y821982D01*
Y782866D02*
Y802424D01*
Y725185D02*
Y782866D01*
X228600Y668035D02*
X285750Y725185D01*
D50*
X153670Y843534D02*
X171637D01*
X182521Y832650D01*
X183896D01*
X141436Y831300D02*
X153670Y843534D01*
X218948Y819188D02*
Y832650D01*
X263017Y782993D02*
Y821855D01*
X141436Y810806D02*
Y831300D01*
X187523Y810806D02*
Y828261D01*
X210566Y810806D02*
X218948Y819188D01*
X235077D01*
X236728Y820839D01*
X237299Y821411D01*
X262318D01*
X262890Y821982D01*
X263017Y821855D01*
Y782993D02*
X263144Y782866D01*
D55*
X16710Y83681D02*
D03*
X66710D02*
D03*
X-65910Y131680D02*
D03*
X-15910D02*
D03*
X-65910Y44638D02*
D03*
X-15910D02*
D03*
X-118872Y1191514D02*
D03*
X0Y759244D02*
D03*
X25400D02*
D03*
X-170593Y1036428D02*
D03*
Y986428D02*
D03*
X-231470Y1036428D02*
D03*
Y986428D02*
D03*
X-291338Y1036428D02*
D03*
Y986428D02*
D03*
X-352298Y1036428D02*
D03*
Y986428D02*
D03*
X16710Y131680D02*
D03*
X66710D02*
D03*
X-15910Y83681D02*
D03*
X-65910D02*
D03*
X16710Y44638D02*
D03*
X66710D02*
D03*
X-319532Y1107948D02*
D03*
Y1082548D02*
D03*
X-348742Y1107948D02*
D03*
Y1082548D02*
D03*
X170942Y879640D02*
D03*
X196342D02*
D03*
D56*
X0Y1100000D02*
D03*
X-450000Y50000D02*
D03*
X450000D02*
D03*
D57*
X-81896Y1237596D02*
D03*
X-31896D02*
D03*
Y1187596D02*
D03*
X-81896D02*
D03*
X-56896Y1212596D02*
D03*
X-155702Y50038D02*
D03*
X396494Y1235456D02*
D03*
X157734Y105918D02*
D03*
D58*
X248402Y1189752D02*
D03*
D59*
X295402Y1224752D02*
D03*
Y1162752D02*
D03*
D60*
X228600Y446255D02*
D03*
Y582145D02*
D03*
Y718035D02*
D03*
X-228600Y446255D02*
D03*
Y718035D02*
D03*
Y582145D02*
D03*
D61*
X228600Y396255D02*
D03*
Y532145D02*
D03*
Y668035D02*
D03*
X-228600Y396255D02*
D03*
Y668035D02*
D03*
Y532145D02*
D03*
D62*
X-118872Y1166114D02*
D03*
X77216Y880148D02*
D03*
X-319532Y1133348D02*
D03*
X-348742D02*
D03*
X-75184Y880148D02*
D03*
D63*
X-160068Y1234752D02*
D03*
X-225068D02*
D03*
X-298953Y1234752D02*
D03*
X-363954D02*
D03*
D64*
X-150068Y1164752D02*
D03*
X-163068Y1184752D02*
D03*
X-179068Y1164752D02*
D03*
X-211068D02*
D03*
X-231068Y1194752D02*
D03*
X-369953Y1194752D02*
D03*
X-349953Y1164752D02*
D03*
X-317953D02*
D03*
X-301953Y1184752D02*
D03*
X-288953Y1164752D02*
D03*
D65*
X-195068Y1245752D02*
D03*
X-333954Y1245752D02*
D03*
D66*
X-155702Y100838D02*
D03*
X396494Y1184656D02*
D03*
X157734Y55118D02*
D03*
D67*
X-25400Y759244D02*
D03*
X145542Y879640D02*
D03*
D68*
X-71035Y765059D02*
D03*
X116586Y880364D02*
D03*
X21844Y842518D02*
D03*
X6858Y848106D02*
D03*
X183896Y832650D02*
D03*
X-168021Y829983D02*
D03*
X-190754Y829856D02*
D03*
X-118364D02*
D03*
X218948Y832650D02*
D03*
X210058Y770928D02*
D03*
X118110Y828586D02*
D03*
X94643Y829856D02*
D03*
X19812Y886244D02*
D03*
X-24892Y829348D02*
D03*
X164592Y828840D02*
D03*
X44196Y828586D02*
D03*
X67056Y829094D02*
D03*
X-140716Y830110D02*
D03*
X-92202D02*
D03*
D69*
X34036Y671360D02*
D03*
X49530Y935266D02*
D03*
X28956Y417322D02*
D03*
X21336D02*
D03*
X28956Y409702D02*
D03*
X21336D02*
D03*
Y402082D02*
D03*
X28956D02*
D03*
X13716Y417322D02*
D03*
Y409702D02*
D03*
X6096D02*
D03*
Y402082D02*
D03*
X13716D02*
D03*
X21336Y386842D02*
D03*
Y394462D02*
D03*
X13716Y386842D02*
D03*
Y394462D02*
D03*
X6096D02*
D03*
Y386842D02*
D03*
Y417322D02*
D03*
X-6096D02*
D03*
Y386842D02*
D03*
Y394462D02*
D03*
X-13716D02*
D03*
Y386842D02*
D03*
X-21336Y394462D02*
D03*
Y386842D02*
D03*
X-13716Y402082D02*
D03*
X-6096D02*
D03*
Y409702D02*
D03*
X-13716D02*
D03*
Y417322D02*
D03*
X-28956Y402082D02*
D03*
X-21336D02*
D03*
Y409702D02*
D03*
X-28956D02*
D03*
X-21336Y417322D02*
D03*
X-28956D02*
D03*
X56134Y671360D02*
D03*
X-418084Y208572D02*
D03*
X-410464D02*
D03*
X-402844D02*
D03*
X-395224D02*
D03*
Y216192D02*
D03*
X-418084D02*
D03*
X-410464D02*
D03*
X-418084Y223812D02*
D03*
X-402844D02*
D03*
X-410464D02*
D03*
X-402844Y216192D02*
D03*
X-395224Y223812D02*
D03*
X395224Y208572D02*
D03*
X402844D02*
D03*
X395224Y216192D02*
D03*
X418084Y208572D02*
D03*
X410464D02*
D03*
X402844Y223812D02*
D03*
Y216192D02*
D03*
X410464Y223812D02*
D03*
X395224D02*
D03*
X410464Y216192D02*
D03*
X418084D02*
D03*
Y223812D02*
D03*
X114300Y456222D02*
D03*
Y447586D02*
D03*
X-114300D02*
D03*
Y456222D02*
D03*
X-47752Y435394D02*
D03*
X-57912D02*
D03*
X57912D02*
D03*
X47752D02*
D03*
X-23622Y438188D02*
D03*
X-13462D02*
D03*
X13462D02*
D03*
X23622D02*
D03*
X49276Y517690D02*
D03*
Y502450D02*
D03*
Y510070D02*
D03*
X-56896Y517690D02*
D03*
X-49276D02*
D03*
X-56896Y510070D02*
D03*
X-49276D02*
D03*
Y502450D02*
D03*
X-56896D02*
D03*
X-26416Y528612D02*
D03*
X-18796D02*
D03*
Y536232D02*
D03*
X-26416D02*
D03*
X-18796Y543852D02*
D03*
X-26416D02*
D03*
X26416D02*
D03*
X18796D02*
D03*
X26416Y536232D02*
D03*
X18796D02*
D03*
Y528612D02*
D03*
X26416D02*
D03*
X56896Y502450D02*
D03*
Y510070D02*
D03*
Y517690D02*
D03*
D70*
X-42500Y687830D02*
D03*
X-37500D02*
D03*
X-32500D02*
D03*
X-27500D02*
D03*
X-22500D02*
D03*
X-17500Y687830D02*
D03*
X-12500Y687830D02*
D03*
X-7500D02*
D03*
X-2500D02*
D03*
X2500D02*
D03*
X7500D02*
D03*
X12500D02*
D03*
X17500Y687830D02*
D03*
X22500Y687830D02*
D03*
X27500D02*
D03*
X32500D02*
D03*
X37500D02*
D03*
X42500D02*
D03*
Y592330D02*
D03*
X37500D02*
D03*
X32500D02*
D03*
X27500D02*
D03*
X22500D02*
D03*
X17500Y592330D02*
D03*
X12500Y592330D02*
D03*
X7500D02*
D03*
X2500D02*
D03*
X-2500D02*
D03*
X-7500D02*
D03*
X-12500D02*
D03*
X-17500Y592330D02*
D03*
X-22500Y592330D02*
D03*
X-27500D02*
D03*
X-32500D02*
D03*
X-37500D02*
D03*
X-42500D02*
D03*
D71*
X236728Y786549D02*
D03*
D72*
Y820839D02*
D03*
D73*
X52324Y417982D02*
D03*
Y463982D02*
D03*
X-17780Y500952D02*
D03*
Y454952D02*
D03*
X-52324Y417982D02*
D03*
Y463982D02*
D03*
X17780Y500952D02*
D03*
Y454952D02*
D03*
D74*
X-84455Y486321D02*
D03*
X84455D02*
D03*
D75*
X-52578Y423202D02*
D03*
X52578D02*
D03*
D76*
X-18669Y449872D02*
D03*
X18669D02*
D03*
D77*
X-53086Y509816D02*
D03*
X-22606Y535978D02*
D03*
X22606D02*
D03*
X53086Y509816D02*
D03*
D78*
X4948Y587794D02*
D03*
X-5052D02*
D03*
X34948D02*
D03*
X24948D02*
D03*
X14948D02*
D03*
X-15052D02*
D03*
X-25052D02*
D03*
X-35052D02*
D03*
M02*
