G04*
G04 #@! TF.GenerationSoftware,Altium Limited,Altium Designer,20.0.13 (296)*
G04*
G04 Layer_Color=8388736*
%FSLAX44Y44*%
%MOMM*%
G71*
G01*
G75*
%ADD24R,0.8500X1.7000*%
%ADD25R,1.4700X1.4700*%
%ADD26R,1.9780X1.8510*%
G04:AMPARAMS|DCode=27|XSize=1.978mm|YSize=1.851mm|CornerRadius=0mm|HoleSize=0mm|Usage=FLASHONLY|Rotation=0.000|XOffset=0mm|YOffset=0mm|HoleType=Round|Shape=Octagon|*
%AMOCTAGOND27*
4,1,8,0.9890,-0.4627,0.9890,0.4627,0.5263,0.9255,-0.5263,0.9255,-0.9890,0.4627,-0.9890,-0.4627,-0.5263,-0.9255,0.5263,-0.9255,0.9890,-0.4627,0.0*
%
%ADD27OCTAGOND27*%

%ADD28R,1.4700X1.4700*%
%ADD29R,2.4000X1.9500*%
%ADD30R,3.3500X2.8000*%
%ADD31C,1.9000*%
%ADD32C,5.2800*%
%ADD33C,2.7000*%
%ADD34R,2.2000X4.2000*%
%ADD35R,4.2000X2.2000*%
%ADD36C,2.2000*%
%ADD37R,2.2000X2.2000*%
%ADD38R,1.9000X1.9000*%
%ADD39C,2.4000*%
%ADD40C,1.4000*%
%ADD41R,1.4000X1.7000*%
%ADD42R,1.7000X1.4000*%
%ADD43R,2.7000X2.7000*%
%ADD44R,1.9000X1.9000*%
D24*
X7112Y866588D02*
D03*
X19812D02*
D03*
Y949588D02*
D03*
X-5588Y866588D02*
D03*
X-18288D02*
D03*
X7112Y949588D02*
D03*
X-5588D02*
D03*
X-18288D02*
D03*
D25*
X90122Y133111D02*
D03*
Y110251D02*
D03*
Y172001D02*
D03*
Y149141D02*
D03*
X90072Y93111D02*
D03*
Y70251D02*
D03*
X-89120Y71172D02*
D03*
Y94032D02*
D03*
X-89120Y134462D02*
D03*
Y111602D02*
D03*
X90122Y30718D02*
D03*
Y53578D02*
D03*
X-89120D02*
D03*
Y30718D02*
D03*
X-89120Y173462D02*
D03*
Y150602D02*
D03*
D26*
X136399Y1220978D02*
D03*
D27*
X103379D02*
D03*
D28*
X185420Y1162304D02*
D03*
X208280D02*
D03*
X29210Y486956D02*
D03*
X52070D02*
D03*
X-29464Y487210D02*
D03*
X-52324D02*
D03*
X-29464Y470446D02*
D03*
X-52324D02*
D03*
X28956Y470192D02*
D03*
X51816D02*
D03*
D29*
X-99200Y451396D02*
D03*
X-53200D02*
D03*
X-129400D02*
D03*
X-175400D02*
D03*
X129400D02*
D03*
X175400D02*
D03*
X53200D02*
D03*
X99200D02*
D03*
D30*
X-406400Y326614D02*
D03*
Y254614D02*
D03*
X406400Y254614D02*
D03*
Y326614D02*
D03*
D31*
X16710Y83681D02*
D03*
X66710D02*
D03*
X-65910Y131680D02*
D03*
X-15910D02*
D03*
X-65910Y44638D02*
D03*
X-15910D02*
D03*
X-118872Y1191514D02*
D03*
X0Y759244D02*
D03*
X25400D02*
D03*
X-170593Y1036428D02*
D03*
Y986428D02*
D03*
X-231470Y1036428D02*
D03*
Y986428D02*
D03*
X-291338Y1036428D02*
D03*
Y986428D02*
D03*
X-352298Y1036428D02*
D03*
Y986428D02*
D03*
X16710Y131680D02*
D03*
X66710D02*
D03*
X-15910Y83681D02*
D03*
X-65910D02*
D03*
X16710Y44638D02*
D03*
X66710D02*
D03*
X-319532Y1107948D02*
D03*
Y1082548D02*
D03*
X-348742Y1107948D02*
D03*
Y1082548D02*
D03*
X170942Y879640D02*
D03*
X196342D02*
D03*
D32*
X0Y1100000D02*
D03*
X-450000Y50000D02*
D03*
X450000D02*
D03*
D33*
X-81896Y1237596D02*
D03*
X-31896D02*
D03*
Y1187596D02*
D03*
X-81896D02*
D03*
X-56896Y1212596D02*
D03*
X-155702Y50038D02*
D03*
X396494Y1235456D02*
D03*
X157734Y105918D02*
D03*
D34*
X248402Y1189752D02*
D03*
D35*
X295402Y1224752D02*
D03*
Y1162752D02*
D03*
D36*
X228600Y446255D02*
D03*
Y582145D02*
D03*
Y718035D02*
D03*
X-228600Y446255D02*
D03*
Y718035D02*
D03*
Y582145D02*
D03*
D37*
X228600Y396255D02*
D03*
Y532145D02*
D03*
Y668035D02*
D03*
X-228600Y396255D02*
D03*
Y668035D02*
D03*
Y532145D02*
D03*
D38*
X-118872Y1166114D02*
D03*
X77216Y880148D02*
D03*
X-319532Y1133348D02*
D03*
X-348742D02*
D03*
X-75184Y880148D02*
D03*
D39*
X-211820Y310000D02*
D03*
Y225000D02*
D03*
X-336820Y310000D02*
D03*
Y225000D02*
D03*
X-153940D02*
D03*
Y310000D02*
D03*
X-28940Y225000D02*
D03*
Y310000D02*
D03*
X153940D02*
D03*
Y225000D02*
D03*
X28940D02*
D03*
Y310000D02*
D03*
X336820D02*
D03*
Y225000D02*
D03*
X211820D02*
D03*
Y310000D02*
D03*
D40*
X-160068Y1234752D02*
D03*
X-225068D02*
D03*
X-298953Y1234752D02*
D03*
X-363954D02*
D03*
D41*
X-150068Y1164752D02*
D03*
X-163068Y1184752D02*
D03*
X-179068Y1164752D02*
D03*
X-211068D02*
D03*
X-231068Y1194752D02*
D03*
X-369953Y1194752D02*
D03*
X-349953Y1164752D02*
D03*
X-317953D02*
D03*
X-301953Y1184752D02*
D03*
X-288953Y1164752D02*
D03*
D42*
X-195068Y1245752D02*
D03*
X-333954Y1245752D02*
D03*
D43*
X-155702Y100838D02*
D03*
X396494Y1184656D02*
D03*
X157734Y55118D02*
D03*
D44*
X-25400Y759244D02*
D03*
X145542Y879640D02*
D03*
M02*
