G04*
G04 #@! TF.GenerationSoftware,Altium Limited,Altium Designer,20.0.13 (296)*
G04*
G04 Layer_Color=128*
%FSLAX44Y44*%
%MOMM*%
G71*
G01*
G75*
%ADD18R,1.2700X1.2700*%
%ADD21R,1.2700X1.2700*%
%ADD70R,0.3000X1.7000*%
%ADD71R,1.2700X1.3970*%
G04:AMPARAMS|DCode=72|XSize=1.397mm|YSize=1.27mm|CornerRadius=0mm|HoleSize=0mm|Usage=FLASHONLY|Rotation=90.000|XOffset=0mm|YOffset=0mm|HoleType=Round|Shape=Octagon|*
%AMOCTAGOND72*
4,1,8,0.3175,0.6985,-0.3175,0.6985,-0.6350,0.3810,-0.6350,-0.3810,-0.3175,-0.6985,0.3175,-0.6985,0.6350,-0.3810,0.6350,0.3810,0.3175,0.6985,0.0*
%
%ADD72OCTAGOND72*%

%ADD73R,1.7500X2.2000*%
D18*
X67225Y810806D02*
D03*
Y787946D02*
D03*
X-167781D02*
D03*
Y810806D02*
D03*
X89916Y607352D02*
D03*
Y630212D02*
D03*
X21139Y810806D02*
D03*
Y787946D02*
D03*
X164479Y810806D02*
D03*
Y787946D02*
D03*
X118392D02*
D03*
Y810806D02*
D03*
X210566D02*
D03*
Y787946D02*
D03*
X89662Y650786D02*
D03*
Y673646D02*
D03*
X-94079Y787946D02*
D03*
Y810806D02*
D03*
X-71035D02*
D03*
Y787946D02*
D03*
X-25132D02*
D03*
Y810806D02*
D03*
X-2088D02*
D03*
Y787946D02*
D03*
X-47498D02*
D03*
Y810806D02*
D03*
X-117122Y787946D02*
D03*
Y810806D02*
D03*
X44182Y787946D02*
D03*
Y810806D02*
D03*
X141436Y787946D02*
D03*
Y810806D02*
D03*
X187523Y787946D02*
D03*
Y810806D02*
D03*
X95250D02*
D03*
Y787946D02*
D03*
X-140166D02*
D03*
Y810806D02*
D03*
X-89662Y650786D02*
D03*
Y673646D02*
D03*
X-190825Y787946D02*
D03*
Y810806D02*
D03*
X-93980Y486448D02*
D03*
Y509308D02*
D03*
X93980D02*
D03*
Y486448D02*
D03*
D21*
X262890Y821982D02*
D03*
X285750D02*
D03*
X263144Y802424D02*
D03*
X286004D02*
D03*
X263144Y782866D02*
D03*
X286004D02*
D03*
X-52070Y486448D02*
D03*
X-74930D02*
D03*
X74930D02*
D03*
X52070D02*
D03*
D70*
X-42500Y687830D02*
D03*
X-37500D02*
D03*
X-32500D02*
D03*
X-27500D02*
D03*
X-22500D02*
D03*
X-17500Y687830D02*
D03*
X-12500Y687830D02*
D03*
X-7500D02*
D03*
X-2500D02*
D03*
X2500D02*
D03*
X7500D02*
D03*
X12500D02*
D03*
X17500Y687830D02*
D03*
X22500Y687830D02*
D03*
X27500D02*
D03*
X32500D02*
D03*
X37500D02*
D03*
X42500D02*
D03*
Y592330D02*
D03*
X37500D02*
D03*
X32500D02*
D03*
X27500D02*
D03*
X22500D02*
D03*
X17500Y592330D02*
D03*
X12500Y592330D02*
D03*
X7500D02*
D03*
X2500D02*
D03*
X-2500D02*
D03*
X-7500D02*
D03*
X-12500D02*
D03*
X-17500Y592330D02*
D03*
X-22500Y592330D02*
D03*
X-27500D02*
D03*
X-32500D02*
D03*
X-37500D02*
D03*
X-42500D02*
D03*
D71*
X236728Y786549D02*
D03*
D72*
Y820839D02*
D03*
D73*
X52324Y417982D02*
D03*
Y463982D02*
D03*
X-17780Y500952D02*
D03*
Y454952D02*
D03*
X-52324Y417982D02*
D03*
Y463982D02*
D03*
X17780Y500952D02*
D03*
Y454952D02*
D03*
M02*
