M48
;Layer_Color=9474304
;FILE_FORMAT=4:4
METRIC,LZ
;TYPE=PLATED
T1F00S00C0.3048
T3F00S00C0.7112
T4F00S00C0.8000
T6F00S00C0.9000
T7F00S00C1.0000
T8F00S00C1.1000
T9F00S00C1.2000
T10F00S00C1.5000
T11F00S00C3.1750
;TYPE=NON_PLATED
T12F00S00C1.2000
%
T01
X00395224Y00208572
X00402844
X00410464
X00418084
X-00395224
X-00402844
X-00410464
X-00418084
Y00216192
X-00410464
Y00223812
X-00418084
X-00402844
Y00216192
X-00395224
Y00223812
X-001143Y00447586
Y00456222
X-00057912Y00435394
X-00047752
X-00023622Y00438188
X-00013462
X-00013716Y00417322
Y00409702
Y00402082
Y00394462
Y00386842
X-00021336
Y00394462
Y00402082
X-00028956
Y00409702
X-00021336
Y00417322
X-00028956
X-00049276Y0050245
Y0051007
Y0051769
X-00056896
Y0051007
Y0050245
X-00026416Y00528612
X-00018796
Y00536232
X-00026416
Y00543852
X-00018796
X00018796
X00026416
Y00536232
X00018796
Y00528612
X00026416
X00049276Y0051769
Y0051007
Y0050245
X00056896
Y0051007
Y0051769
X00057912Y00435394
X00047752
X00023622Y00438188
X00013462
X00013716Y00417322
X00021336
X00028956
Y00409702
X00021336
Y00402082
X00028956
X00013716
Y00409702
X00006096
Y00402082
Y00394462
X00013716
X00021336
Y00386842
X00013716
X00006096
X-00006096
Y00394462
Y00402082
Y00409702
Y00417322
X00006096
X001143Y00447586
Y00456222
X00395224Y00223812
Y00216192
X00402844
Y00223812
X00410464
Y00216192
X00418084
Y00223812
X00056134Y0067136
X00034036
X0004953Y00935266
T03
X00006858Y00848106
X00021844Y00842518
X00044196Y00828586
X00067056Y00829094
X00094643Y00829856
X0011811Y00828586
X00164592Y0082884
X00183896Y0083265
X00218948
X00210058Y00770928
X00116586Y00880364
X00019812Y00886244
X-00024892Y00829348
X-00092202Y0083011
X-00118364Y00829856
X-00140716Y0083011
X-00168021Y00829983
X-00190754Y00829856
X-00071035Y00765059
T04
X0001671Y00044638
Y00083681
Y0013168
X0006671
Y00083681
Y00044638
X-0001591
Y00083681
Y0013168
X-0006591
Y00083681
Y00044638
X-00170593Y00986428
X-0023147
X-00291338
X-00352298
Y01036428
X-00291338
X-0023147
X-00170593
T06
X0Y00759244
X000254
X00145542Y0087964
X00170942
X00196342
X-000254Y00759244
X-00118872Y01166114
Y01191514
X-00319532Y01133348
Y01107948
Y01082548
X-00348742
Y01107948
Y01133348
T07
X00077216Y00880148
X-00075184
T08
X-002286Y00396255
Y00446255
Y00532145
Y00582145
X002286
Y00532145
Y00446255
Y00396255
Y00668035
Y00718035
X-002286
Y00668035
T09
X-0033682Y00225
Y0031
X-0021182
X-0015394
Y00225
X-0021182
X-0002894
Y0031
X0002894
Y00225
X0015394
X0021182
Y0031
X0015394
X0033682
Y00225
T10
X00157734Y00055118
Y00105918
X-00155702Y00100838
Y00050038
X-00081896Y01187596
Y01237596
X-00031896
Y01187596
X-00056896Y01212596
X00396494Y01235456
Y01184656
T11
X0045Y0005
X-0045
X0Y011
T12
X-00363954Y01234752
X-00298953
X-00225068Y01234752
X-00160068
M30
