G04*
G04 #@! TF.GenerationSoftware,Altium Limited,Altium Designer,20.0.13 (296)*
G04*
G04 Layer_Color=32896*
%FSLAX44Y44*%
%MOMM*%
G71*
G01*
G75*
%ADD11C,0.2000*%
%ADD12C,0.2540*%
%ADD14C,0.2032*%
%ADD83C,1.0000*%
%ADD84C,0.1524*%
G36*
X67564Y718486D02*
X54266D01*
Y722512D01*
X67564D01*
Y718486D01*
D02*
G37*
G36*
X12456D02*
X-148D01*
X-1619Y722512D01*
X12456D01*
Y718486D01*
D02*
G37*
G36*
X-57616Y718486D02*
X-65500D01*
Y722512D01*
X-57616D01*
Y718486D01*
D02*
G37*
G36*
Y711657D02*
X-65500D01*
Y715682D01*
X-57616D01*
Y711657D01*
D02*
G37*
G36*
X-25467Y722790D02*
X-24967Y722651D01*
X-24468Y722512D01*
X-24023Y722373D01*
X-23607Y722207D01*
X-23218Y722012D01*
X-22857Y721846D01*
X-22552Y721651D01*
X-22274Y721485D01*
X-22025Y721318D01*
X-21830Y721179D01*
X-21664Y721040D01*
X-21525Y720929D01*
X-21442Y720846D01*
X-21386Y720791D01*
X-21358Y720763D01*
X-21081Y720430D01*
X-20831Y720097D01*
X-20609Y719736D01*
X-20442Y719375D01*
X-20276Y719014D01*
X-20137Y718653D01*
X-19943Y717959D01*
X-19887Y717626D01*
X-19831Y717348D01*
X-19804Y717070D01*
X-19776Y716849D01*
X-19748Y716654D01*
Y716515D01*
Y716432D01*
Y716404D01*
X-19776Y715988D01*
X-19804Y715599D01*
X-19970Y714877D01*
X-20192Y714239D01*
X-20470Y713684D01*
X-20581Y713434D01*
X-20720Y713212D01*
X-20831Y713045D01*
X-20942Y712878D01*
X-21025Y712767D01*
X-21109Y712684D01*
X-21136Y712629D01*
X-21164Y712601D01*
X-21303Y712406D01*
X-21469Y712184D01*
X-21692Y711990D01*
X-21914Y711796D01*
X-22385Y711435D01*
X-22913Y711102D01*
X-23385Y710824D01*
X-23607Y710713D01*
X-23774Y710630D01*
X-23940Y710546D01*
X-24051Y710491D01*
X-24135Y710435D01*
X-24162D01*
X-26300Y713822D01*
X-25884Y714072D01*
X-25523Y714294D01*
X-25245Y714461D01*
X-25023Y714628D01*
X-24884Y714738D01*
X-24773Y714822D01*
X-24718Y714877D01*
X-24690Y714905D01*
X-24523Y715127D01*
X-24384Y715377D01*
X-24301Y715655D01*
X-24218Y715877D01*
X-24190Y716099D01*
X-24162Y716265D01*
Y716404D01*
Y716432D01*
X-24190Y716737D01*
X-24218Y717043D01*
X-24301Y717265D01*
X-24384Y717487D01*
X-24440Y717626D01*
X-24523Y717765D01*
X-24551Y717820D01*
X-24579Y717848D01*
X-24773Y718042D01*
X-24967Y718237D01*
X-25467Y718514D01*
X-25689Y718625D01*
X-25856Y718708D01*
X-25967Y718736D01*
X-26022Y718764D01*
Y722873D01*
X-25467Y722790D01*
D02*
G37*
G36*
X-2397Y709103D02*
X-10170Y709103D01*
Y713128D01*
X-6089D01*
X-2397Y709103D01*
D02*
G37*
G36*
X63150Y704855D02*
X58625D01*
Y716737D01*
X63150D01*
Y704855D01*
D02*
G37*
G36*
X53544D02*
X49019D01*
Y722512D01*
X53544D01*
Y704855D01*
D02*
G37*
G36*
X47159Y718486D02*
X46493D01*
X45854Y718459D01*
X45271Y718403D01*
X44743Y718348D01*
X44271Y718292D01*
X43827Y718237D01*
X43411Y718153D01*
X43078Y718070D01*
X42772Y717987D01*
X42495Y717931D01*
X42273Y717848D01*
X42078Y717792D01*
X41940Y717737D01*
X41856Y717681D01*
X41801Y717654D01*
X41773D01*
X41384Y717431D01*
X41051Y717182D01*
X40746Y716876D01*
X40496Y716571D01*
X40301Y716238D01*
X40107Y715905D01*
X39968Y715571D01*
X39857Y715238D01*
X39691Y714628D01*
X39635Y714350D01*
X39608Y714100D01*
X39580Y713906D01*
Y713767D01*
Y713656D01*
Y713628D01*
X39608Y713128D01*
X39691Y712656D01*
X39802Y712240D01*
X39941Y711851D01*
X40107Y711490D01*
X40301Y711157D01*
X40524Y710880D01*
X40718Y710630D01*
X40940Y710408D01*
X41162Y710213D01*
X41357Y710074D01*
X41523Y709936D01*
X41662Y709825D01*
X41773Y709769D01*
X41856Y709741D01*
X41884Y709714D01*
X42217Y709575D01*
X42606Y709436D01*
X43439Y709242D01*
X44327Y709075D01*
X45188Y708992D01*
X45576Y708964D01*
X45937Y708936D01*
X46298Y708908D01*
X46576D01*
X46826Y708881D01*
X47159D01*
Y704855D01*
X45271D01*
X44494Y704883D01*
X43744Y704939D01*
X43022Y705050D01*
X42356Y705188D01*
X41717Y705355D01*
X41134Y705549D01*
X40607Y705744D01*
X40107Y705938D01*
X39691Y706132D01*
X39302Y706327D01*
X38969Y706521D01*
X38691Y706687D01*
X38469Y706826D01*
X38330Y706937D01*
X38219Y706993D01*
X38192Y707021D01*
X37636Y707493D01*
X37164Y707992D01*
X36748Y708520D01*
X36387Y709075D01*
X36082Y709630D01*
X35832Y710185D01*
X35638Y710713D01*
X35471Y711240D01*
X35332Y711740D01*
X35249Y712184D01*
X35166Y712601D01*
X35138Y712962D01*
X35110Y713239D01*
X35082Y713462D01*
Y713600D01*
Y713656D01*
X35110Y714433D01*
X35249Y715183D01*
X35415Y715877D01*
X35665Y716515D01*
X35943Y717126D01*
X36248Y717681D01*
X36581Y718181D01*
X36915Y718653D01*
X37275Y719070D01*
X37609Y719403D01*
X37914Y719708D01*
X38192Y719986D01*
X38442Y720180D01*
X38608Y720319D01*
X38719Y720402D01*
X38775Y720430D01*
X39247Y720791D01*
X39746Y721124D01*
X40274Y721402D01*
X40801Y721624D01*
X41384Y721846D01*
X41940Y722012D01*
X42495Y722151D01*
X43022Y722262D01*
X43522Y722345D01*
X43994Y722401D01*
X44438Y722456D01*
X44799Y722484D01*
X45104Y722512D01*
X47159D01*
Y718486D01*
D02*
G37*
G36*
X34249Y704855D02*
X29391D01*
X24921Y712851D01*
X27392Y717015D01*
X34249Y704855D01*
D02*
G37*
G36*
X26309Y719125D02*
X21951Y711768D01*
X23589D01*
X25588Y707715D01*
X19952D01*
X18258Y704855D01*
X13372D01*
X23839Y723345D01*
X26309Y719125D01*
D02*
G37*
G36*
X9957Y704855D02*
X5293D01*
X685Y716737D01*
X5377D01*
X9957Y704855D01*
D02*
G37*
G36*
X-12086Y719069D02*
Y704855D01*
X-16611D01*
Y709103D01*
X-18915D01*
Y713128D01*
X-16611D01*
Y723067D01*
X-12086Y719069D01*
D02*
G37*
G36*
X-27938Y718764D02*
X-28299Y718625D01*
X-28577Y718486D01*
X-28826Y718348D01*
X-29049Y718209D01*
X-29187Y718070D01*
X-29298Y717959D01*
X-29354Y717903D01*
X-29382Y717876D01*
X-29548Y717654D01*
X-29659Y717431D01*
X-29743Y717237D01*
X-29798Y717043D01*
X-29826Y716849D01*
X-29854Y716710D01*
Y716626D01*
Y716599D01*
X-29826Y716404D01*
X-29798Y716182D01*
X-29632Y715655D01*
X-29409Y715099D01*
X-29132Y714516D01*
X-28854Y714017D01*
X-28743Y713795D01*
X-28632Y713572D01*
X-28549Y713406D01*
X-28465Y713295D01*
X-28438Y713212D01*
X-28410Y713184D01*
X-27966Y712434D01*
X-27466Y711685D01*
X-26994Y710935D01*
X-26522Y710269D01*
X-26300Y709936D01*
X-26106Y709658D01*
X-25939Y709408D01*
X-25800Y709186D01*
X-25661Y709019D01*
X-25578Y708881D01*
X-25523Y708797D01*
X-25495Y708770D01*
X-25106Y708214D01*
X-24745Y707715D01*
X-24440Y707271D01*
X-24162Y706854D01*
X-23912Y706493D01*
X-23718Y706188D01*
X-23551Y705910D01*
X-23413Y705660D01*
X-23274Y705466D01*
X-23191Y705272D01*
X-23107Y705133D01*
X-23052Y705022D01*
X-23024Y704966D01*
X-22996Y704911D01*
X-22968Y704855D01*
X-27882D01*
X-28465Y705660D01*
X-28993Y706438D01*
X-29493Y707159D01*
X-29965Y707770D01*
X-30159Y708048D01*
X-30326Y708298D01*
X-30464Y708520D01*
X-30603Y708714D01*
X-30714Y708853D01*
X-30798Y708964D01*
X-30825Y709019D01*
X-30853Y709047D01*
X-31464Y709936D01*
X-31991Y710769D01*
X-32463Y711546D01*
X-32852Y712268D01*
X-33185Y712934D01*
X-33463Y713545D01*
X-33685Y714100D01*
X-33879Y714600D01*
X-34018Y715044D01*
X-34101Y715433D01*
X-34185Y715766D01*
X-34240Y716043D01*
X-34268Y716238D01*
X-34295Y716404D01*
Y716488D01*
Y716515D01*
X-34268Y716987D01*
X-34212Y717459D01*
X-34129Y717876D01*
X-34018Y718292D01*
X-33907Y718681D01*
X-33740Y719042D01*
X-33602Y719375D01*
X-33435Y719652D01*
X-33268Y719930D01*
X-33129Y720152D01*
X-32963Y720374D01*
X-32852Y720541D01*
X-32741Y720680D01*
X-32657Y720763D01*
X-32602Y720818D01*
X-32574Y720846D01*
X-32241Y721152D01*
X-31880Y721429D01*
X-31519Y721679D01*
X-31131Y721901D01*
X-30353Y722262D01*
X-29632Y722512D01*
X-29271Y722623D01*
X-28965Y722706D01*
X-28660Y722762D01*
X-28438Y722817D01*
X-28216Y722873D01*
X-28077D01*
X-27966Y722901D01*
X-27938D01*
Y718764D01*
D02*
G37*
G36*
X-51175Y704855D02*
X-55700D01*
Y722512D01*
X-51175D01*
Y704855D01*
D02*
G37*
G36*
X-57616D02*
X-65500D01*
Y708881D01*
X-57616D01*
Y704855D01*
D02*
G37*
G36*
X-41403Y722873D02*
X-40903Y722845D01*
X-40459Y722762D01*
X-40015Y722679D01*
X-39626Y722568D01*
X-39237Y722429D01*
X-38904Y722290D01*
X-38599Y722179D01*
X-38321Y722040D01*
X-38099Y721901D01*
X-37877Y721762D01*
X-37710Y721651D01*
X-37571Y721568D01*
X-37488Y721485D01*
X-37433Y721457D01*
X-37405Y721429D01*
X-37099Y721152D01*
X-36850Y720846D01*
X-36628Y720513D01*
X-36433Y720208D01*
X-36294Y719874D01*
X-36156Y719541D01*
X-35961Y718931D01*
X-35822Y718375D01*
X-35795Y718153D01*
X-35767Y717931D01*
X-35739Y717765D01*
Y717654D01*
Y717570D01*
Y717542D01*
X-35767Y717209D01*
X-35795Y716904D01*
X-35850Y716626D01*
X-35906Y716376D01*
X-35961Y716154D01*
X-36017Y715988D01*
X-36072Y715877D01*
Y715849D01*
X-36211Y715571D01*
X-36378Y715294D01*
X-36516Y715072D01*
X-36655Y714877D01*
X-36794Y714738D01*
X-36905Y714600D01*
X-36961Y714544D01*
X-36988Y714516D01*
X-36683Y714239D01*
X-36405Y713961D01*
X-36183Y713656D01*
X-35961Y713378D01*
X-35822Y713128D01*
X-35684Y712934D01*
X-35628Y712795D01*
X-35600Y712740D01*
X-35434Y712323D01*
X-35295Y711935D01*
X-35212Y711546D01*
X-35128Y711185D01*
X-35101Y710907D01*
X-35073Y710658D01*
Y710519D01*
Y710491D01*
Y710463D01*
X-35101Y709963D01*
X-35156Y709492D01*
X-35239Y709047D01*
X-35378Y708631D01*
X-35517Y708242D01*
X-35684Y707881D01*
X-35878Y707548D01*
X-36044Y707243D01*
X-36239Y706965D01*
X-36405Y706743D01*
X-36572Y706549D01*
X-36711Y706382D01*
X-36850Y706243D01*
X-36933Y706160D01*
X-36988Y706105D01*
X-37016Y706077D01*
X-37349Y705827D01*
X-37710Y705605D01*
X-38488Y705244D01*
X-39320Y704966D01*
X-40098Y704744D01*
X-40459Y704661D01*
X-40792Y704605D01*
X-41097Y704550D01*
X-41375Y704522D01*
X-41597Y704494D01*
X-41764Y704466D01*
X-41902D01*
Y708409D01*
X-41486Y708492D01*
X-41097Y708575D01*
X-40792Y708686D01*
X-40570Y708797D01*
X-40375Y708881D01*
X-40237Y708964D01*
X-40153Y709019D01*
X-40126Y709047D01*
X-39931Y709242D01*
X-39792Y709464D01*
X-39709Y709714D01*
X-39654Y709936D01*
X-39598Y710130D01*
X-39570Y710297D01*
Y710408D01*
Y710435D01*
X-39598Y710741D01*
X-39654Y710991D01*
X-39737Y711240D01*
X-39848Y711407D01*
X-39931Y711546D01*
X-40015Y711657D01*
X-40070Y711712D01*
X-40098Y711740D01*
X-40348Y711907D01*
X-40625Y712046D01*
X-41208Y712212D01*
X-41486Y712296D01*
X-41708Y712323D01*
X-41847Y712351D01*
X-41902D01*
Y716293D01*
X-41597Y716376D01*
X-41347Y716432D01*
X-41153Y716515D01*
X-41014Y716571D01*
X-40903Y716599D01*
X-40820Y716626D01*
X-40764Y716654D01*
X-40598Y716849D01*
X-40486Y717043D01*
X-40375Y717209D01*
X-40320Y717376D01*
X-40292Y717487D01*
X-40264Y717598D01*
Y717654D01*
Y717681D01*
X-40292Y717848D01*
X-40320Y718015D01*
X-40459Y718264D01*
X-40570Y718431D01*
X-40598Y718486D01*
X-40625D01*
X-40792Y718597D01*
X-40986Y718708D01*
X-41403Y718847D01*
X-41597Y718903D01*
X-41764Y718931D01*
X-41875Y718958D01*
X-41902D01*
Y722901D01*
X-41403Y722873D01*
D02*
G37*
G36*
X-43596Y718986D02*
X-43874Y718903D01*
X-44123Y718820D01*
X-44318Y718708D01*
X-44484Y718625D01*
X-44623Y718542D01*
X-44706Y718486D01*
X-44762Y718459D01*
X-44790Y718431D01*
X-44928Y718292D01*
X-45012Y718181D01*
X-45123Y717931D01*
X-45178Y717765D01*
Y717709D01*
Y717681D01*
X-45150Y717459D01*
X-45123Y717293D01*
X-45067Y717126D01*
X-45012Y716987D01*
X-44928Y716904D01*
X-44873Y716821D01*
X-44845Y716793D01*
X-44817Y716765D01*
X-44679Y716654D01*
X-44484Y716571D01*
X-44096Y716432D01*
X-43901Y716376D01*
X-43735Y716349D01*
X-43624Y716321D01*
X-43596D01*
Y712379D01*
X-43984Y712296D01*
X-44345Y712184D01*
X-44651Y712073D01*
X-44873Y711962D01*
X-45067Y711879D01*
X-45206Y711796D01*
X-45289Y711740D01*
X-45317Y711712D01*
X-45511Y711518D01*
X-45650Y711324D01*
X-45761Y711102D01*
X-45817Y710907D01*
X-45872Y710741D01*
X-45900Y710602D01*
Y710491D01*
Y710463D01*
X-45872Y710130D01*
X-45789Y709825D01*
X-45678Y709547D01*
X-45567Y709325D01*
X-45428Y709131D01*
X-45317Y708992D01*
X-45234Y708908D01*
X-45206Y708881D01*
X-45040Y708770D01*
X-44790Y708686D01*
X-44540Y708603D01*
X-44262Y708520D01*
X-44012Y708492D01*
X-43790Y708437D01*
X-43651Y708409D01*
X-43596D01*
Y704439D01*
X-44179Y704522D01*
X-44734Y704605D01*
X-45234Y704716D01*
X-45706Y704855D01*
X-46150Y704966D01*
X-46539Y705105D01*
X-46900Y705244D01*
X-47233Y705383D01*
X-47510Y705521D01*
X-47760Y705660D01*
X-47982Y705771D01*
X-48149Y705882D01*
X-48288Y705966D01*
X-48371Y706021D01*
X-48426Y706077D01*
X-48454D01*
X-48787Y706382D01*
X-49065Y706715D01*
X-49343Y707048D01*
X-49537Y707409D01*
X-49731Y707770D01*
X-49870Y708131D01*
X-50120Y708853D01*
X-50175Y709186D01*
X-50231Y709492D01*
X-50286Y709741D01*
X-50314Y709991D01*
X-50342Y710185D01*
Y710324D01*
Y710435D01*
Y710463D01*
X-50314Y710907D01*
X-50259Y711324D01*
X-50175Y711712D01*
X-50092Y712046D01*
X-49981Y712323D01*
X-49898Y712545D01*
X-49842Y712684D01*
X-49815Y712740D01*
X-49620Y713128D01*
X-49398Y713462D01*
X-49204Y713767D01*
X-48982Y714044D01*
X-48815Y714239D01*
X-48676Y714405D01*
X-48565Y714489D01*
X-48538Y714516D01*
X-48871Y714988D01*
X-49009Y715210D01*
X-49120Y715433D01*
X-49232Y715599D01*
X-49287Y715738D01*
X-49343Y715849D01*
Y715877D01*
X-49454Y716182D01*
X-49509Y716460D01*
X-49565Y716737D01*
X-49620Y717015D01*
Y717209D01*
X-49648Y717404D01*
Y717515D01*
Y717542D01*
X-49620Y717987D01*
X-49565Y718403D01*
X-49481Y718792D01*
X-49398Y719181D01*
X-49120Y719847D01*
X-48982Y720124D01*
X-48815Y720402D01*
X-48649Y720624D01*
X-48510Y720846D01*
X-48371Y721013D01*
X-48232Y721152D01*
X-48149Y721290D01*
X-48066Y721374D01*
X-48010Y721402D01*
X-47982Y721429D01*
X-47649Y721679D01*
X-47316Y721929D01*
X-46955Y722123D01*
X-46594Y722290D01*
X-45872Y722540D01*
X-45178Y722706D01*
X-44845Y722790D01*
X-44540Y722817D01*
X-44290Y722845D01*
X-44040Y722873D01*
X-43846Y722901D01*
X-43596D01*
Y718986D01*
D02*
G37*
G36*
X12928Y739837D02*
X5043Y739837D01*
Y743862D01*
X12928Y743862D01*
Y739837D01*
D02*
G37*
G36*
X-17888Y739837D02*
X-25773D01*
Y743862D01*
X-17888D01*
Y739837D01*
D02*
G37*
G36*
X-77577Y737005D02*
X-80353Y740253D01*
X-77632Y743862D01*
X-72386D01*
X-77577Y737005D01*
D02*
G37*
G36*
X59402Y744279D02*
X60096Y744223D01*
X60734Y744112D01*
X61373Y743973D01*
X61956Y743807D01*
X62511Y743640D01*
X63039Y743446D01*
X63483Y743251D01*
X63927Y743057D01*
X64288Y742863D01*
X64621Y742696D01*
X64899Y742530D01*
X65121Y742391D01*
X65259Y742280D01*
X65371Y742224D01*
X65398Y742197D01*
X65926Y741752D01*
X66425Y741253D01*
X66842Y740753D01*
X67231Y740225D01*
X67564Y739698D01*
X67841Y739170D01*
X68064Y738671D01*
X68286Y738171D01*
X68452Y737699D01*
X68563Y737255D01*
X68674Y736866D01*
X68758Y736533D01*
X68813Y736255D01*
X68841Y736033D01*
X68869Y735922D01*
Y735867D01*
X64427D01*
X64177Y736644D01*
X63844Y737310D01*
X63510Y737866D01*
X63177Y738310D01*
X62844Y738671D01*
X62594Y738921D01*
X62483Y739004D01*
X62400Y739059D01*
X62372Y739115D01*
X62344D01*
X61761Y739476D01*
X61123Y739753D01*
X60512Y739948D01*
X59957Y740059D01*
X59457Y740142D01*
X59235Y740170D01*
X59068D01*
X58902Y740198D01*
X58708D01*
X57986Y740142D01*
X57319Y740031D01*
X56709Y739837D01*
X56181Y739642D01*
X55737Y739420D01*
X55571Y739337D01*
X55432Y739226D01*
X55321Y739170D01*
X55237Y739115D01*
X55182Y739059D01*
X55154D01*
X54599Y738587D01*
X54155Y738088D01*
X53766Y737560D01*
X53488Y737033D01*
X53266Y736589D01*
X53183Y736366D01*
X53100Y736200D01*
X53044Y736061D01*
X53016Y735950D01*
X52989Y735894D01*
Y735867D01*
X48519D01*
X48658Y736616D01*
X48852Y737310D01*
X49074Y737949D01*
X49324Y738560D01*
X49574Y739115D01*
X49879Y739642D01*
X50185Y740114D01*
X50462Y740531D01*
X50768Y740892D01*
X51045Y741225D01*
X51295Y741475D01*
X51517Y741725D01*
X51684Y741891D01*
X51850Y742002D01*
X51934Y742085D01*
X51961Y742113D01*
X52489Y742502D01*
X53072Y742835D01*
X53627Y743140D01*
X54210Y743390D01*
X54765Y743585D01*
X55321Y743779D01*
X55876Y743918D01*
X56376Y744029D01*
X56848Y744112D01*
X57292Y744195D01*
X57680Y744251D01*
X58014Y744279D01*
X58291Y744306D01*
X58680D01*
X59402Y744279D01*
D02*
G37*
G36*
X78141Y739837D02*
X76337D01*
X75948Y739809D01*
X75615Y739753D01*
X75337Y739726D01*
X75143Y739670D01*
X74976Y739615D01*
X74893Y739587D01*
X74865D01*
X74588Y739448D01*
X74393Y739281D01*
X74254Y739115D01*
X74171Y738921D01*
X74088Y738754D01*
X74060Y738615D01*
Y738504D01*
Y738476D01*
X74088Y738143D01*
X74143Y737893D01*
X74254Y737671D01*
X74366Y737533D01*
X74477Y737421D01*
X74588Y737338D01*
X74643Y737283D01*
X74671D01*
X74949Y737199D01*
X75282Y737144D01*
X75615Y737088D01*
X75948Y737060D01*
X76281D01*
X76531Y737033D01*
X76753D01*
X78141Y737088D01*
Y733035D01*
X76392D01*
X75865Y733063D01*
X75365Y733091D01*
X74865Y733146D01*
X74421Y733229D01*
X74005Y733313D01*
X73644Y733424D01*
X73283Y733535D01*
X72977Y733646D01*
X72672Y733757D01*
X72422Y733840D01*
X72228Y733951D01*
X72034Y734034D01*
X71895Y734118D01*
X71811Y734173D01*
X71756Y734229D01*
X71728D01*
X71367Y734506D01*
X71034Y734812D01*
X70756Y735145D01*
X70534Y735478D01*
X70312Y735839D01*
X70146Y736172D01*
X70007Y736533D01*
X69896Y736866D01*
X69812Y737199D01*
X69757Y737505D01*
X69701Y737782D01*
X69674Y738004D01*
X69646Y738199D01*
Y738365D01*
Y738449D01*
Y738476D01*
X69674Y739004D01*
X69729Y739476D01*
X69840Y739920D01*
X69979Y740309D01*
X70118Y740670D01*
X70285Y741003D01*
X70479Y741280D01*
X70673Y741530D01*
X70868Y741752D01*
X71062Y741947D01*
X71228Y742085D01*
X71367Y742197D01*
X71506Y742308D01*
X71617Y742363D01*
X71673Y742419D01*
X71700D01*
X72061Y742669D01*
X72450Y742891D01*
X72866Y743085D01*
X73283Y743251D01*
X74116Y743501D01*
X74893Y743696D01*
X75254Y743751D01*
X75615Y743779D01*
X75892Y743807D01*
X76170Y743835D01*
X76364Y743862D01*
X78141D01*
Y739837D01*
D02*
G37*
G36*
X-2175Y739837D02*
X-3979D01*
X-4368Y739809D01*
X-4701Y739753D01*
X-4979Y739726D01*
X-5173Y739670D01*
X-5340Y739615D01*
X-5423Y739587D01*
X-5451D01*
X-5728Y739448D01*
X-5923Y739281D01*
X-6062Y739115D01*
X-6145Y738921D01*
X-6228Y738754D01*
X-6256Y738615D01*
Y738504D01*
Y738476D01*
X-6228Y738171D01*
X-6117Y737921D01*
X-5978Y737699D01*
X-5812Y737532D01*
X-5617Y737421D01*
X-5479Y737310D01*
X-5368Y737283D01*
X-5340Y737255D01*
X-5062Y737199D01*
X-4757Y737144D01*
X-4396Y737116D01*
X-4063Y737088D01*
X-3757Y737060D01*
X-2175D01*
Y733035D01*
X-3924D01*
X-4451Y733063D01*
X-4979Y733091D01*
X-5451Y733146D01*
X-5895Y733229D01*
X-6311Y733313D01*
X-6700Y733424D01*
X-7061Y733535D01*
X-7366Y733646D01*
X-7672Y733757D01*
X-7922Y733840D01*
X-8116Y733951D01*
X-8310Y734034D01*
X-8449Y734118D01*
X-8532Y734173D01*
X-8588Y734229D01*
X-8616D01*
X-8977Y734506D01*
X-9282Y734812D01*
X-9560Y735145D01*
X-9809Y735478D01*
X-10004Y735839D01*
X-10170Y736200D01*
X-10309Y736533D01*
X-10420Y736894D01*
X-10503Y737199D01*
X-10559Y737505D01*
X-10615Y737782D01*
X-10642Y738004D01*
X-10670Y738199D01*
Y738365D01*
Y738449D01*
Y738476D01*
X-10642Y738976D01*
X-10559Y739448D01*
X-10420Y739892D01*
X-10254Y740309D01*
X-10032Y740670D01*
X-9809Y741031D01*
X-9560Y741336D01*
X-9310Y741641D01*
X-9060Y741891D01*
X-8810Y742113D01*
X-8588Y742280D01*
X-8366Y742446D01*
X-8199Y742557D01*
X-8061Y742668D01*
X-7977Y742696D01*
X-7949Y742724D01*
X-7672Y742918D01*
X-7366Y743113D01*
X-6672Y743390D01*
X-5978Y743585D01*
X-5257Y743723D01*
X-4951Y743779D01*
X-4646Y743807D01*
X-4368Y743835D01*
X-4118D01*
X-3924Y743862D01*
X-2175D01*
Y739837D01*
D02*
G37*
G36*
X12928Y733007D02*
X5043Y733007D01*
Y737033D01*
X12928Y737033D01*
Y733007D01*
D02*
G37*
G36*
X-17888Y733007D02*
X-25773D01*
Y737033D01*
X-17888D01*
Y733007D01*
D02*
G37*
G36*
X-63002Y739837D02*
X-65029D01*
X-65389Y739809D01*
X-65695Y739753D01*
X-65945Y739726D01*
X-66139Y739670D01*
X-66278Y739615D01*
X-66361Y739587D01*
X-66389D01*
X-66639Y739448D01*
X-66805Y739281D01*
X-66944Y739115D01*
X-67027Y738921D01*
X-67083Y738754D01*
X-67111Y738643D01*
Y738532D01*
Y738504D01*
X-67055Y738171D01*
X-66944Y737866D01*
X-66778Y737616D01*
X-66583Y737449D01*
X-66361Y737283D01*
X-66195Y737199D01*
X-66083Y737144D01*
X-66028Y737116D01*
X-65861Y737088D01*
X-65639Y737060D01*
X-65362D01*
X-65056Y737033D01*
X-63002D01*
Y733007D01*
X-64640D01*
X-65195Y733035D01*
X-65723Y733063D01*
X-66195Y733118D01*
X-66666Y733202D01*
X-67083Y733285D01*
X-67472Y733396D01*
X-67832Y733507D01*
X-68166Y733618D01*
X-68443Y733729D01*
X-68693Y733812D01*
X-68915Y733923D01*
X-69082Y734007D01*
X-69221Y734090D01*
X-69332Y734145D01*
X-69387Y734201D01*
X-69415D01*
X-69776Y734479D01*
X-70109Y734784D01*
X-70387Y735117D01*
X-70609Y735478D01*
X-70831Y735839D01*
X-70997Y736200D01*
X-71136Y736561D01*
X-71247Y736894D01*
X-71330Y737227D01*
X-71386Y737532D01*
X-71442Y737810D01*
X-71469Y738060D01*
X-71497Y738254D01*
Y738393D01*
Y738504D01*
Y738532D01*
X-71469Y739059D01*
X-71414Y739559D01*
X-71303Y740003D01*
X-71164Y740392D01*
X-70997Y740753D01*
X-70803Y741086D01*
X-70609Y741364D01*
X-70414Y741613D01*
X-70192Y741836D01*
X-69998Y742030D01*
X-69804Y742169D01*
X-69637Y742308D01*
X-69498Y742391D01*
X-69387Y742446D01*
X-69332Y742502D01*
X-69304D01*
X-68915Y742752D01*
X-68527Y742946D01*
X-68110Y743140D01*
X-67694Y743279D01*
X-66833Y743529D01*
X-66028Y743696D01*
X-65667Y743751D01*
X-65334Y743779D01*
X-65029Y743835D01*
X-64751D01*
X-64556Y743862D01*
X-63002D01*
Y739837D01*
D02*
G37*
G36*
X28086Y737421D02*
X25476Y732813D01*
X20396Y743945D01*
X25171D01*
X28086Y737421D01*
D02*
G37*
G36*
X37858Y737283D02*
X35637Y732563D01*
X34027Y735617D01*
X28725Y725678D01*
X26476Y730314D01*
X34027Y744417D01*
X37858Y737283D01*
D02*
G37*
G36*
X68730Y733396D02*
X68535Y732702D01*
X68286Y732036D01*
X67980Y731425D01*
X67675Y730870D01*
X67342Y730342D01*
X66981Y729870D01*
X66648Y729426D01*
X66287Y729065D01*
X65954Y728732D01*
X65648Y728454D01*
X65398Y728204D01*
X65176Y728038D01*
X64982Y727899D01*
X64871Y727816D01*
X64843Y727788D01*
X64399Y727427D01*
X63927Y727122D01*
X63427Y726844D01*
X62900Y726594D01*
X62400Y726400D01*
X61900Y726233D01*
X61401Y726094D01*
X60901Y725983D01*
X60457Y725900D01*
X60040Y725845D01*
X59679Y725789D01*
X59346Y725761D01*
X59068D01*
X58874Y725733D01*
X58708D01*
X57986Y725761D01*
X57292Y725817D01*
X56625Y725928D01*
X55987Y726067D01*
X55404Y726206D01*
X54849Y726400D01*
X54349Y726594D01*
X53877Y726788D01*
X53461Y726983D01*
X53100Y727149D01*
X52766Y727344D01*
X52517Y727483D01*
X52295Y727621D01*
X52128Y727732D01*
X52045Y727788D01*
X52017Y727816D01*
X51490Y728260D01*
X51045Y728732D01*
X50629Y729204D01*
X50268Y729731D01*
X49935Y730259D01*
X49657Y730786D01*
X49407Y731314D01*
X49185Y731813D01*
X49019Y732285D01*
X48880Y732730D01*
X48769Y733118D01*
X48685Y733479D01*
X48630Y733757D01*
X48574Y733951D01*
X48547Y734090D01*
Y734146D01*
X52989D01*
X53266Y733396D01*
X53627Y732730D01*
X54016Y732147D01*
X54432Y731647D01*
X54904Y731230D01*
X55376Y730870D01*
X55848Y730592D01*
X56320Y730370D01*
X56792Y730175D01*
X57236Y730037D01*
X57625Y729953D01*
X57986Y729870D01*
X58263Y729842D01*
X58485Y729815D01*
X58680D01*
X59457Y729870D01*
X60151Y729981D01*
X60762Y730148D01*
X61290Y730342D01*
X61734Y730509D01*
X61900Y730592D01*
X62039Y730675D01*
X62150Y730759D01*
X62233Y730786D01*
X62289Y730842D01*
X62317D01*
X62594Y731064D01*
X62816Y731286D01*
X63261Y731813D01*
X63622Y732341D01*
X63899Y732896D01*
X64121Y733368D01*
X64205Y733590D01*
X64288Y733785D01*
X64343Y733923D01*
X64371Y734034D01*
X64399Y734118D01*
Y734146D01*
X68869D01*
X68730Y733396D01*
D02*
G37*
G36*
X84582Y726206D02*
X80057D01*
Y743862D01*
X84582D01*
Y726206D01*
D02*
G37*
G36*
X19369D02*
X14843D01*
Y743862D01*
X19369D01*
Y726206D01*
D02*
G37*
G36*
X12928D02*
X5043Y726206D01*
Y730231D01*
X12928Y730231D01*
Y726206D01*
D02*
G37*
G36*
X4266Y726206D02*
X-259D01*
Y743862D01*
X4266D01*
Y726206D01*
D02*
G37*
G36*
X-7727Y732535D02*
X-7366Y732369D01*
X-7033Y732258D01*
X-6728Y732147D01*
X-6478Y732091D01*
X-6311Y732036D01*
X-6173Y732008D01*
X-6145D01*
X-5784Y731952D01*
X-5395Y731925D01*
X-5007Y731897D01*
X-4646D01*
X-4313Y731869D01*
X-3813D01*
X-5950Y726206D01*
X-10587D01*
X-8144Y732702D01*
X-7727Y732535D01*
D02*
G37*
G36*
X-11447Y726206D02*
X-15973D01*
Y743862D01*
X-11447D01*
Y726206D01*
D02*
G37*
G36*
X-17888D02*
X-25773D01*
Y730231D01*
X-17888D01*
Y726206D01*
D02*
G37*
G36*
X-26550D02*
X-31075D01*
Y743862D01*
X-26550D01*
Y726206D01*
D02*
G37*
G36*
X-32935Y739837D02*
X-33602D01*
X-34240Y739809D01*
X-34823Y739753D01*
X-35351Y739698D01*
X-35823Y739642D01*
X-36267Y739587D01*
X-36683Y739504D01*
X-37016Y739420D01*
X-37322Y739337D01*
X-37599Y739281D01*
X-37822Y739198D01*
X-38016Y739143D01*
X-38155Y739087D01*
X-38238Y739032D01*
X-38293Y739004D01*
X-38321D01*
X-38710Y738782D01*
X-39043Y738532D01*
X-39348Y738226D01*
X-39598Y737921D01*
X-39793Y737588D01*
X-39987Y737255D01*
X-40126Y736922D01*
X-40237Y736589D01*
X-40403Y735978D01*
X-40459Y735700D01*
X-40487Y735450D01*
X-40514Y735256D01*
Y735117D01*
Y735006D01*
Y734978D01*
X-40487Y734479D01*
X-40403Y734007D01*
X-40292Y733590D01*
X-40154Y733202D01*
X-39987Y732841D01*
X-39793Y732507D01*
X-39571Y732230D01*
X-39376Y731980D01*
X-39154Y731758D01*
X-38932Y731564D01*
X-38738Y731425D01*
X-38571Y731286D01*
X-38432Y731175D01*
X-38321Y731119D01*
X-38238Y731092D01*
X-38210Y731064D01*
X-37877Y730925D01*
X-37488Y730786D01*
X-36655Y730592D01*
X-35767Y730425D01*
X-34906Y730342D01*
X-34518Y730314D01*
X-34157Y730286D01*
X-33796Y730259D01*
X-33518D01*
X-33268Y730231D01*
X-32935D01*
Y726206D01*
X-34823D01*
X-35601Y726233D01*
X-36350Y726289D01*
X-37072Y726400D01*
X-37738Y726539D01*
X-38377Y726705D01*
X-38960Y726899D01*
X-39487Y727094D01*
X-39987Y727288D01*
X-40403Y727483D01*
X-40792Y727677D01*
X-41125Y727871D01*
X-41403Y728038D01*
X-41625Y728177D01*
X-41764Y728288D01*
X-41875Y728343D01*
X-41903Y728371D01*
X-42458Y728843D01*
X-42930Y729343D01*
X-43346Y729870D01*
X-43707Y730425D01*
X-44012Y730981D01*
X-44262Y731536D01*
X-44457Y732063D01*
X-44623Y732591D01*
X-44762Y733091D01*
X-44845Y733535D01*
X-44929Y733951D01*
X-44956Y734312D01*
X-44984Y734590D01*
X-45012Y734812D01*
Y734950D01*
Y735006D01*
X-44984Y735783D01*
X-44845Y736533D01*
X-44679Y737227D01*
X-44429Y737866D01*
X-44151Y738476D01*
X-43846Y739032D01*
X-43513Y739531D01*
X-43180Y740003D01*
X-42819Y740420D01*
X-42486Y740753D01*
X-42180Y741058D01*
X-41903Y741336D01*
X-41653Y741530D01*
X-41486Y741669D01*
X-41375Y741752D01*
X-41320Y741780D01*
X-40848Y742141D01*
X-40348Y742474D01*
X-39820Y742752D01*
X-39293Y742974D01*
X-38710Y743196D01*
X-38155Y743363D01*
X-37599Y743501D01*
X-37072Y743612D01*
X-36572Y743696D01*
X-36100Y743751D01*
X-35656Y743807D01*
X-35295Y743835D01*
X-34990Y743862D01*
X-32935D01*
Y739837D01*
D02*
G37*
G36*
X-56589Y726206D02*
X-61114D01*
Y743862D01*
X-56589D01*
Y726206D01*
D02*
G37*
G36*
X-70553Y733646D02*
X-70164Y733368D01*
X-69831Y733146D01*
X-69581Y732952D01*
X-69387Y732841D01*
X-69221Y732730D01*
X-69137Y732702D01*
X-69110Y732674D01*
X-68832Y732563D01*
X-68527Y732480D01*
X-68193Y732396D01*
X-67860Y732313D01*
X-67583Y732285D01*
X-67333Y732230D01*
X-67166Y732202D01*
X-67111D01*
X-67083Y731702D01*
X-67000Y731314D01*
X-66861Y730981D01*
X-66750Y730759D01*
X-66611Y730592D01*
X-66472Y730481D01*
X-66389Y730425D01*
X-66361Y730397D01*
X-66250Y730370D01*
X-66139Y730342D01*
X-65834Y730286D01*
X-65473Y730259D01*
X-65084Y730231D01*
X-64751Y730203D01*
X-64168D01*
X-63002Y730259D01*
Y726206D01*
X-65112D01*
X-65639Y726261D01*
X-66111Y726317D01*
X-66583Y726372D01*
X-67000Y726455D01*
X-67416Y726539D01*
X-67777Y726650D01*
X-68082Y726761D01*
X-68388Y726844D01*
X-68638Y726955D01*
X-68860Y727038D01*
X-69026Y727122D01*
X-69165Y727177D01*
X-69276Y727233D01*
X-69332Y727288D01*
X-69359D01*
X-69748Y727566D01*
X-70081Y727871D01*
X-70387Y728204D01*
X-70637Y728538D01*
X-70859Y728898D01*
X-71053Y729259D01*
X-71192Y729620D01*
X-71303Y729953D01*
X-71386Y730286D01*
X-71469Y730592D01*
X-71525Y730870D01*
X-71553Y731119D01*
X-71580Y731314D01*
Y731452D01*
Y731564D01*
Y731591D01*
X-71553Y731952D01*
X-71525Y732313D01*
X-71497Y732452D01*
X-71469Y732563D01*
X-71442Y732646D01*
Y732674D01*
X-71330Y733146D01*
X-71247Y733368D01*
X-71164Y733562D01*
X-71081Y733729D01*
X-71025Y733868D01*
X-70997Y733951D01*
X-70970Y733979D01*
X-70553Y733646D01*
D02*
G37*
G36*
X-78910Y735312D02*
Y726206D01*
X-83379D01*
Y733979D01*
X-91069Y743862D01*
X-85795D01*
X-78910Y735312D01*
D02*
G37*
G36*
X39302Y725678D02*
X36720Y730203D01*
X42883Y743945D01*
X47631D01*
X39302Y725678D01*
D02*
G37*
D11*
X-47500Y583330D02*
X-47500Y600330D01*
D12*
X-118576Y722630D02*
X-104860D01*
X-118576D02*
Y778002D01*
X-141619Y736346D02*
Y778002D01*
Y736346D02*
X-127903Y722630D01*
X-164663Y736346D02*
Y778002D01*
Y736346D02*
X-150947Y722630D01*
X-187706Y736346D02*
Y778002D01*
Y736346D02*
X-173990Y722630D01*
X117306D02*
Y778002D01*
X140349Y736346D02*
Y778002D01*
X126633Y722630D02*
X140349Y736346D01*
X167965D02*
Y778002D01*
X154249Y722630D02*
X167965Y736346D01*
X177292Y722630D02*
X191008Y736346D01*
Y778002D01*
X-12700Y515112D02*
Y568198D01*
X-40894Y478028D02*
X-36322Y482600D01*
Y566420D01*
X-22860Y579882D01*
X-12700Y568198D02*
X-1016Y579882D01*
X1016D02*
X12700Y568198D01*
X22860Y579882D02*
X36322Y566420D01*
Y482600D02*
Y566420D01*
Y482600D02*
X40894Y478028D01*
X12700Y515112D02*
Y568198D01*
X0Y579882D02*
X1016D01*
X-74422Y559562D02*
X-55118Y578866D01*
X-74422Y497332D02*
Y559562D01*
X74422Y497332D02*
Y559562D01*
X55118Y578866D02*
X74422Y559562D01*
X-75438Y579882D02*
X-59746D01*
X-94234Y561086D02*
X-75438Y579882D01*
X-94234Y520954D02*
Y561086D01*
X94234Y520954D02*
Y561086D01*
X75438Y579882D02*
X94234Y561086D01*
X59746Y579882D02*
X75438D01*
X59746D02*
Y700000D01*
X-60000Y580136D02*
Y700254D01*
X-60254Y579882D02*
X59746D01*
X-60000Y700254D02*
X60000D01*
X231077Y801307D02*
X236791Y807021D01*
X231077Y801307D02*
X242507D01*
X236791Y807021D02*
X242507Y801307D01*
X51816Y438442D02*
X52323Y441211D01*
X51816Y438442D02*
X55372D01*
X52324Y444030D02*
X55372Y438442D01*
X49276Y437680D02*
X52324Y444030D01*
X-17779Y477723D02*
X-17272Y480492D01*
X-20828D02*
X-17272D01*
X-20828D02*
X-17780Y474904D01*
X-14732Y481254D01*
X-52832Y438442D02*
X-52325Y441211D01*
X-52832Y438442D02*
X-49276D01*
X-52324Y444030D02*
X-49276Y438442D01*
X-55372Y437680D02*
X-52324Y444030D01*
X17781Y477723D02*
X18288Y480492D01*
X14732D02*
X18288D01*
X14732D02*
X17780Y474904D01*
X20828Y481254D01*
D14*
X47244Y445922D02*
X57404D01*
X52324D02*
X57404Y437032D01*
X47244D02*
X57404D01*
X47244D02*
X52324Y445922D01*
X-22860Y473012D02*
X-12700D01*
X-22860Y481902D02*
X-17780Y473012D01*
X-22860Y481902D02*
X-12700D01*
X-17780Y473012D02*
X-12700Y481902D01*
X-57404Y445922D02*
X-47244D01*
X-52324D02*
X-47244Y437032D01*
X-57404D02*
X-47244D01*
X-57404D02*
X-52324Y445922D01*
X12700Y473012D02*
X22860D01*
X12700Y481902D02*
X17780Y473012D01*
X12700Y481902D02*
X22860D01*
X17780Y473012D02*
X22860Y481902D01*
D83*
X107696Y719582D02*
X213106D01*
X79756Y691642D02*
X107696Y719582D01*
X64770Y691642D02*
X79756D01*
X93218Y582676D02*
X213106D01*
X85090Y590804D02*
X93218Y582676D01*
X64262Y590804D02*
X85090D01*
X153162Y513588D02*
Y582676D01*
Y513588D02*
X213106Y453644D01*
X-213106Y453390D02*
X-153162Y513334D01*
Y582422D01*
X-85090Y590550D02*
X-64262D01*
X-93218Y582422D02*
X-85090Y590550D01*
X-213106Y582422D02*
X-93218D01*
X-79756Y691388D02*
X-64770D01*
X-107696Y719328D02*
X-79756Y691388D01*
X-213106Y719328D02*
X-107696D01*
D84*
X199299Y1258325D02*
X204298D01*
X201798D01*
Y1245829D01*
X204298Y1243330D01*
X206797D01*
X209296Y1245829D01*
X194301Y1258325D02*
Y1243330D01*
X184304D01*
X169309Y1255826D02*
X171808Y1258325D01*
X176807D01*
X179306Y1255826D01*
Y1245829D01*
X176807Y1243330D01*
X171808D01*
X169309Y1245829D01*
X154314Y1258325D02*
X159312D01*
X156813D01*
Y1245829D01*
X159312Y1243330D01*
X161811D01*
X164311Y1245829D01*
X149315Y1258325D02*
Y1243330D01*
X139319D01*
X124324Y1255826D02*
X126823Y1258325D01*
X131821D01*
X134320Y1255826D01*
Y1245829D01*
X131821Y1243330D01*
X126823D01*
X124324Y1245829D01*
X109328Y1258325D02*
X114327D01*
X111828D01*
Y1245829D01*
X114327Y1243330D01*
X116826D01*
X119325Y1245829D01*
X104330Y1258325D02*
Y1243330D01*
X94333D01*
X79338Y1255826D02*
X81837Y1258325D01*
X86836D01*
X89335Y1255826D01*
Y1245829D01*
X86836Y1243330D01*
X81837D01*
X79338Y1245829D01*
X64343Y1258325D02*
X69341D01*
X66842D01*
Y1245829D01*
X69341Y1243330D01*
X71841D01*
X74340Y1245829D01*
X59345Y1258325D02*
Y1243330D01*
X49348D01*
X34353Y1255826D02*
X36852Y1258325D01*
X41850D01*
X44349Y1255826D01*
Y1245829D01*
X41850Y1243330D01*
X36852D01*
X34353Y1245829D01*
M02*
