G04*
G04 #@! TF.GenerationSoftware,Altium Limited,Altium Designer,20.0.13 (296)*
G04*
G04 Layer_Color=255*
%FSLAX44Y44*%
%MOMM*%
G71*
G01*
G75*
%ADD17R,0.6500X1.5000*%
%ADD18R,1.2700X1.2700*%
%ADD19R,1.7780X1.6510*%
G04:AMPARAMS|DCode=20|XSize=1.778mm|YSize=1.651mm|CornerRadius=0mm|HoleSize=0mm|Usage=FLASHONLY|Rotation=0.000|XOffset=0mm|YOffset=0mm|HoleType=Round|Shape=Octagon|*
%AMOCTAGOND20*
4,1,8,0.8890,-0.4128,0.8890,0.4128,0.4763,0.8255,-0.4763,0.8255,-0.8890,0.4128,-0.8890,-0.4128,-0.4763,-0.8255,0.4763,-0.8255,0.8890,-0.4128,0.0*
%
%ADD20OCTAGOND20*%

%ADD21R,1.2700X1.2700*%
%ADD22R,2.2000X1.7500*%
%ADD23R,3.1500X2.6000*%
%ADD36C,2.2000*%
%ADD55C,1.7000*%
%ADD56C,5.0800*%
%ADD57C,2.5000*%
%ADD58R,2.0000X4.0000*%
%ADD59R,4.0000X2.0000*%
%ADD60C,2.0000*%
%ADD61R,2.0000X2.0000*%
%ADD62R,1.7000X1.7000*%
%ADD63C,1.2000*%
%ADD64R,1.2000X1.5000*%
%ADD65R,1.5000X1.2000*%
%ADD66R,2.5000X2.5000*%
%ADD67R,1.7000X1.7000*%
D17*
X7112Y866588D02*
D03*
X19812D02*
D03*
Y949588D02*
D03*
X-5588Y866588D02*
D03*
X-18288D02*
D03*
X7112Y949588D02*
D03*
X-5588D02*
D03*
X-18288D02*
D03*
D18*
X90122Y133111D02*
D03*
Y110251D02*
D03*
Y172001D02*
D03*
Y149141D02*
D03*
X90072Y93111D02*
D03*
Y70251D02*
D03*
X-89120Y71172D02*
D03*
Y94032D02*
D03*
X-89120Y134462D02*
D03*
Y111602D02*
D03*
X90122Y30718D02*
D03*
Y53578D02*
D03*
X-89120D02*
D03*
Y30718D02*
D03*
X-89120Y173462D02*
D03*
Y150602D02*
D03*
D19*
X136399Y1220978D02*
D03*
D20*
X103379D02*
D03*
D21*
X185420Y1162304D02*
D03*
X208280D02*
D03*
X29210Y486956D02*
D03*
X52070D02*
D03*
X-29464Y487210D02*
D03*
X-52324D02*
D03*
X-29464Y470446D02*
D03*
X-52324D02*
D03*
X28956Y470192D02*
D03*
X51816D02*
D03*
D22*
X-99200Y451396D02*
D03*
X-53200D02*
D03*
X-129400D02*
D03*
X-175400D02*
D03*
X129400D02*
D03*
X175400D02*
D03*
X53200D02*
D03*
X99200D02*
D03*
D23*
X-406400Y326614D02*
D03*
Y254614D02*
D03*
X406400Y254614D02*
D03*
Y326614D02*
D03*
D36*
X-211820Y310000D02*
D03*
Y225000D02*
D03*
X-336820Y310000D02*
D03*
Y225000D02*
D03*
X-153940D02*
D03*
Y310000D02*
D03*
X-28940Y225000D02*
D03*
Y310000D02*
D03*
X153940D02*
D03*
Y225000D02*
D03*
X28940D02*
D03*
Y310000D02*
D03*
X336820D02*
D03*
Y225000D02*
D03*
X211820D02*
D03*
Y310000D02*
D03*
D55*
X16710Y83681D02*
D03*
X66710D02*
D03*
X-65910Y131680D02*
D03*
X-15910D02*
D03*
X-65910Y44638D02*
D03*
X-15910D02*
D03*
X-118872Y1191514D02*
D03*
X0Y759244D02*
D03*
X25400D02*
D03*
X-170593Y1036428D02*
D03*
Y986428D02*
D03*
X-231470Y1036428D02*
D03*
Y986428D02*
D03*
X-291338Y1036428D02*
D03*
Y986428D02*
D03*
X-352298Y1036428D02*
D03*
Y986428D02*
D03*
X16710Y131680D02*
D03*
X66710D02*
D03*
X-15910Y83681D02*
D03*
X-65910D02*
D03*
X16710Y44638D02*
D03*
X66710D02*
D03*
X-319532Y1107948D02*
D03*
Y1082548D02*
D03*
X-348742Y1107948D02*
D03*
Y1082548D02*
D03*
X170942Y879640D02*
D03*
X196342D02*
D03*
D56*
X0Y1100000D02*
D03*
X-450000Y50000D02*
D03*
X450000D02*
D03*
D57*
X-81896Y1237596D02*
D03*
X-31896D02*
D03*
Y1187596D02*
D03*
X-81896D02*
D03*
X-56896Y1212596D02*
D03*
X-155702Y50038D02*
D03*
X396494Y1235456D02*
D03*
X157734Y105918D02*
D03*
D58*
X248402Y1189752D02*
D03*
D59*
X295402Y1224752D02*
D03*
Y1162752D02*
D03*
D60*
X228600Y446255D02*
D03*
Y582145D02*
D03*
Y718035D02*
D03*
X-228600Y446255D02*
D03*
Y718035D02*
D03*
Y582145D02*
D03*
D61*
X228600Y396255D02*
D03*
Y532145D02*
D03*
Y668035D02*
D03*
X-228600Y396255D02*
D03*
Y668035D02*
D03*
Y532145D02*
D03*
D62*
X-118872Y1166114D02*
D03*
X77216Y880148D02*
D03*
X-319532Y1133348D02*
D03*
X-348742D02*
D03*
X-75184Y880148D02*
D03*
D63*
X-160068Y1234752D02*
D03*
X-225068D02*
D03*
X-298953Y1234752D02*
D03*
X-363954D02*
D03*
D64*
X-150068Y1164752D02*
D03*
X-163068Y1184752D02*
D03*
X-179068Y1164752D02*
D03*
X-211068D02*
D03*
X-231068Y1194752D02*
D03*
X-369953Y1194752D02*
D03*
X-349953Y1164752D02*
D03*
X-317953D02*
D03*
X-301953Y1184752D02*
D03*
X-288953Y1164752D02*
D03*
D65*
X-195068Y1245752D02*
D03*
X-333954Y1245752D02*
D03*
D66*
X-155702Y100838D02*
D03*
X396494Y1184656D02*
D03*
X157734Y55118D02*
D03*
D67*
X-25400Y759244D02*
D03*
X145542Y879640D02*
D03*
M02*
