M48
;Layer_Color=9474304
;FILE_FORMAT=4:4
METRIC,LZ
;TYPE=PLATED
T2F00S00C0.5000
T5F00S00C0.8000
;TYPE=NON_PLATED
%
G90
G05
T02
G00X-00349953Y01168252
M15
G01Y01161252
M16
G00X-00317953Y01168252
M15
G01Y01161252
M16
G00X-00288953Y01168252
M15
G01Y01161252
M16
G00X-00301953Y01188252
M15
G01Y01181252
M16
G00X-00369953Y01198252
M15
G01Y01191252
M16
G00X-00337453Y01245752
M15
G01X-00330453
M16
G00X-00198568Y01245752
M15
G01X-00191568
M16
G00X-00231068Y01198252
M15
G01Y01191252
M16
G00X-00211068Y01168252
M15
G01Y01161252
M16
G00X-00179068Y01168252
M15
G01Y01161252
M16
G00X-00150068Y01168252
M15
G01Y01161252
M16
G00X-00163068Y01188252
M15
G01Y01181252
M16
T05
G00X00248402Y01181252
M15
G01Y01198252
M16
G00X00306402Y01162752
M15
G01X00284402
M16
G00X00306402Y01224752
M15
G01X00284402
M16
M17
M30
